M48
;DRILL file {KiCad 4.0.7} date 08/30/18 09:04:47
;FORMAT={-:-/ absolute / metric / decimal}
FMAT,2
METRIC,TZ
T1C0.400
T2C0.600
T3C0.700
T4C1.000
T5C1.520
%
G90
G05
M71
T1
X161.29Y-109.855
X162.243Y-109.855
X162.243Y-120.015
X163.195Y-109.855
X163.195Y-119.062
X170.18Y-118.681
X171.132Y-118.681
X171.894Y-108.458
X181.494Y-114.352
X181.61Y-101.92
X181.61Y-120.838
X182.753Y-114.3
X182.88Y-106.553
X186.182Y-101.92
X186.182Y-103.82
X186.706Y-94.582
X188.706Y-94.582
X189.23Y-118.938
X190.754Y-101.92
X190.754Y-103.82
X192.706Y-94.582
X194.706Y-94.582
X195.326Y-101.92
X195.326Y-105.73
X195.326Y-110.81
X195.326Y-112.71
T2
X188.595Y-111.697
X189.865Y-111.697
X191.135Y-111.697
T3
X187.198Y-124.022
X187.198Y-126.422
T4
X156.21Y-130.302
X158.115Y-71.628
X158.115Y-74.168
X158.115Y-76.708
X158.115Y-79.248
X158.115Y-81.788
X158.115Y-84.328
X158.115Y-86.868
X158.115Y-89.408
X158.115Y-91.948
X158.115Y-94.488
X158.115Y-97.028
X158.115Y-99.568
X158.115Y-102.108
X158.115Y-104.648
X158.115Y-107.188
X158.115Y-109.728
X158.115Y-112.268
X158.115Y-114.808
X158.115Y-117.348
X158.115Y-119.888
X158.75Y-130.302
X161.29Y-130.302
X163.83Y-130.302
X166.37Y-130.302
X171.45Y-130.302
X173.355Y-71.628
X173.355Y-74.168
X173.355Y-76.708
X173.355Y-79.248
X173.355Y-81.788
X173.355Y-84.328
X173.355Y-86.868
X173.355Y-89.408
X173.355Y-91.948
X173.355Y-94.488
X173.355Y-97.028
X173.355Y-99.568
X173.355Y-102.108
X173.355Y-104.648
X173.355Y-107.188
X173.355Y-109.728
X173.355Y-112.268
X173.355Y-114.808
X173.355Y-117.348
X173.355Y-119.888
X173.99Y-130.302
X176.53Y-130.302
X179.07Y-130.302
X181.61Y-130.302
X192.468Y-72.009
X198.12Y-73.66
X198.12Y-83.82
X198.12Y-93.726
X198.247Y-104.14
X198.628Y-113.919
X200.66Y-73.66
X200.66Y-83.82
X200.66Y-93.726
X200.787Y-104.14
X201.168Y-113.919
X203.2Y-73.66
X203.2Y-83.82
X203.2Y-93.726
X203.327Y-104.14
X203.708Y-113.919
T5
X215.9Y-71.12
X215.9Y-76.2
X215.9Y-81.28
X215.9Y-86.36
X215.9Y-91.44
X215.9Y-96.52
X215.9Y-101.6
X215.9Y-106.68
X215.9Y-111.76
X215.9Y-116.84
X215.9Y-124.46
X215.9Y-129.54
T0
M30
