G04 #@! TF.FileFunction,Copper,L2,Bot,Signal*
%FSLAX46Y46*%
G04 Gerber Fmt 4.6, Leading zero omitted, Abs format (unit mm)*
G04 Created by KiCad (PCBNEW 4.0.7) date 08/30/18 09:04:44*
%MOMM*%
%LPD*%
G01*
G04 APERTURE LIST*
%ADD10C,0.100000*%
%ADD11R,1.800000X1.800000*%
%ADD12O,1.800000X1.800000*%
%ADD13R,3.000000X3.000000*%
%ADD14C,3.000000*%
%ADD15R,1.700000X1.700000*%
%ADD16O,1.700000X1.700000*%
%ADD17O,0.900000X1.500000*%
%ADD18R,0.900000X1.500000*%
%ADD19R,1.400000X1.400000*%
%ADD20C,1.400000*%
%ADD21C,1.700000*%
%ADD22C,0.600000*%
%ADD23C,0.500000*%
%ADD24C,3.000000*%
%ADD25C,4.000000*%
%ADD26C,0.250000*%
%ADD27C,0.254000*%
G04 APERTURE END LIST*
D10*
D11*
X203200000Y-73660000D03*
D12*
X200660000Y-73660000D03*
X198120000Y-73660000D03*
D11*
X203200000Y-83820000D03*
D12*
X200660000Y-83820000D03*
X198120000Y-83820000D03*
D11*
X203200000Y-93726000D03*
D12*
X200660000Y-93726000D03*
X198120000Y-93726000D03*
D11*
X203327000Y-104140000D03*
D12*
X200787000Y-104140000D03*
X198247000Y-104140000D03*
D11*
X203708000Y-113919000D03*
D12*
X201168000Y-113919000D03*
X198628000Y-113919000D03*
D13*
X215900000Y-129540000D03*
D14*
X215900000Y-124460000D03*
D15*
X156210000Y-130302000D03*
D16*
X158750000Y-130302000D03*
X161290000Y-130302000D03*
X163830000Y-130302000D03*
X166370000Y-130302000D03*
D15*
X171450000Y-130302000D03*
D16*
X173990000Y-130302000D03*
X176530000Y-130302000D03*
X179070000Y-130302000D03*
X181610000Y-130302000D03*
D13*
X215900000Y-116840000D03*
D14*
X215900000Y-111760000D03*
D13*
X215900000Y-96520000D03*
D14*
X215900000Y-91440000D03*
D13*
X215900000Y-76200000D03*
D14*
X215900000Y-71120000D03*
D15*
X192468500Y-72009000D03*
D13*
X215900000Y-106680000D03*
D14*
X215900000Y-101600000D03*
D13*
X215900000Y-86360000D03*
D14*
X215900000Y-81280000D03*
D17*
X189865000Y-111696500D03*
X188595000Y-111696500D03*
D18*
X191135000Y-111696500D03*
D19*
X187198000Y-124022000D03*
D20*
X187198000Y-126422000D03*
D15*
X158115000Y-119888000D03*
D21*
X158115000Y-117348000D03*
X158115000Y-114808000D03*
X158115000Y-112268000D03*
X158115000Y-109728000D03*
X158115000Y-107188000D03*
X158115000Y-104648000D03*
X158115000Y-102108000D03*
X158115000Y-99568000D03*
X158115000Y-97028000D03*
X158115000Y-94488000D03*
X158115000Y-91948000D03*
X158115000Y-89408000D03*
X158115000Y-86868000D03*
X158115000Y-84328000D03*
X158115000Y-81788000D03*
X158115000Y-79248000D03*
X158115000Y-76708000D03*
X158115000Y-74168000D03*
X158115000Y-71628000D03*
X173355000Y-71628000D03*
X173355000Y-74168000D03*
X173355000Y-76708000D03*
X173355000Y-79248000D03*
X173355000Y-81788000D03*
X173355000Y-84328000D03*
X173355000Y-86868000D03*
X173355000Y-89408000D03*
X173355000Y-91948000D03*
X173355000Y-94488000D03*
X173355000Y-97028000D03*
X173355000Y-99568000D03*
X173355000Y-102108000D03*
X173355000Y-104648000D03*
X173355000Y-107188000D03*
X173355000Y-109728000D03*
X173355000Y-112268000D03*
X173355000Y-114808000D03*
X173355000Y-117348000D03*
D15*
X173355000Y-119888000D03*
D22*
X170180000Y-118681500D03*
X181610000Y-120838000D03*
X186706000Y-94582000D03*
X188706000Y-94582000D03*
X192706000Y-94582000D03*
X194706000Y-94582000D03*
X195326000Y-112710000D03*
X190754000Y-103820000D03*
X182880000Y-106553000D03*
X195326000Y-105730000D03*
X163195000Y-119062500D03*
X163195000Y-109855000D03*
X162242500Y-120015000D03*
X162242500Y-109855000D03*
X161290000Y-109855000D03*
X171132500Y-118681500D03*
X181493925Y-114351510D03*
X182753000Y-114300000D03*
X189230000Y-118938000D03*
X195326000Y-110810000D03*
X171894500Y-108458000D03*
X190754000Y-101920000D03*
X181610000Y-101920000D03*
X195326000Y-101920000D03*
X186182000Y-101920000D03*
X186182000Y-103820000D03*
D23*
X188595000Y-111696500D02*
X188595000Y-116967000D01*
X188595000Y-116967000D02*
X187198000Y-118364000D01*
X187198000Y-118364000D02*
X187198000Y-124022000D01*
X170180000Y-118681500D02*
X170180000Y-123952000D01*
X170180000Y-123952000D02*
X163830000Y-130302000D01*
X154495500Y-131097502D02*
X154495500Y-124857500D01*
X154495500Y-124857500D02*
X158115000Y-121238000D01*
X158115000Y-121238000D02*
X158115000Y-119888000D01*
X163830000Y-130302000D02*
X162529999Y-131602001D01*
X162529999Y-131602001D02*
X154999999Y-131602001D01*
X154999999Y-131602001D02*
X154495500Y-131097502D01*
X179070000Y-130302000D02*
X179070000Y-131504081D01*
X179070000Y-131504081D02*
X178972080Y-131602001D01*
X178972080Y-131602001D02*
X165130001Y-131602001D01*
X165130001Y-131602001D02*
X164679999Y-131151999D01*
X164679999Y-131151999D02*
X163830000Y-130302000D01*
X179070000Y-130302000D02*
X181610000Y-127762000D01*
X181610000Y-127762000D02*
X181610000Y-120838000D01*
D24*
X215900000Y-124460000D02*
X215900000Y-116840000D01*
D25*
X215900000Y-86360000D02*
X215503998Y-86360000D01*
D24*
X215503998Y-86360000D02*
X212199999Y-83056001D01*
X212199999Y-79503999D02*
X215503998Y-76200000D01*
X212199999Y-83056001D02*
X212199999Y-79503999D01*
D25*
X215503998Y-76200000D02*
X215900000Y-76200000D01*
X215900000Y-96520000D02*
X215503998Y-96520000D01*
D24*
X215503998Y-96520000D02*
X212199999Y-93216001D01*
X212199999Y-89663999D02*
X215503998Y-86360000D01*
X212199999Y-93216001D02*
X212199999Y-89663999D01*
D25*
X215900000Y-106680000D02*
X215503998Y-106680000D01*
D24*
X215503998Y-106680000D02*
X212199999Y-103376001D01*
X212199999Y-99823999D02*
X215503998Y-96520000D01*
X212199999Y-103376001D02*
X212199999Y-99823999D01*
D25*
X215900000Y-116840000D02*
X215503998Y-116840000D01*
D24*
X215503998Y-116840000D02*
X212199999Y-113536001D01*
X212199999Y-109983999D02*
X215503998Y-106680000D01*
X212199999Y-113536001D02*
X212199999Y-109983999D01*
D23*
X186706000Y-94582000D02*
X175801000Y-94582000D01*
X175801000Y-94582000D02*
X173355000Y-97028000D01*
X188150500Y-94026500D02*
X188706000Y-94582000D01*
X173355000Y-94488000D02*
X174204999Y-93638001D01*
X174204999Y-93638001D02*
X187762001Y-93638001D01*
X187762001Y-93638001D02*
X188150500Y-94026500D01*
X173355000Y-89408000D02*
X175069500Y-91122500D01*
X175069500Y-91122500D02*
X175069500Y-92202000D01*
X175069500Y-92202000D02*
X175450500Y-92583000D01*
X175450500Y-92583000D02*
X188341000Y-92583000D01*
X188341000Y-92583000D02*
X190340000Y-94582000D01*
X190340000Y-94582000D02*
X192706000Y-94582000D01*
X193593500Y-95694500D02*
X194706000Y-94582000D01*
X175196500Y-96710500D02*
X176212500Y-95694500D01*
X176212500Y-95694500D02*
X193593500Y-95694500D01*
X175196500Y-97726500D02*
X175196500Y-96710500D01*
X173355000Y-99568000D02*
X175196500Y-97726500D01*
X195326000Y-112710000D02*
X196476000Y-112710000D01*
X196476000Y-112710000D02*
X196617001Y-112568999D01*
X196617001Y-112568999D02*
X202357999Y-112568999D01*
X202357999Y-112568999D02*
X203708000Y-113919000D01*
X203200000Y-95126000D02*
X203200000Y-93726000D01*
X195517989Y-102808011D02*
X203200000Y-95126000D01*
X192065989Y-102808011D02*
X195517989Y-102808011D01*
X190754000Y-103820000D02*
X191054000Y-103820000D01*
X191054000Y-103820000D02*
X192065989Y-102808011D01*
X182880000Y-106553000D02*
X203524002Y-106553000D01*
X203524002Y-106553000D02*
X205359000Y-104718002D01*
X205359000Y-104718002D02*
X205359000Y-77219000D01*
X205359000Y-77219000D02*
X203200000Y-75060000D01*
X203200000Y-75060000D02*
X203200000Y-73660000D01*
X203327000Y-104140000D02*
X203327000Y-105540000D01*
X203327000Y-105540000D02*
X203137000Y-105730000D01*
X203137000Y-105730000D02*
X195326000Y-105730000D01*
X163195000Y-109855000D02*
X163195000Y-119062500D01*
X162242500Y-109855000D02*
X162242500Y-120015000D01*
X161290000Y-109855000D02*
X161290000Y-130302000D01*
X171132500Y-118681500D02*
X171132500Y-124904500D01*
X171132500Y-124904500D02*
X171450000Y-125222000D01*
X171450000Y-125222000D02*
X176530000Y-130302000D01*
X176276000Y-130048000D02*
X176530000Y-130302000D01*
X176466500Y-114351510D02*
X181493925Y-114351510D01*
X174688500Y-116141500D02*
X174688500Y-116129510D01*
X174688500Y-116129510D02*
X176466500Y-114351510D01*
X171958000Y-114617500D02*
X171958000Y-116014500D01*
X171958000Y-116014500D02*
X172085000Y-116141500D01*
X158115000Y-107188000D02*
X159702500Y-105600500D01*
X159702500Y-105600500D02*
X168084500Y-105600500D01*
X168084500Y-105600500D02*
X169418000Y-106934000D01*
X169418000Y-106934000D02*
X169418000Y-110680500D01*
X169418000Y-110680500D02*
X171005500Y-112268000D01*
X171005500Y-113665000D02*
X171958000Y-114617500D01*
X171005500Y-112268000D02*
X171005500Y-113665000D01*
D26*
X172085000Y-116141500D02*
X174688500Y-116141500D01*
D23*
X158115000Y-104648000D02*
X168338500Y-104648000D01*
X170307000Y-106616500D02*
X170307000Y-110426500D01*
X168338500Y-104648000D02*
X170307000Y-106616500D01*
X170307000Y-110426500D02*
X171831000Y-111950500D01*
X171831000Y-111950500D02*
X171831000Y-113284000D01*
X171831000Y-113284000D02*
X172148500Y-113601500D01*
D26*
X172148500Y-113601500D02*
X174625000Y-113601500D01*
D23*
X174625000Y-113601500D02*
X182054500Y-113601500D01*
X182054500Y-113601500D02*
X182753000Y-114300000D01*
X175514000Y-110172500D02*
X189591000Y-110172500D01*
X189591000Y-110172500D02*
X189865000Y-110446500D01*
X189865000Y-110446500D02*
X189865000Y-111696500D01*
X174688500Y-110998000D02*
X175514000Y-110172500D01*
X189865000Y-111696500D02*
X189865000Y-118303000D01*
X189865000Y-118303000D02*
X189738000Y-118430000D01*
X158115000Y-102108000D02*
X159893000Y-103886000D01*
X159893000Y-103886000D02*
X168846500Y-103886000D01*
X168846500Y-103886000D02*
X171132500Y-106172000D01*
X171132500Y-106172000D02*
X171132500Y-110045500D01*
X171132500Y-110045500D02*
X172085000Y-110998000D01*
D26*
X172085000Y-110998000D02*
X174688500Y-110998000D01*
D23*
X189738000Y-118430000D02*
X189230000Y-118938000D01*
X193738500Y-109222500D02*
X195326000Y-110810000D01*
X193738500Y-109222500D02*
X175453000Y-109222500D01*
X175453000Y-109222500D02*
X174688500Y-108458000D01*
D26*
X171894500Y-108458000D02*
X174688500Y-108458000D01*
D23*
X173355000Y-104648000D02*
X174557081Y-104648000D01*
X174557081Y-104648000D02*
X174878092Y-104326989D01*
X174878092Y-104326989D02*
X180597511Y-104326989D01*
X180597511Y-104326989D02*
X183754502Y-101169998D01*
X183754502Y-101169998D02*
X186542002Y-101169998D01*
X187292004Y-101920000D02*
X189604000Y-101920000D01*
X189604000Y-101920000D02*
X190754000Y-101920000D01*
X186542002Y-101169998D02*
X187292004Y-101920000D01*
X174625000Y-103378000D02*
X180152000Y-103378000D01*
X180152000Y-103378000D02*
X180596500Y-102933500D01*
X180596500Y-102933500D02*
X181610000Y-101920000D01*
X158115000Y-81788000D02*
X159829500Y-83502500D01*
X160718500Y-85471000D02*
X160718500Y-101917500D01*
X159829500Y-83502500D02*
X159829500Y-84582000D01*
X159829500Y-84582000D02*
X160718500Y-85471000D01*
X160909000Y-102108000D02*
X169672000Y-102108000D01*
X160718500Y-101917500D02*
X160909000Y-102108000D01*
X169672000Y-102108000D02*
X170942000Y-103378000D01*
X170942000Y-103378000D02*
X172085000Y-103378000D01*
D26*
X172085000Y-103378000D02*
X174625000Y-103378000D01*
D23*
X173355000Y-102108000D02*
X173990000Y-102108000D01*
X174307500Y-102425500D02*
X179717987Y-102425500D01*
X173990000Y-102108000D02*
X174307500Y-102425500D01*
X179717987Y-102425500D02*
X181114987Y-101028500D01*
X181114987Y-101028500D02*
X182384987Y-101028500D01*
X182384987Y-101028500D02*
X182943500Y-100469987D01*
X182943500Y-100469987D02*
X186831956Y-100469987D01*
X186831956Y-100469987D02*
X187431969Y-101070000D01*
X187431969Y-101070000D02*
X191303500Y-101070000D01*
X191303500Y-101070000D02*
X192153500Y-101920000D01*
X192153500Y-101920000D02*
X195326000Y-101920000D01*
X174657001Y-105949499D02*
X174847501Y-105949499D01*
X174847501Y-105949499D02*
X175579501Y-105217499D01*
X175579501Y-105217499D02*
X181040501Y-105217499D01*
X181040501Y-105217499D02*
X184338000Y-101920000D01*
X184338000Y-101920000D02*
X186182000Y-101920000D01*
X169799000Y-103663499D02*
X172085000Y-105949499D01*
X160401000Y-102997000D02*
X169132501Y-102997000D01*
X169132501Y-102997000D02*
X169799000Y-103663499D01*
X159766000Y-102362000D02*
X160401000Y-102997000D01*
X159766000Y-85979000D02*
X159766000Y-102362000D01*
X158115000Y-84328000D02*
X159766000Y-85979000D01*
D26*
X172085000Y-105949499D02*
X174657001Y-105949499D01*
D23*
X203200000Y-83820000D02*
X204550001Y-85170001D01*
X204550001Y-85170001D02*
X204550001Y-94915999D01*
X204550001Y-94915999D02*
X195834000Y-103632000D01*
X195834000Y-103632000D02*
X192341500Y-103632000D01*
X192341500Y-103632000D02*
X191198500Y-104775000D01*
X191198500Y-104775000D02*
X190309500Y-104775000D01*
X190309500Y-104775000D02*
X189354500Y-103820000D01*
X189354500Y-103820000D02*
X186182000Y-103820000D01*
D27*
G36*
X184389653Y-69085328D02*
X184476085Y-69293991D01*
X184495668Y-69341269D01*
X184991210Y-70082901D01*
X185127796Y-70219486D01*
X185187099Y-70278789D01*
X185928731Y-70774332D01*
X185961521Y-70787914D01*
X186184672Y-70880347D01*
X187059487Y-71054358D01*
X187336514Y-71054358D01*
X188211328Y-70880347D01*
X188467269Y-70774332D01*
X189208901Y-70278790D01*
X189404789Y-70082901D01*
X189900332Y-69341269D01*
X190001055Y-69098103D01*
X190006347Y-69085328D01*
X190066683Y-68782000D01*
X219508000Y-68782000D01*
X219508000Y-131878000D01*
X190066683Y-131878000D01*
X190006347Y-131574672D01*
X189928741Y-131387317D01*
X189900332Y-131318731D01*
X189404789Y-130577099D01*
X189353899Y-130526209D01*
X189208901Y-130381210D01*
X188467269Y-129885668D01*
X188322616Y-129825750D01*
X213765000Y-129825750D01*
X213765000Y-131166309D01*
X213861673Y-131399698D01*
X214040301Y-131578327D01*
X214273690Y-131675000D01*
X215614250Y-131675000D01*
X215773000Y-131516250D01*
X215773000Y-129667000D01*
X216027000Y-129667000D01*
X216027000Y-131516250D01*
X216185750Y-131675000D01*
X217526310Y-131675000D01*
X217759699Y-131578327D01*
X217938327Y-131399698D01*
X218035000Y-131166309D01*
X218035000Y-129825750D01*
X217876250Y-129667000D01*
X216027000Y-129667000D01*
X215773000Y-129667000D01*
X213923750Y-129667000D01*
X213765000Y-129825750D01*
X188322616Y-129825750D01*
X188211328Y-129779653D01*
X187336514Y-129605642D01*
X187198001Y-129605642D01*
X186184672Y-129779653D01*
X186034746Y-129841755D01*
X185928731Y-129885668D01*
X185187099Y-130381211D01*
X184991210Y-130577099D01*
X184495669Y-131318730D01*
X184495668Y-131318731D01*
X184389653Y-131574672D01*
X184329317Y-131878000D01*
X179864084Y-131878000D01*
X179887633Y-131842756D01*
X179922412Y-131667911D01*
X179955001Y-131504081D01*
X179955000Y-131504076D01*
X179955000Y-131491432D01*
X180120054Y-131381147D01*
X180347702Y-131040447D01*
X180414817Y-131183358D01*
X180843076Y-131573645D01*
X181253110Y-131743476D01*
X181483000Y-131622155D01*
X181483000Y-130429000D01*
X181737000Y-130429000D01*
X181737000Y-131622155D01*
X181966890Y-131743476D01*
X182376924Y-131573645D01*
X182805183Y-131183358D01*
X183051486Y-130658892D01*
X182930819Y-130429000D01*
X181737000Y-130429000D01*
X181483000Y-130429000D01*
X181463000Y-130429000D01*
X181463000Y-130175000D01*
X181483000Y-130175000D01*
X181483000Y-130155000D01*
X181737000Y-130155000D01*
X181737000Y-130175000D01*
X182930819Y-130175000D01*
X183051486Y-129945108D01*
X182805183Y-129420642D01*
X182376924Y-129030355D01*
X181966890Y-128860524D01*
X181737002Y-128981844D01*
X181737002Y-128886577D01*
X182235787Y-128387792D01*
X182235790Y-128387790D01*
X182427633Y-128100675D01*
X182464826Y-127913691D01*
X213765000Y-127913691D01*
X213765000Y-129254250D01*
X213923750Y-129413000D01*
X215773000Y-129413000D01*
X215773000Y-127563750D01*
X216027000Y-127563750D01*
X216027000Y-129413000D01*
X217876250Y-129413000D01*
X218035000Y-129254250D01*
X218035000Y-127913691D01*
X217938327Y-127680302D01*
X217759699Y-127501673D01*
X217526310Y-127405000D01*
X216185750Y-127405000D01*
X216027000Y-127563750D01*
X215773000Y-127563750D01*
X215614250Y-127405000D01*
X214273690Y-127405000D01*
X214040301Y-127501673D01*
X213861673Y-127680302D01*
X213765000Y-127913691D01*
X182464826Y-127913691D01*
X182495000Y-127762000D01*
X182495000Y-127357275D01*
X186442331Y-127357275D01*
X186504169Y-127593042D01*
X187005122Y-127769419D01*
X187535440Y-127740664D01*
X187891831Y-127593042D01*
X187953669Y-127357275D01*
X187198000Y-126601605D01*
X186442331Y-127357275D01*
X182495000Y-127357275D01*
X182495000Y-126229122D01*
X185850581Y-126229122D01*
X185879336Y-126759440D01*
X186026958Y-127115831D01*
X186262725Y-127177669D01*
X187018395Y-126422000D01*
X187377605Y-126422000D01*
X188133275Y-127177669D01*
X188369042Y-127115831D01*
X188545419Y-126614878D01*
X188516664Y-126084560D01*
X188369042Y-125728169D01*
X188133275Y-125666331D01*
X187377605Y-126422000D01*
X187018395Y-126422000D01*
X186262725Y-125666331D01*
X186026958Y-125728169D01*
X185850581Y-126229122D01*
X182495000Y-126229122D01*
X182495000Y-121144822D01*
X182544838Y-121024799D01*
X182545162Y-120652833D01*
X182403117Y-120309057D01*
X182140327Y-120045808D01*
X181796799Y-119903162D01*
X181424833Y-119902838D01*
X181081057Y-120044883D01*
X180817808Y-120307673D01*
X180675162Y-120651201D01*
X180674838Y-121023167D01*
X180725000Y-121144569D01*
X180725000Y-127395421D01*
X179288960Y-128831461D01*
X179070000Y-128787907D01*
X178501715Y-128900946D01*
X178019946Y-129222853D01*
X177800000Y-129552026D01*
X177580054Y-129222853D01*
X177098285Y-128900946D01*
X176530000Y-128787907D01*
X176311040Y-128831461D01*
X172075790Y-124596210D01*
X172075787Y-124596208D01*
X172017500Y-124537921D01*
X172017500Y-121153061D01*
X172040910Y-121189441D01*
X172253110Y-121334431D01*
X172505000Y-121385440D01*
X174205000Y-121385440D01*
X174440317Y-121341162D01*
X174656441Y-121202090D01*
X174801431Y-120989890D01*
X174852440Y-120738000D01*
X174852440Y-119038000D01*
X174808162Y-118802683D01*
X174669090Y-118586559D01*
X174456890Y-118441569D01*
X174377557Y-118425504D01*
X174613188Y-118190283D01*
X174839742Y-117644681D01*
X174840257Y-117053911D01*
X174818266Y-117000688D01*
X175027175Y-116959133D01*
X175314290Y-116767290D01*
X175338434Y-116731156D01*
X176833079Y-115236510D01*
X181187103Y-115236510D01*
X181307126Y-115286348D01*
X181679092Y-115286672D01*
X182022868Y-115144627D01*
X182149162Y-115018553D01*
X182222673Y-115092192D01*
X182566201Y-115234838D01*
X182938167Y-115235162D01*
X183281943Y-115093117D01*
X183545192Y-114830327D01*
X183687838Y-114486799D01*
X183688162Y-114114833D01*
X183546117Y-113771057D01*
X183283327Y-113507808D01*
X183162013Y-113457434D01*
X182680290Y-112975710D01*
X182578466Y-112907674D01*
X182393175Y-112783867D01*
X182336984Y-112772690D01*
X182054500Y-112716499D01*
X182054495Y-112716500D01*
X174776701Y-112716500D01*
X174839742Y-112564681D01*
X174840257Y-111973911D01*
X174794021Y-111862011D01*
X175027174Y-111815633D01*
X175314290Y-111623790D01*
X175880579Y-111057500D01*
X187572034Y-111057500D01*
X187510000Y-111369366D01*
X187510000Y-112023634D01*
X187592591Y-112438846D01*
X187710000Y-112614561D01*
X187710000Y-116600421D01*
X186572210Y-117738210D01*
X186380367Y-118025325D01*
X186380367Y-118025326D01*
X186312999Y-118364000D01*
X186313000Y-118364005D01*
X186313000Y-122709370D01*
X186262683Y-122718838D01*
X186046559Y-122857910D01*
X185901569Y-123070110D01*
X185850560Y-123322000D01*
X185850560Y-124722000D01*
X185894838Y-124957317D01*
X186033910Y-125173441D01*
X186246110Y-125318431D01*
X186474349Y-125364651D01*
X186442331Y-125486725D01*
X187198000Y-126242395D01*
X187953669Y-125486725D01*
X187921736Y-125364974D01*
X188133317Y-125325162D01*
X188349441Y-125186090D01*
X188494431Y-124973890D01*
X188545440Y-124722000D01*
X188545440Y-123322000D01*
X188501162Y-123086683D01*
X188362090Y-122870559D01*
X188149890Y-122725569D01*
X188083000Y-122712023D01*
X188083000Y-118730580D01*
X188980000Y-117833579D01*
X188980000Y-117936421D01*
X188821165Y-118095256D01*
X188701057Y-118144883D01*
X188437808Y-118407673D01*
X188295162Y-118751201D01*
X188294838Y-119123167D01*
X188436883Y-119466943D01*
X188699673Y-119730192D01*
X189043201Y-119872838D01*
X189415167Y-119873162D01*
X189758943Y-119731117D01*
X190022192Y-119468327D01*
X190072566Y-119347014D01*
X190363787Y-119055792D01*
X190363790Y-119055790D01*
X190490787Y-118928792D01*
X190490790Y-118928790D01*
X190682633Y-118641675D01*
X190693596Y-118586559D01*
X190750001Y-118303000D01*
X190750000Y-118302995D01*
X190750000Y-114283740D01*
X197136964Y-114283740D01*
X197315760Y-114715417D01*
X197720424Y-115156966D01*
X198263258Y-115410046D01*
X198501000Y-115289997D01*
X198501000Y-114046000D01*
X197257622Y-114046000D01*
X197136964Y-114283740D01*
X190750000Y-114283740D01*
X190750000Y-113081500D01*
X190849250Y-113081500D01*
X191008000Y-112922750D01*
X191008000Y-111823500D01*
X191262000Y-111823500D01*
X191262000Y-112922750D01*
X191420750Y-113081500D01*
X191711309Y-113081500D01*
X191944698Y-112984827D01*
X192034358Y-112895167D01*
X194390838Y-112895167D01*
X194532883Y-113238943D01*
X194795673Y-113502192D01*
X195139201Y-113644838D01*
X195511167Y-113645162D01*
X195632569Y-113595000D01*
X196475995Y-113595000D01*
X196476000Y-113595001D01*
X196783284Y-113533877D01*
X196814675Y-113527633D01*
X196924877Y-113453999D01*
X197178491Y-113453999D01*
X197136964Y-113554260D01*
X197257622Y-113792000D01*
X198501000Y-113792000D01*
X198501000Y-113772000D01*
X198755000Y-113772000D01*
X198755000Y-113792000D01*
X198775000Y-113792000D01*
X198775000Y-114046000D01*
X198755000Y-114046000D01*
X198755000Y-115289997D01*
X198992742Y-115410046D01*
X199535576Y-115156966D01*
X199893499Y-114766418D01*
X200052519Y-115004409D01*
X200550509Y-115337155D01*
X201137928Y-115454000D01*
X201198072Y-115454000D01*
X201785491Y-115337155D01*
X202206026Y-115056163D01*
X202343910Y-115270441D01*
X202556110Y-115415431D01*
X202808000Y-115466440D01*
X204608000Y-115466440D01*
X204843317Y-115422162D01*
X205059441Y-115283090D01*
X205204431Y-115070890D01*
X205255440Y-114819000D01*
X205255440Y-113019000D01*
X205211162Y-112783683D01*
X205072090Y-112567559D01*
X204859890Y-112422569D01*
X204608000Y-112371560D01*
X203412140Y-112371560D01*
X202983789Y-111943209D01*
X202696674Y-111751366D01*
X202640483Y-111740189D01*
X202357999Y-111683998D01*
X202357994Y-111683999D01*
X196617006Y-111683999D01*
X196617001Y-111683998D01*
X196278327Y-111751365D01*
X196183055Y-111815024D01*
X196168124Y-111825000D01*
X195632822Y-111825000D01*
X195512799Y-111775162D01*
X195140833Y-111774838D01*
X194797057Y-111916883D01*
X194533808Y-112179673D01*
X194391162Y-112523201D01*
X194390838Y-112895167D01*
X192034358Y-112895167D01*
X192123327Y-112806199D01*
X192220000Y-112572810D01*
X192220000Y-111982250D01*
X192061250Y-111823500D01*
X191262000Y-111823500D01*
X191008000Y-111823500D01*
X190988000Y-111823500D01*
X190988000Y-111569500D01*
X191008000Y-111569500D01*
X191008000Y-110470250D01*
X191262000Y-110470250D01*
X191262000Y-111569500D01*
X192061250Y-111569500D01*
X192220000Y-111410750D01*
X192220000Y-110820190D01*
X192123327Y-110586801D01*
X191944698Y-110408173D01*
X191711309Y-110311500D01*
X191420750Y-110311500D01*
X191262000Y-110470250D01*
X191008000Y-110470250D01*
X190849250Y-110311500D01*
X190723148Y-110311500D01*
X190682634Y-110107826D01*
X190682416Y-110107500D01*
X193371920Y-110107500D01*
X194483255Y-111218834D01*
X194532883Y-111338943D01*
X194795673Y-111602192D01*
X195139201Y-111744838D01*
X195511167Y-111745162D01*
X195854943Y-111603117D01*
X196118192Y-111340327D01*
X196260838Y-110996799D01*
X196261162Y-110624833D01*
X196119117Y-110281057D01*
X195856327Y-110017808D01*
X195735013Y-109967434D01*
X194364290Y-108596710D01*
X194181128Y-108474326D01*
X194077175Y-108404867D01*
X194020984Y-108393690D01*
X193738500Y-108337499D01*
X193738495Y-108337500D01*
X175819579Y-108337500D01*
X175314290Y-107832210D01*
X175027174Y-107640367D01*
X174794328Y-107594050D01*
X174839742Y-107484681D01*
X174840257Y-106893911D01*
X174815709Y-106834499D01*
X174847496Y-106834499D01*
X174847501Y-106834500D01*
X175129985Y-106778309D01*
X175186176Y-106767132D01*
X175473291Y-106575289D01*
X175473292Y-106575288D01*
X175946080Y-106102499D01*
X181040496Y-106102499D01*
X181040501Y-106102500D01*
X181322985Y-106046309D01*
X181379176Y-106035132D01*
X181666291Y-105843289D01*
X184704579Y-102805000D01*
X185875178Y-102805000D01*
X185995201Y-102854838D01*
X186367167Y-102855162D01*
X186710943Y-102713117D01*
X186793419Y-102630785D01*
X186953329Y-102737633D01*
X187000415Y-102746999D01*
X187292004Y-102805001D01*
X187292009Y-102805000D01*
X190447178Y-102805000D01*
X190567201Y-102854838D01*
X190767408Y-102855012D01*
X190737435Y-102884985D01*
X190568833Y-102884838D01*
X190225057Y-103026883D01*
X190018830Y-103232750D01*
X189980290Y-103194210D01*
X189909163Y-103146685D01*
X189693175Y-103002367D01*
X189619892Y-102987790D01*
X189354500Y-102934999D01*
X189354495Y-102935000D01*
X186488822Y-102935000D01*
X186368799Y-102885162D01*
X185996833Y-102884838D01*
X185653057Y-103026883D01*
X185389808Y-103289673D01*
X185247162Y-103633201D01*
X185246838Y-104005167D01*
X185388883Y-104348943D01*
X185651673Y-104612192D01*
X185995201Y-104754838D01*
X186367167Y-104755162D01*
X186488569Y-104705000D01*
X188987920Y-104705000D01*
X189683708Y-105400787D01*
X189683710Y-105400790D01*
X189970825Y-105592633D01*
X190010375Y-105600500D01*
X190309500Y-105660001D01*
X190309505Y-105660000D01*
X191198495Y-105660000D01*
X191198500Y-105660001D01*
X191497625Y-105600500D01*
X191537175Y-105592633D01*
X191824290Y-105400790D01*
X192708079Y-104517000D01*
X195833995Y-104517000D01*
X195834000Y-104517001D01*
X196116484Y-104460810D01*
X196172675Y-104449633D01*
X196459790Y-104257790D01*
X196818702Y-103898878D01*
X196876622Y-104013000D01*
X198120000Y-104013000D01*
X198120000Y-102769003D01*
X198006094Y-102711486D01*
X204474000Y-96243579D01*
X204474000Y-102642579D01*
X204227000Y-102592560D01*
X202427000Y-102592560D01*
X202191683Y-102636838D01*
X201975559Y-102775910D01*
X201830569Y-102988110D01*
X201827281Y-103004344D01*
X201404491Y-102721845D01*
X200817072Y-102605000D01*
X200756928Y-102605000D01*
X200169509Y-102721845D01*
X199671519Y-103054591D01*
X199512499Y-103292582D01*
X199154576Y-102902034D01*
X198611742Y-102648954D01*
X198374000Y-102769003D01*
X198374000Y-104013000D01*
X198394000Y-104013000D01*
X198394000Y-104267000D01*
X198374000Y-104267000D01*
X198374000Y-104287000D01*
X198120000Y-104287000D01*
X198120000Y-104267000D01*
X196876622Y-104267000D01*
X196755964Y-104504740D01*
X196896896Y-104845000D01*
X195632822Y-104845000D01*
X195512799Y-104795162D01*
X195140833Y-104794838D01*
X194797057Y-104936883D01*
X194533808Y-105199673D01*
X194391162Y-105543201D01*
X194391053Y-105668000D01*
X183186822Y-105668000D01*
X183066799Y-105618162D01*
X182694833Y-105617838D01*
X182351057Y-105759883D01*
X182087808Y-106022673D01*
X181945162Y-106366201D01*
X181944838Y-106738167D01*
X182086883Y-107081943D01*
X182349673Y-107345192D01*
X182693201Y-107487838D01*
X183065167Y-107488162D01*
X183186569Y-107438000D01*
X203523997Y-107438000D01*
X203524002Y-107438001D01*
X203806486Y-107381810D01*
X203862677Y-107370633D01*
X204149792Y-107178790D01*
X205984787Y-105343794D01*
X205984790Y-105343792D01*
X206176633Y-105056677D01*
X206200462Y-104936883D01*
X206244001Y-104718002D01*
X206244000Y-104717997D01*
X206244000Y-79503999D01*
X210064999Y-79503999D01*
X210064999Y-83056001D01*
X210227516Y-83873030D01*
X210690326Y-84565674D01*
X212484652Y-86360000D01*
X210690326Y-88154326D01*
X210227516Y-88846970D01*
X210064999Y-89663999D01*
X210064999Y-93216001D01*
X210227516Y-94033030D01*
X210690326Y-94725674D01*
X212484652Y-96520000D01*
X210690326Y-98314326D01*
X210227516Y-99006970D01*
X210064999Y-99823999D01*
X210064999Y-103376001D01*
X210227516Y-104193030D01*
X210690326Y-104885674D01*
X212484652Y-106680000D01*
X210690326Y-108474326D01*
X210227516Y-109166970D01*
X210064999Y-109983999D01*
X210064999Y-113536001D01*
X210227516Y-114353030D01*
X210690326Y-115045674D01*
X212964432Y-117319780D01*
X213069575Y-117848371D01*
X213640772Y-118703226D01*
X213765000Y-118786233D01*
X213765000Y-124459282D01*
X213764630Y-124882815D01*
X214088980Y-125667800D01*
X214689041Y-126268909D01*
X215473459Y-126594628D01*
X216322815Y-126595370D01*
X217107800Y-126271020D01*
X217708909Y-125670959D01*
X218034628Y-124886541D01*
X218035370Y-124037185D01*
X218035000Y-124036290D01*
X218035000Y-118401431D01*
X218047440Y-118340000D01*
X218047440Y-118277871D01*
X218334423Y-117848371D01*
X218535000Y-116840000D01*
X218334423Y-115831629D01*
X218047440Y-115402129D01*
X218047440Y-115340000D01*
X218003162Y-115104683D01*
X217864090Y-114888559D01*
X217651890Y-114743569D01*
X217400000Y-114692560D01*
X217337871Y-114692560D01*
X216908371Y-114405577D01*
X215900000Y-114205000D01*
X215888344Y-114205000D01*
X215578063Y-113894719D01*
X216322815Y-113895370D01*
X217107800Y-113571020D01*
X217708909Y-112970959D01*
X218034628Y-112186541D01*
X218035370Y-111337185D01*
X217711020Y-110552200D01*
X217110959Y-109951091D01*
X216326541Y-109625372D01*
X215578625Y-109624719D01*
X215888344Y-109315000D01*
X215900000Y-109315000D01*
X216908371Y-109114423D01*
X217337871Y-108827440D01*
X217400000Y-108827440D01*
X217635317Y-108783162D01*
X217851441Y-108644090D01*
X217996431Y-108431890D01*
X218047440Y-108180000D01*
X218047440Y-108117871D01*
X218334423Y-107688371D01*
X218535000Y-106680000D01*
X218334423Y-105671629D01*
X218047440Y-105242129D01*
X218047440Y-105180000D01*
X218003162Y-104944683D01*
X217864090Y-104728559D01*
X217651890Y-104583569D01*
X217400000Y-104532560D01*
X217337871Y-104532560D01*
X216908371Y-104245577D01*
X215900000Y-104045000D01*
X215888344Y-104045000D01*
X215578063Y-103734719D01*
X216322815Y-103735370D01*
X217107800Y-103411020D01*
X217708909Y-102810959D01*
X218034628Y-102026541D01*
X218035370Y-101177185D01*
X217711020Y-100392200D01*
X217110959Y-99791091D01*
X216326541Y-99465372D01*
X215578625Y-99464719D01*
X215888344Y-99155000D01*
X215900000Y-99155000D01*
X216908371Y-98954423D01*
X217337871Y-98667440D01*
X217400000Y-98667440D01*
X217635317Y-98623162D01*
X217851441Y-98484090D01*
X217996431Y-98271890D01*
X218047440Y-98020000D01*
X218047440Y-97957871D01*
X218334423Y-97528371D01*
X218535000Y-96520000D01*
X218334423Y-95511629D01*
X218047440Y-95082129D01*
X218047440Y-95020000D01*
X218003162Y-94784683D01*
X217864090Y-94568559D01*
X217651890Y-94423569D01*
X217400000Y-94372560D01*
X217337871Y-94372560D01*
X216908371Y-94085577D01*
X215900000Y-93885000D01*
X215888344Y-93885000D01*
X215578063Y-93574719D01*
X216322815Y-93575370D01*
X217107800Y-93251020D01*
X217708909Y-92650959D01*
X218034628Y-91866541D01*
X218035370Y-91017185D01*
X217711020Y-90232200D01*
X217110959Y-89631091D01*
X216326541Y-89305372D01*
X215578625Y-89304719D01*
X215888344Y-88995000D01*
X215900000Y-88995000D01*
X216908371Y-88794423D01*
X217337871Y-88507440D01*
X217400000Y-88507440D01*
X217635317Y-88463162D01*
X217851441Y-88324090D01*
X217996431Y-88111890D01*
X218047440Y-87860000D01*
X218047440Y-87797871D01*
X218334423Y-87368371D01*
X218535000Y-86360000D01*
X218334423Y-85351629D01*
X218047440Y-84922129D01*
X218047440Y-84860000D01*
X218003162Y-84624683D01*
X217864090Y-84408559D01*
X217651890Y-84263569D01*
X217400000Y-84212560D01*
X217337871Y-84212560D01*
X216908371Y-83925577D01*
X215900000Y-83725000D01*
X215888344Y-83725000D01*
X215578063Y-83414719D01*
X216322815Y-83415370D01*
X217107800Y-83091020D01*
X217708909Y-82490959D01*
X218034628Y-81706541D01*
X218035370Y-80857185D01*
X217711020Y-80072200D01*
X217110959Y-79471091D01*
X216326541Y-79145372D01*
X215578625Y-79144719D01*
X215888344Y-78835000D01*
X215900000Y-78835000D01*
X216908371Y-78634423D01*
X217337871Y-78347440D01*
X217400000Y-78347440D01*
X217635317Y-78303162D01*
X217851441Y-78164090D01*
X217996431Y-77951890D01*
X218047440Y-77700000D01*
X218047440Y-77637871D01*
X218334423Y-77208371D01*
X218535000Y-76200000D01*
X218334423Y-75191629D01*
X218047440Y-74762129D01*
X218047440Y-74700000D01*
X218003162Y-74464683D01*
X217864090Y-74248559D01*
X217651890Y-74103569D01*
X217400000Y-74052560D01*
X217337871Y-74052560D01*
X216908371Y-73765577D01*
X215900000Y-73565000D01*
X215503998Y-73565000D01*
X214495627Y-73765577D01*
X213640772Y-74336774D01*
X213069575Y-75191629D01*
X212964432Y-75720220D01*
X210690326Y-77994326D01*
X210227516Y-78686970D01*
X210064999Y-79503999D01*
X206244000Y-79503999D01*
X206244000Y-77219005D01*
X206244001Y-77219000D01*
X206176633Y-76880325D01*
X205984790Y-76593210D01*
X205984787Y-76593208D01*
X204468829Y-75077249D01*
X204551441Y-75024090D01*
X204696431Y-74811890D01*
X204747440Y-74560000D01*
X204747440Y-72760000D01*
X204703162Y-72524683D01*
X204564090Y-72308559D01*
X204351890Y-72163569D01*
X204100000Y-72112560D01*
X202300000Y-72112560D01*
X202064683Y-72156838D01*
X201848559Y-72295910D01*
X201703569Y-72508110D01*
X201700281Y-72524344D01*
X201277491Y-72241845D01*
X200690072Y-72125000D01*
X200629928Y-72125000D01*
X200042509Y-72241845D01*
X199544519Y-72574591D01*
X199385499Y-72812582D01*
X199027576Y-72422034D01*
X198484742Y-72168954D01*
X198247000Y-72289003D01*
X198247000Y-73533000D01*
X198267000Y-73533000D01*
X198267000Y-73787000D01*
X198247000Y-73787000D01*
X198247000Y-75030997D01*
X198484742Y-75151046D01*
X199027576Y-74897966D01*
X199385499Y-74507418D01*
X199544519Y-74745409D01*
X200042509Y-75078155D01*
X200629928Y-75195000D01*
X200690072Y-75195000D01*
X201277491Y-75078155D01*
X201698026Y-74797163D01*
X201835910Y-75011441D01*
X202048110Y-75156431D01*
X202300000Y-75207440D01*
X202344327Y-75207440D01*
X202347474Y-75223258D01*
X202382367Y-75398675D01*
X202552128Y-75652742D01*
X202574210Y-75685790D01*
X204474000Y-77585579D01*
X204474000Y-82407003D01*
X204351890Y-82323569D01*
X204100000Y-82272560D01*
X202300000Y-82272560D01*
X202064683Y-82316838D01*
X201848559Y-82455910D01*
X201703569Y-82668110D01*
X201700281Y-82684344D01*
X201277491Y-82401845D01*
X200690072Y-82285000D01*
X200629928Y-82285000D01*
X200042509Y-82401845D01*
X199544519Y-82734591D01*
X199385499Y-82972582D01*
X199027576Y-82582034D01*
X198484742Y-82328954D01*
X198247000Y-82449003D01*
X198247000Y-83693000D01*
X198267000Y-83693000D01*
X198267000Y-83947000D01*
X198247000Y-83947000D01*
X198247000Y-85190997D01*
X198484742Y-85311046D01*
X199027576Y-85057966D01*
X199385499Y-84667418D01*
X199544519Y-84905409D01*
X200042509Y-85238155D01*
X200629928Y-85355000D01*
X200690072Y-85355000D01*
X201277491Y-85238155D01*
X201698026Y-84957163D01*
X201835910Y-85171441D01*
X202048110Y-85316431D01*
X202300000Y-85367440D01*
X203495861Y-85367440D01*
X203665001Y-85536580D01*
X203665001Y-92178560D01*
X202300000Y-92178560D01*
X202064683Y-92222838D01*
X201848559Y-92361910D01*
X201703569Y-92574110D01*
X201700281Y-92590344D01*
X201277491Y-92307845D01*
X200690072Y-92191000D01*
X200629928Y-92191000D01*
X200042509Y-92307845D01*
X199544519Y-92640591D01*
X199385499Y-92878582D01*
X199027576Y-92488034D01*
X198484742Y-92234954D01*
X198247000Y-92355003D01*
X198247000Y-93599000D01*
X198267000Y-93599000D01*
X198267000Y-93853000D01*
X198247000Y-93853000D01*
X198247000Y-95096997D01*
X198484742Y-95217046D01*
X199027576Y-94963966D01*
X199385499Y-94573418D01*
X199544519Y-94811409D01*
X200042509Y-95144155D01*
X200629928Y-95261000D01*
X200690072Y-95261000D01*
X201277491Y-95144155D01*
X201698026Y-94863163D01*
X201835910Y-95077441D01*
X201931599Y-95142822D01*
X195901430Y-101172990D01*
X195856327Y-101127808D01*
X195512799Y-100985162D01*
X195140833Y-100984838D01*
X195019431Y-101035000D01*
X192520079Y-101035000D01*
X191929290Y-100444210D01*
X191867182Y-100402711D01*
X191642175Y-100252367D01*
X191585984Y-100241190D01*
X191303500Y-100184999D01*
X191303495Y-100185000D01*
X187798548Y-100185000D01*
X187457746Y-99844197D01*
X187375107Y-99788980D01*
X187170631Y-99652354D01*
X187114440Y-99641177D01*
X186831956Y-99584986D01*
X186831951Y-99584987D01*
X182943505Y-99584987D01*
X182943500Y-99584986D01*
X182661016Y-99641177D01*
X182604825Y-99652354D01*
X182317710Y-99844197D01*
X182317708Y-99844200D01*
X182018407Y-100143500D01*
X181114987Y-100143500D01*
X180776312Y-100210867D01*
X180489197Y-100402710D01*
X180489195Y-100402713D01*
X179351407Y-101540500D01*
X174727286Y-101540500D01*
X174614656Y-101267914D01*
X174197283Y-100849812D01*
X174169443Y-100838252D01*
X174195086Y-100827656D01*
X174613188Y-100410283D01*
X174839742Y-99864681D01*
X174840204Y-99334375D01*
X175822287Y-98352292D01*
X175822290Y-98352290D01*
X176014133Y-98065175D01*
X176023119Y-98020000D01*
X176081501Y-97726500D01*
X176081500Y-97726495D01*
X176081500Y-97077080D01*
X176579079Y-96579500D01*
X193593495Y-96579500D01*
X193593500Y-96579501D01*
X193892625Y-96520000D01*
X193932175Y-96512133D01*
X194219290Y-96320290D01*
X194219291Y-96320289D01*
X195114834Y-95424745D01*
X195234943Y-95375117D01*
X195498192Y-95112327D01*
X195640838Y-94768799D01*
X195641162Y-94396833D01*
X195514688Y-94090740D01*
X196628964Y-94090740D01*
X196807760Y-94522417D01*
X197212424Y-94963966D01*
X197755258Y-95217046D01*
X197993000Y-95096997D01*
X197993000Y-93853000D01*
X196749622Y-93853000D01*
X196628964Y-94090740D01*
X195514688Y-94090740D01*
X195499117Y-94053057D01*
X195236327Y-93789808D01*
X194892799Y-93647162D01*
X194520833Y-93646838D01*
X194177057Y-93788883D01*
X193913808Y-94051673D01*
X193863434Y-94172987D01*
X193640702Y-94395719D01*
X193499117Y-94053057D01*
X193236327Y-93789808D01*
X192892799Y-93647162D01*
X192520833Y-93646838D01*
X192399431Y-93697000D01*
X190706579Y-93697000D01*
X190370840Y-93361260D01*
X196628964Y-93361260D01*
X196749622Y-93599000D01*
X197993000Y-93599000D01*
X197993000Y-92355003D01*
X197755258Y-92234954D01*
X197212424Y-92488034D01*
X196807760Y-92929583D01*
X196628964Y-93361260D01*
X190370840Y-93361260D01*
X188966790Y-91957210D01*
X188831093Y-91866541D01*
X188679675Y-91765367D01*
X188593819Y-91748289D01*
X188341000Y-91697999D01*
X188340995Y-91698000D01*
X175954500Y-91698000D01*
X175954500Y-91122505D01*
X175954501Y-91122500D01*
X175887133Y-90783825D01*
X175823335Y-90688344D01*
X175695290Y-90496710D01*
X175695287Y-90496708D01*
X174839797Y-89641218D01*
X174840257Y-89113911D01*
X174614656Y-88567914D01*
X174197283Y-88149812D01*
X174169443Y-88138252D01*
X174195086Y-88127656D01*
X174613188Y-87710283D01*
X174839742Y-87164681D01*
X174840257Y-86573911D01*
X174614656Y-86027914D01*
X174197283Y-85609812D01*
X174169443Y-85598252D01*
X174195086Y-85587656D01*
X174613188Y-85170283D01*
X174839742Y-84624681D01*
X174840125Y-84184740D01*
X196628964Y-84184740D01*
X196807760Y-84616417D01*
X197212424Y-85057966D01*
X197755258Y-85311046D01*
X197993000Y-85190997D01*
X197993000Y-83947000D01*
X196749622Y-83947000D01*
X196628964Y-84184740D01*
X174840125Y-84184740D01*
X174840257Y-84033911D01*
X174614656Y-83487914D01*
X174582059Y-83455260D01*
X196628964Y-83455260D01*
X196749622Y-83693000D01*
X197993000Y-83693000D01*
X197993000Y-82449003D01*
X197755258Y-82328954D01*
X197212424Y-82582034D01*
X196807760Y-83023583D01*
X196628964Y-83455260D01*
X174582059Y-83455260D01*
X174197283Y-83069812D01*
X174169443Y-83058252D01*
X174195086Y-83047656D01*
X174613188Y-82630283D01*
X174839742Y-82084681D01*
X174840257Y-81493911D01*
X174614656Y-80947914D01*
X174197283Y-80529812D01*
X174169443Y-80518252D01*
X174195086Y-80507656D01*
X174613188Y-80090283D01*
X174839742Y-79544681D01*
X174840257Y-78953911D01*
X174614656Y-78407914D01*
X174197283Y-77989812D01*
X174169443Y-77978252D01*
X174195086Y-77967656D01*
X174613188Y-77550283D01*
X174839742Y-77004681D01*
X174840257Y-76413911D01*
X174614656Y-75867914D01*
X174197283Y-75449812D01*
X174149688Y-75430049D01*
X174219353Y-75211958D01*
X173355000Y-74347605D01*
X172490647Y-75211958D01*
X172560181Y-75429640D01*
X172514914Y-75448344D01*
X172096812Y-75865717D01*
X171870258Y-76411319D01*
X171869743Y-77002089D01*
X172095344Y-77548086D01*
X172512717Y-77966188D01*
X172540557Y-77977748D01*
X172514914Y-77988344D01*
X172096812Y-78405717D01*
X171870258Y-78951319D01*
X171869743Y-79542089D01*
X172095344Y-80088086D01*
X172512717Y-80506188D01*
X172540557Y-80517748D01*
X172514914Y-80528344D01*
X172096812Y-80945717D01*
X171870258Y-81491319D01*
X171869743Y-82082089D01*
X172095344Y-82628086D01*
X172512717Y-83046188D01*
X172540557Y-83057748D01*
X172514914Y-83068344D01*
X172096812Y-83485717D01*
X171870258Y-84031319D01*
X171869743Y-84622089D01*
X172095344Y-85168086D01*
X172512717Y-85586188D01*
X172540557Y-85597748D01*
X172514914Y-85608344D01*
X172096812Y-86025717D01*
X171870258Y-86571319D01*
X171869743Y-87162089D01*
X172095344Y-87708086D01*
X172512717Y-88126188D01*
X172540557Y-88137748D01*
X172514914Y-88148344D01*
X172096812Y-88565717D01*
X171870258Y-89111319D01*
X171869743Y-89702089D01*
X172095344Y-90248086D01*
X172512717Y-90666188D01*
X172540557Y-90677748D01*
X172514914Y-90688344D01*
X172096812Y-91105717D01*
X171870258Y-91651319D01*
X171869743Y-92242089D01*
X172095344Y-92788086D01*
X172512717Y-93206188D01*
X172540557Y-93217748D01*
X172514914Y-93228344D01*
X172096812Y-93645717D01*
X171870258Y-94191319D01*
X171869743Y-94782089D01*
X172095344Y-95328086D01*
X172512717Y-95746188D01*
X172540557Y-95757748D01*
X172514914Y-95768344D01*
X172096812Y-96185717D01*
X171870258Y-96731319D01*
X171869743Y-97322089D01*
X172095344Y-97868086D01*
X172512717Y-98286188D01*
X172540557Y-98297748D01*
X172514914Y-98308344D01*
X172096812Y-98725717D01*
X171870258Y-99271319D01*
X171869743Y-99862089D01*
X172095344Y-100408086D01*
X172512717Y-100826188D01*
X172540557Y-100837748D01*
X172514914Y-100848344D01*
X172096812Y-101265717D01*
X171870258Y-101811319D01*
X171869743Y-102402089D01*
X171907307Y-102493000D01*
X171308579Y-102493000D01*
X170297790Y-101482210D01*
X170161369Y-101391057D01*
X170010675Y-101290367D01*
X169954484Y-101279190D01*
X169672000Y-101222999D01*
X169671995Y-101223000D01*
X161603500Y-101223000D01*
X161603500Y-85471005D01*
X161603501Y-85471000D01*
X161536133Y-85132326D01*
X161536133Y-85132325D01*
X161344290Y-84845210D01*
X161344287Y-84845208D01*
X160714500Y-84215420D01*
X160714500Y-83502505D01*
X160714501Y-83502500D01*
X160647133Y-83163825D01*
X160455290Y-82876710D01*
X160455287Y-82876708D01*
X159599797Y-82021218D01*
X159600257Y-81493911D01*
X159374656Y-80947914D01*
X158957283Y-80529812D01*
X158929443Y-80518252D01*
X158955086Y-80507656D01*
X159373188Y-80090283D01*
X159599742Y-79544681D01*
X159600257Y-78953911D01*
X159374656Y-78407914D01*
X158957283Y-77989812D01*
X158929443Y-77978252D01*
X158955086Y-77967656D01*
X159373188Y-77550283D01*
X159599742Y-77004681D01*
X159600257Y-76413911D01*
X159374656Y-75867914D01*
X158957283Y-75449812D01*
X158929443Y-75438252D01*
X158955086Y-75427656D01*
X159373188Y-75010283D01*
X159599742Y-74464681D01*
X159600200Y-73939279D01*
X171858282Y-73939279D01*
X171884685Y-74529458D01*
X172059741Y-74952080D01*
X172311042Y-75032353D01*
X173175395Y-74168000D01*
X173534605Y-74168000D01*
X174398958Y-75032353D01*
X174650259Y-74952080D01*
X174851718Y-74396721D01*
X174835077Y-74024740D01*
X196628964Y-74024740D01*
X196807760Y-74456417D01*
X197212424Y-74897966D01*
X197755258Y-75151046D01*
X197993000Y-75030997D01*
X197993000Y-73787000D01*
X196749622Y-73787000D01*
X196628964Y-74024740D01*
X174835077Y-74024740D01*
X174825315Y-73806542D01*
X174650259Y-73383920D01*
X174398958Y-73303647D01*
X173534605Y-74168000D01*
X173175395Y-74168000D01*
X172311042Y-73303647D01*
X172059741Y-73383920D01*
X171858282Y-73939279D01*
X159600200Y-73939279D01*
X159600257Y-73873911D01*
X159374656Y-73327914D01*
X158957283Y-72909812D01*
X158929443Y-72898252D01*
X158955086Y-72887656D01*
X159171160Y-72671958D01*
X172490647Y-72671958D01*
X172562852Y-72898000D01*
X172490647Y-73124042D01*
X173355000Y-73988395D01*
X174219353Y-73124042D01*
X174147148Y-72898000D01*
X174219353Y-72671958D01*
X173355000Y-71807605D01*
X172490647Y-72671958D01*
X159171160Y-72671958D01*
X159373188Y-72470283D01*
X159599742Y-71924681D01*
X159600200Y-71399279D01*
X171858282Y-71399279D01*
X171884685Y-71989458D01*
X172059741Y-72412080D01*
X172311042Y-72492353D01*
X173175395Y-71628000D01*
X173534605Y-71628000D01*
X174398958Y-72492353D01*
X174650259Y-72412080D01*
X174851718Y-71856721D01*
X174825315Y-71266542D01*
X174780770Y-71159000D01*
X190971060Y-71159000D01*
X190971060Y-72859000D01*
X191015338Y-73094317D01*
X191154410Y-73310441D01*
X191366610Y-73455431D01*
X191618500Y-73506440D01*
X193318500Y-73506440D01*
X193553817Y-73462162D01*
X193769941Y-73323090D01*
X193788956Y-73295260D01*
X196628964Y-73295260D01*
X196749622Y-73533000D01*
X197993000Y-73533000D01*
X197993000Y-72289003D01*
X197755258Y-72168954D01*
X197212424Y-72422034D01*
X196807760Y-72863583D01*
X196628964Y-73295260D01*
X193788956Y-73295260D01*
X193914931Y-73110890D01*
X193965940Y-72859000D01*
X193965940Y-71542815D01*
X213764630Y-71542815D01*
X214088980Y-72327800D01*
X214689041Y-72928909D01*
X215473459Y-73254628D01*
X216322815Y-73255370D01*
X217107800Y-72931020D01*
X217708909Y-72330959D01*
X218034628Y-71546541D01*
X218035370Y-70697185D01*
X217711020Y-69912200D01*
X217110959Y-69311091D01*
X216326541Y-68985372D01*
X215477185Y-68984630D01*
X214692200Y-69308980D01*
X214091091Y-69909041D01*
X213765372Y-70693459D01*
X213764630Y-71542815D01*
X193965940Y-71542815D01*
X193965940Y-71159000D01*
X193921662Y-70923683D01*
X193782590Y-70707559D01*
X193570390Y-70562569D01*
X193318500Y-70511560D01*
X191618500Y-70511560D01*
X191383183Y-70555838D01*
X191167059Y-70694910D01*
X191022069Y-70907110D01*
X190971060Y-71159000D01*
X174780770Y-71159000D01*
X174650259Y-70843920D01*
X174398958Y-70763647D01*
X173534605Y-71628000D01*
X173175395Y-71628000D01*
X172311042Y-70763647D01*
X172059741Y-70843920D01*
X171858282Y-71399279D01*
X159600200Y-71399279D01*
X159600257Y-71333911D01*
X159374656Y-70787914D01*
X159171140Y-70584042D01*
X172490647Y-70584042D01*
X173355000Y-71448395D01*
X174219353Y-70584042D01*
X174139080Y-70332741D01*
X173583721Y-70131282D01*
X172993542Y-70157685D01*
X172570920Y-70332741D01*
X172490647Y-70584042D01*
X159171140Y-70584042D01*
X158957283Y-70369812D01*
X158411681Y-70143258D01*
X157820911Y-70142743D01*
X157274914Y-70368344D01*
X156856812Y-70785717D01*
X156630258Y-71331319D01*
X156629743Y-71922089D01*
X156855344Y-72468086D01*
X157272717Y-72886188D01*
X157300557Y-72897748D01*
X157274914Y-72908344D01*
X156856812Y-73325717D01*
X156630258Y-73871319D01*
X156629743Y-74462089D01*
X156855344Y-75008086D01*
X157272717Y-75426188D01*
X157300557Y-75437748D01*
X157274914Y-75448344D01*
X156856812Y-75865717D01*
X156630258Y-76411319D01*
X156629743Y-77002089D01*
X156855344Y-77548086D01*
X157272717Y-77966188D01*
X157300557Y-77977748D01*
X157274914Y-77988344D01*
X156856812Y-78405717D01*
X156630258Y-78951319D01*
X156629743Y-79542089D01*
X156855344Y-80088086D01*
X157272717Y-80506188D01*
X157300557Y-80517748D01*
X157274914Y-80528344D01*
X156856812Y-80945717D01*
X156630258Y-81491319D01*
X156629743Y-82082089D01*
X156855344Y-82628086D01*
X157272717Y-83046188D01*
X157300557Y-83057748D01*
X157274914Y-83068344D01*
X156856812Y-83485717D01*
X156630258Y-84031319D01*
X156629743Y-84622089D01*
X156855344Y-85168086D01*
X157272717Y-85586188D01*
X157300557Y-85597748D01*
X157274914Y-85608344D01*
X156856812Y-86025717D01*
X156630258Y-86571319D01*
X156629743Y-87162089D01*
X156855344Y-87708086D01*
X157272717Y-88126188D01*
X157300557Y-88137748D01*
X157274914Y-88148344D01*
X156856812Y-88565717D01*
X156630258Y-89111319D01*
X156629743Y-89702089D01*
X156855344Y-90248086D01*
X157272717Y-90666188D01*
X157300557Y-90677748D01*
X157274914Y-90688344D01*
X156856812Y-91105717D01*
X156630258Y-91651319D01*
X156629743Y-92242089D01*
X156855344Y-92788086D01*
X157272717Y-93206188D01*
X157300557Y-93217748D01*
X157274914Y-93228344D01*
X156856812Y-93645717D01*
X156630258Y-94191319D01*
X156629743Y-94782089D01*
X156855344Y-95328086D01*
X157272717Y-95746188D01*
X157300557Y-95757748D01*
X157274914Y-95768344D01*
X156856812Y-96185717D01*
X156630258Y-96731319D01*
X156629743Y-97322089D01*
X156855344Y-97868086D01*
X157272717Y-98286188D01*
X157300557Y-98297748D01*
X157274914Y-98308344D01*
X156856812Y-98725717D01*
X156630258Y-99271319D01*
X156629743Y-99862089D01*
X156855344Y-100408086D01*
X157272717Y-100826188D01*
X157300557Y-100837748D01*
X157274914Y-100848344D01*
X156856812Y-101265717D01*
X156630258Y-101811319D01*
X156629743Y-102402089D01*
X156855344Y-102948086D01*
X157272717Y-103366188D01*
X157300557Y-103377748D01*
X157274914Y-103388344D01*
X156856812Y-103805717D01*
X156630258Y-104351319D01*
X156629743Y-104942089D01*
X156855344Y-105488086D01*
X157272717Y-105906188D01*
X157300557Y-105917748D01*
X157274914Y-105928344D01*
X156856812Y-106345717D01*
X156630258Y-106891319D01*
X156629743Y-107482089D01*
X156855344Y-108028086D01*
X157272717Y-108446188D01*
X157300557Y-108457748D01*
X157274914Y-108468344D01*
X156856812Y-108885717D01*
X156630258Y-109431319D01*
X156629743Y-110022089D01*
X156855344Y-110568086D01*
X157272717Y-110986188D01*
X157300557Y-110997748D01*
X157274914Y-111008344D01*
X156856812Y-111425717D01*
X156630258Y-111971319D01*
X156629743Y-112562089D01*
X156855344Y-113108086D01*
X157272717Y-113526188D01*
X157300557Y-113537748D01*
X157274914Y-113548344D01*
X156856812Y-113965717D01*
X156630258Y-114511319D01*
X156629743Y-115102089D01*
X156855344Y-115648086D01*
X157272717Y-116066188D01*
X157320312Y-116085951D01*
X157250647Y-116304042D01*
X158115000Y-117168395D01*
X158979353Y-116304042D01*
X158909819Y-116086360D01*
X158955086Y-116067656D01*
X159373188Y-115650283D01*
X159599742Y-115104681D01*
X159600257Y-114513911D01*
X159374656Y-113967914D01*
X158957283Y-113549812D01*
X158929443Y-113538252D01*
X158955086Y-113527656D01*
X159373188Y-113110283D01*
X159599742Y-112564681D01*
X159600257Y-111973911D01*
X159374656Y-111427914D01*
X158957283Y-111009812D01*
X158929443Y-110998252D01*
X158955086Y-110987656D01*
X159373188Y-110570283D01*
X159599742Y-110024681D01*
X159600257Y-109433911D01*
X159374656Y-108887914D01*
X158957283Y-108469812D01*
X158929443Y-108458252D01*
X158955086Y-108447656D01*
X159373188Y-108030283D01*
X159599742Y-107484681D01*
X159600204Y-106954375D01*
X160069079Y-106485500D01*
X167717920Y-106485500D01*
X168533000Y-107300579D01*
X168533000Y-110680495D01*
X168532999Y-110680500D01*
X168560786Y-110820190D01*
X168600367Y-111019175D01*
X168780550Y-111288839D01*
X168792210Y-111306290D01*
X170120500Y-112634579D01*
X170120500Y-113664995D01*
X170120499Y-113665000D01*
X170169192Y-113909790D01*
X170187867Y-114003675D01*
X170261050Y-114113201D01*
X170379710Y-114290790D01*
X171073000Y-114984079D01*
X171073000Y-116014495D01*
X171072999Y-116014500D01*
X171129190Y-116296984D01*
X171140367Y-116353175D01*
X171324216Y-116628326D01*
X171332210Y-116640290D01*
X171459210Y-116767289D01*
X171746325Y-116959133D01*
X171896161Y-116988938D01*
X171870258Y-117051319D01*
X171869743Y-117642089D01*
X172095344Y-118188086D01*
X172330283Y-118423435D01*
X172269683Y-118434838D01*
X172067602Y-118564873D01*
X172067662Y-118496333D01*
X171925617Y-118152557D01*
X171662827Y-117889308D01*
X171319299Y-117746662D01*
X170947333Y-117746338D01*
X170655957Y-117866732D01*
X170366799Y-117746662D01*
X169994833Y-117746338D01*
X169651057Y-117888383D01*
X169387808Y-118151173D01*
X169245162Y-118494701D01*
X169244838Y-118866667D01*
X169295000Y-118988069D01*
X169295000Y-123585421D01*
X164048959Y-128831461D01*
X163830000Y-128787907D01*
X163261715Y-128900946D01*
X162779946Y-129222853D01*
X162560000Y-129552026D01*
X162340054Y-129222853D01*
X162175000Y-129112568D01*
X162175000Y-120949942D01*
X162427667Y-120950162D01*
X162771443Y-120808117D01*
X163034692Y-120545327D01*
X163177338Y-120201799D01*
X163177516Y-119997485D01*
X163380167Y-119997662D01*
X163723943Y-119855617D01*
X163987192Y-119592827D01*
X164129838Y-119249299D01*
X164130162Y-118877333D01*
X164080000Y-118755931D01*
X164080000Y-110161822D01*
X164129838Y-110041799D01*
X164130162Y-109669833D01*
X163988117Y-109326057D01*
X163725327Y-109062808D01*
X163381799Y-108920162D01*
X163009833Y-108919838D01*
X162718457Y-109040232D01*
X162429299Y-108920162D01*
X162057333Y-108919838D01*
X161765957Y-109040232D01*
X161476799Y-108920162D01*
X161104833Y-108919838D01*
X160761057Y-109061883D01*
X160497808Y-109324673D01*
X160355162Y-109668201D01*
X160354838Y-110040167D01*
X160405000Y-110161569D01*
X160405000Y-129112568D01*
X160239946Y-129222853D01*
X160020000Y-129552026D01*
X159800054Y-129222853D01*
X159318285Y-128900946D01*
X158750000Y-128787907D01*
X158181715Y-128900946D01*
X157699946Y-129222853D01*
X157672150Y-129264452D01*
X157663162Y-129216683D01*
X157524090Y-129000559D01*
X157311890Y-128855569D01*
X157060000Y-128804560D01*
X155380500Y-128804560D01*
X155380500Y-125224080D01*
X158740787Y-121863792D01*
X158740790Y-121863790D01*
X158932633Y-121576675D01*
X158943810Y-121520484D01*
X158970893Y-121384331D01*
X159200317Y-121341162D01*
X159416441Y-121202090D01*
X159561431Y-120989890D01*
X159612440Y-120738000D01*
X159612440Y-119038000D01*
X159568162Y-118802683D01*
X159429090Y-118586559D01*
X159216890Y-118441569D01*
X158978900Y-118393375D01*
X158979353Y-118391958D01*
X158115000Y-117527605D01*
X157250647Y-118391958D01*
X157251040Y-118393187D01*
X157029683Y-118434838D01*
X156813559Y-118573910D01*
X156668569Y-118786110D01*
X156617560Y-119038000D01*
X156617560Y-120738000D01*
X156661838Y-120973317D01*
X156800910Y-121189441D01*
X156866895Y-121234526D01*
X153869710Y-124231710D01*
X153677867Y-124518825D01*
X153677867Y-124518826D01*
X153610499Y-124857500D01*
X153610500Y-124857505D01*
X153610500Y-131097497D01*
X153610499Y-131097502D01*
X153663910Y-131366009D01*
X153677867Y-131436177D01*
X153869710Y-131723292D01*
X154024418Y-131878000D01*
X152856000Y-131878000D01*
X152856000Y-117119279D01*
X156618282Y-117119279D01*
X156644685Y-117709458D01*
X156819741Y-118132080D01*
X157071042Y-118212353D01*
X157935395Y-117348000D01*
X158294605Y-117348000D01*
X159158958Y-118212353D01*
X159410259Y-118132080D01*
X159611718Y-117576721D01*
X159585315Y-116986542D01*
X159410259Y-116563920D01*
X159158958Y-116483647D01*
X158294605Y-117348000D01*
X157935395Y-117348000D01*
X157071042Y-116483647D01*
X156819741Y-116563920D01*
X156618282Y-117119279D01*
X152856000Y-117119279D01*
X152856000Y-68782000D01*
X184329317Y-68782000D01*
X184389653Y-69085328D01*
X184389653Y-69085328D01*
G37*
X184389653Y-69085328D02*
X184476085Y-69293991D01*
X184495668Y-69341269D01*
X184991210Y-70082901D01*
X185127796Y-70219486D01*
X185187099Y-70278789D01*
X185928731Y-70774332D01*
X185961521Y-70787914D01*
X186184672Y-70880347D01*
X187059487Y-71054358D01*
X187336514Y-71054358D01*
X188211328Y-70880347D01*
X188467269Y-70774332D01*
X189208901Y-70278790D01*
X189404789Y-70082901D01*
X189900332Y-69341269D01*
X190001055Y-69098103D01*
X190006347Y-69085328D01*
X190066683Y-68782000D01*
X219508000Y-68782000D01*
X219508000Y-131878000D01*
X190066683Y-131878000D01*
X190006347Y-131574672D01*
X189928741Y-131387317D01*
X189900332Y-131318731D01*
X189404789Y-130577099D01*
X189353899Y-130526209D01*
X189208901Y-130381210D01*
X188467269Y-129885668D01*
X188322616Y-129825750D01*
X213765000Y-129825750D01*
X213765000Y-131166309D01*
X213861673Y-131399698D01*
X214040301Y-131578327D01*
X214273690Y-131675000D01*
X215614250Y-131675000D01*
X215773000Y-131516250D01*
X215773000Y-129667000D01*
X216027000Y-129667000D01*
X216027000Y-131516250D01*
X216185750Y-131675000D01*
X217526310Y-131675000D01*
X217759699Y-131578327D01*
X217938327Y-131399698D01*
X218035000Y-131166309D01*
X218035000Y-129825750D01*
X217876250Y-129667000D01*
X216027000Y-129667000D01*
X215773000Y-129667000D01*
X213923750Y-129667000D01*
X213765000Y-129825750D01*
X188322616Y-129825750D01*
X188211328Y-129779653D01*
X187336514Y-129605642D01*
X187198001Y-129605642D01*
X186184672Y-129779653D01*
X186034746Y-129841755D01*
X185928731Y-129885668D01*
X185187099Y-130381211D01*
X184991210Y-130577099D01*
X184495669Y-131318730D01*
X184495668Y-131318731D01*
X184389653Y-131574672D01*
X184329317Y-131878000D01*
X179864084Y-131878000D01*
X179887633Y-131842756D01*
X179922412Y-131667911D01*
X179955001Y-131504081D01*
X179955000Y-131504076D01*
X179955000Y-131491432D01*
X180120054Y-131381147D01*
X180347702Y-131040447D01*
X180414817Y-131183358D01*
X180843076Y-131573645D01*
X181253110Y-131743476D01*
X181483000Y-131622155D01*
X181483000Y-130429000D01*
X181737000Y-130429000D01*
X181737000Y-131622155D01*
X181966890Y-131743476D01*
X182376924Y-131573645D01*
X182805183Y-131183358D01*
X183051486Y-130658892D01*
X182930819Y-130429000D01*
X181737000Y-130429000D01*
X181483000Y-130429000D01*
X181463000Y-130429000D01*
X181463000Y-130175000D01*
X181483000Y-130175000D01*
X181483000Y-130155000D01*
X181737000Y-130155000D01*
X181737000Y-130175000D01*
X182930819Y-130175000D01*
X183051486Y-129945108D01*
X182805183Y-129420642D01*
X182376924Y-129030355D01*
X181966890Y-128860524D01*
X181737002Y-128981844D01*
X181737002Y-128886577D01*
X182235787Y-128387792D01*
X182235790Y-128387790D01*
X182427633Y-128100675D01*
X182464826Y-127913691D01*
X213765000Y-127913691D01*
X213765000Y-129254250D01*
X213923750Y-129413000D01*
X215773000Y-129413000D01*
X215773000Y-127563750D01*
X216027000Y-127563750D01*
X216027000Y-129413000D01*
X217876250Y-129413000D01*
X218035000Y-129254250D01*
X218035000Y-127913691D01*
X217938327Y-127680302D01*
X217759699Y-127501673D01*
X217526310Y-127405000D01*
X216185750Y-127405000D01*
X216027000Y-127563750D01*
X215773000Y-127563750D01*
X215614250Y-127405000D01*
X214273690Y-127405000D01*
X214040301Y-127501673D01*
X213861673Y-127680302D01*
X213765000Y-127913691D01*
X182464826Y-127913691D01*
X182495000Y-127762000D01*
X182495000Y-127357275D01*
X186442331Y-127357275D01*
X186504169Y-127593042D01*
X187005122Y-127769419D01*
X187535440Y-127740664D01*
X187891831Y-127593042D01*
X187953669Y-127357275D01*
X187198000Y-126601605D01*
X186442331Y-127357275D01*
X182495000Y-127357275D01*
X182495000Y-126229122D01*
X185850581Y-126229122D01*
X185879336Y-126759440D01*
X186026958Y-127115831D01*
X186262725Y-127177669D01*
X187018395Y-126422000D01*
X187377605Y-126422000D01*
X188133275Y-127177669D01*
X188369042Y-127115831D01*
X188545419Y-126614878D01*
X188516664Y-126084560D01*
X188369042Y-125728169D01*
X188133275Y-125666331D01*
X187377605Y-126422000D01*
X187018395Y-126422000D01*
X186262725Y-125666331D01*
X186026958Y-125728169D01*
X185850581Y-126229122D01*
X182495000Y-126229122D01*
X182495000Y-121144822D01*
X182544838Y-121024799D01*
X182545162Y-120652833D01*
X182403117Y-120309057D01*
X182140327Y-120045808D01*
X181796799Y-119903162D01*
X181424833Y-119902838D01*
X181081057Y-120044883D01*
X180817808Y-120307673D01*
X180675162Y-120651201D01*
X180674838Y-121023167D01*
X180725000Y-121144569D01*
X180725000Y-127395421D01*
X179288960Y-128831461D01*
X179070000Y-128787907D01*
X178501715Y-128900946D01*
X178019946Y-129222853D01*
X177800000Y-129552026D01*
X177580054Y-129222853D01*
X177098285Y-128900946D01*
X176530000Y-128787907D01*
X176311040Y-128831461D01*
X172075790Y-124596210D01*
X172075787Y-124596208D01*
X172017500Y-124537921D01*
X172017500Y-121153061D01*
X172040910Y-121189441D01*
X172253110Y-121334431D01*
X172505000Y-121385440D01*
X174205000Y-121385440D01*
X174440317Y-121341162D01*
X174656441Y-121202090D01*
X174801431Y-120989890D01*
X174852440Y-120738000D01*
X174852440Y-119038000D01*
X174808162Y-118802683D01*
X174669090Y-118586559D01*
X174456890Y-118441569D01*
X174377557Y-118425504D01*
X174613188Y-118190283D01*
X174839742Y-117644681D01*
X174840257Y-117053911D01*
X174818266Y-117000688D01*
X175027175Y-116959133D01*
X175314290Y-116767290D01*
X175338434Y-116731156D01*
X176833079Y-115236510D01*
X181187103Y-115236510D01*
X181307126Y-115286348D01*
X181679092Y-115286672D01*
X182022868Y-115144627D01*
X182149162Y-115018553D01*
X182222673Y-115092192D01*
X182566201Y-115234838D01*
X182938167Y-115235162D01*
X183281943Y-115093117D01*
X183545192Y-114830327D01*
X183687838Y-114486799D01*
X183688162Y-114114833D01*
X183546117Y-113771057D01*
X183283327Y-113507808D01*
X183162013Y-113457434D01*
X182680290Y-112975710D01*
X182578466Y-112907674D01*
X182393175Y-112783867D01*
X182336984Y-112772690D01*
X182054500Y-112716499D01*
X182054495Y-112716500D01*
X174776701Y-112716500D01*
X174839742Y-112564681D01*
X174840257Y-111973911D01*
X174794021Y-111862011D01*
X175027174Y-111815633D01*
X175314290Y-111623790D01*
X175880579Y-111057500D01*
X187572034Y-111057500D01*
X187510000Y-111369366D01*
X187510000Y-112023634D01*
X187592591Y-112438846D01*
X187710000Y-112614561D01*
X187710000Y-116600421D01*
X186572210Y-117738210D01*
X186380367Y-118025325D01*
X186380367Y-118025326D01*
X186312999Y-118364000D01*
X186313000Y-118364005D01*
X186313000Y-122709370D01*
X186262683Y-122718838D01*
X186046559Y-122857910D01*
X185901569Y-123070110D01*
X185850560Y-123322000D01*
X185850560Y-124722000D01*
X185894838Y-124957317D01*
X186033910Y-125173441D01*
X186246110Y-125318431D01*
X186474349Y-125364651D01*
X186442331Y-125486725D01*
X187198000Y-126242395D01*
X187953669Y-125486725D01*
X187921736Y-125364974D01*
X188133317Y-125325162D01*
X188349441Y-125186090D01*
X188494431Y-124973890D01*
X188545440Y-124722000D01*
X188545440Y-123322000D01*
X188501162Y-123086683D01*
X188362090Y-122870559D01*
X188149890Y-122725569D01*
X188083000Y-122712023D01*
X188083000Y-118730580D01*
X188980000Y-117833579D01*
X188980000Y-117936421D01*
X188821165Y-118095256D01*
X188701057Y-118144883D01*
X188437808Y-118407673D01*
X188295162Y-118751201D01*
X188294838Y-119123167D01*
X188436883Y-119466943D01*
X188699673Y-119730192D01*
X189043201Y-119872838D01*
X189415167Y-119873162D01*
X189758943Y-119731117D01*
X190022192Y-119468327D01*
X190072566Y-119347014D01*
X190363787Y-119055792D01*
X190363790Y-119055790D01*
X190490787Y-118928792D01*
X190490790Y-118928790D01*
X190682633Y-118641675D01*
X190693596Y-118586559D01*
X190750001Y-118303000D01*
X190750000Y-118302995D01*
X190750000Y-114283740D01*
X197136964Y-114283740D01*
X197315760Y-114715417D01*
X197720424Y-115156966D01*
X198263258Y-115410046D01*
X198501000Y-115289997D01*
X198501000Y-114046000D01*
X197257622Y-114046000D01*
X197136964Y-114283740D01*
X190750000Y-114283740D01*
X190750000Y-113081500D01*
X190849250Y-113081500D01*
X191008000Y-112922750D01*
X191008000Y-111823500D01*
X191262000Y-111823500D01*
X191262000Y-112922750D01*
X191420750Y-113081500D01*
X191711309Y-113081500D01*
X191944698Y-112984827D01*
X192034358Y-112895167D01*
X194390838Y-112895167D01*
X194532883Y-113238943D01*
X194795673Y-113502192D01*
X195139201Y-113644838D01*
X195511167Y-113645162D01*
X195632569Y-113595000D01*
X196475995Y-113595000D01*
X196476000Y-113595001D01*
X196783284Y-113533877D01*
X196814675Y-113527633D01*
X196924877Y-113453999D01*
X197178491Y-113453999D01*
X197136964Y-113554260D01*
X197257622Y-113792000D01*
X198501000Y-113792000D01*
X198501000Y-113772000D01*
X198755000Y-113772000D01*
X198755000Y-113792000D01*
X198775000Y-113792000D01*
X198775000Y-114046000D01*
X198755000Y-114046000D01*
X198755000Y-115289997D01*
X198992742Y-115410046D01*
X199535576Y-115156966D01*
X199893499Y-114766418D01*
X200052519Y-115004409D01*
X200550509Y-115337155D01*
X201137928Y-115454000D01*
X201198072Y-115454000D01*
X201785491Y-115337155D01*
X202206026Y-115056163D01*
X202343910Y-115270441D01*
X202556110Y-115415431D01*
X202808000Y-115466440D01*
X204608000Y-115466440D01*
X204843317Y-115422162D01*
X205059441Y-115283090D01*
X205204431Y-115070890D01*
X205255440Y-114819000D01*
X205255440Y-113019000D01*
X205211162Y-112783683D01*
X205072090Y-112567559D01*
X204859890Y-112422569D01*
X204608000Y-112371560D01*
X203412140Y-112371560D01*
X202983789Y-111943209D01*
X202696674Y-111751366D01*
X202640483Y-111740189D01*
X202357999Y-111683998D01*
X202357994Y-111683999D01*
X196617006Y-111683999D01*
X196617001Y-111683998D01*
X196278327Y-111751365D01*
X196183055Y-111815024D01*
X196168124Y-111825000D01*
X195632822Y-111825000D01*
X195512799Y-111775162D01*
X195140833Y-111774838D01*
X194797057Y-111916883D01*
X194533808Y-112179673D01*
X194391162Y-112523201D01*
X194390838Y-112895167D01*
X192034358Y-112895167D01*
X192123327Y-112806199D01*
X192220000Y-112572810D01*
X192220000Y-111982250D01*
X192061250Y-111823500D01*
X191262000Y-111823500D01*
X191008000Y-111823500D01*
X190988000Y-111823500D01*
X190988000Y-111569500D01*
X191008000Y-111569500D01*
X191008000Y-110470250D01*
X191262000Y-110470250D01*
X191262000Y-111569500D01*
X192061250Y-111569500D01*
X192220000Y-111410750D01*
X192220000Y-110820190D01*
X192123327Y-110586801D01*
X191944698Y-110408173D01*
X191711309Y-110311500D01*
X191420750Y-110311500D01*
X191262000Y-110470250D01*
X191008000Y-110470250D01*
X190849250Y-110311500D01*
X190723148Y-110311500D01*
X190682634Y-110107826D01*
X190682416Y-110107500D01*
X193371920Y-110107500D01*
X194483255Y-111218834D01*
X194532883Y-111338943D01*
X194795673Y-111602192D01*
X195139201Y-111744838D01*
X195511167Y-111745162D01*
X195854943Y-111603117D01*
X196118192Y-111340327D01*
X196260838Y-110996799D01*
X196261162Y-110624833D01*
X196119117Y-110281057D01*
X195856327Y-110017808D01*
X195735013Y-109967434D01*
X194364290Y-108596710D01*
X194181128Y-108474326D01*
X194077175Y-108404867D01*
X194020984Y-108393690D01*
X193738500Y-108337499D01*
X193738495Y-108337500D01*
X175819579Y-108337500D01*
X175314290Y-107832210D01*
X175027174Y-107640367D01*
X174794328Y-107594050D01*
X174839742Y-107484681D01*
X174840257Y-106893911D01*
X174815709Y-106834499D01*
X174847496Y-106834499D01*
X174847501Y-106834500D01*
X175129985Y-106778309D01*
X175186176Y-106767132D01*
X175473291Y-106575289D01*
X175473292Y-106575288D01*
X175946080Y-106102499D01*
X181040496Y-106102499D01*
X181040501Y-106102500D01*
X181322985Y-106046309D01*
X181379176Y-106035132D01*
X181666291Y-105843289D01*
X184704579Y-102805000D01*
X185875178Y-102805000D01*
X185995201Y-102854838D01*
X186367167Y-102855162D01*
X186710943Y-102713117D01*
X186793419Y-102630785D01*
X186953329Y-102737633D01*
X187000415Y-102746999D01*
X187292004Y-102805001D01*
X187292009Y-102805000D01*
X190447178Y-102805000D01*
X190567201Y-102854838D01*
X190767408Y-102855012D01*
X190737435Y-102884985D01*
X190568833Y-102884838D01*
X190225057Y-103026883D01*
X190018830Y-103232750D01*
X189980290Y-103194210D01*
X189909163Y-103146685D01*
X189693175Y-103002367D01*
X189619892Y-102987790D01*
X189354500Y-102934999D01*
X189354495Y-102935000D01*
X186488822Y-102935000D01*
X186368799Y-102885162D01*
X185996833Y-102884838D01*
X185653057Y-103026883D01*
X185389808Y-103289673D01*
X185247162Y-103633201D01*
X185246838Y-104005167D01*
X185388883Y-104348943D01*
X185651673Y-104612192D01*
X185995201Y-104754838D01*
X186367167Y-104755162D01*
X186488569Y-104705000D01*
X188987920Y-104705000D01*
X189683708Y-105400787D01*
X189683710Y-105400790D01*
X189970825Y-105592633D01*
X190010375Y-105600500D01*
X190309500Y-105660001D01*
X190309505Y-105660000D01*
X191198495Y-105660000D01*
X191198500Y-105660001D01*
X191497625Y-105600500D01*
X191537175Y-105592633D01*
X191824290Y-105400790D01*
X192708079Y-104517000D01*
X195833995Y-104517000D01*
X195834000Y-104517001D01*
X196116484Y-104460810D01*
X196172675Y-104449633D01*
X196459790Y-104257790D01*
X196818702Y-103898878D01*
X196876622Y-104013000D01*
X198120000Y-104013000D01*
X198120000Y-102769003D01*
X198006094Y-102711486D01*
X204474000Y-96243579D01*
X204474000Y-102642579D01*
X204227000Y-102592560D01*
X202427000Y-102592560D01*
X202191683Y-102636838D01*
X201975559Y-102775910D01*
X201830569Y-102988110D01*
X201827281Y-103004344D01*
X201404491Y-102721845D01*
X200817072Y-102605000D01*
X200756928Y-102605000D01*
X200169509Y-102721845D01*
X199671519Y-103054591D01*
X199512499Y-103292582D01*
X199154576Y-102902034D01*
X198611742Y-102648954D01*
X198374000Y-102769003D01*
X198374000Y-104013000D01*
X198394000Y-104013000D01*
X198394000Y-104267000D01*
X198374000Y-104267000D01*
X198374000Y-104287000D01*
X198120000Y-104287000D01*
X198120000Y-104267000D01*
X196876622Y-104267000D01*
X196755964Y-104504740D01*
X196896896Y-104845000D01*
X195632822Y-104845000D01*
X195512799Y-104795162D01*
X195140833Y-104794838D01*
X194797057Y-104936883D01*
X194533808Y-105199673D01*
X194391162Y-105543201D01*
X194391053Y-105668000D01*
X183186822Y-105668000D01*
X183066799Y-105618162D01*
X182694833Y-105617838D01*
X182351057Y-105759883D01*
X182087808Y-106022673D01*
X181945162Y-106366201D01*
X181944838Y-106738167D01*
X182086883Y-107081943D01*
X182349673Y-107345192D01*
X182693201Y-107487838D01*
X183065167Y-107488162D01*
X183186569Y-107438000D01*
X203523997Y-107438000D01*
X203524002Y-107438001D01*
X203806486Y-107381810D01*
X203862677Y-107370633D01*
X204149792Y-107178790D01*
X205984787Y-105343794D01*
X205984790Y-105343792D01*
X206176633Y-105056677D01*
X206200462Y-104936883D01*
X206244001Y-104718002D01*
X206244000Y-104717997D01*
X206244000Y-79503999D01*
X210064999Y-79503999D01*
X210064999Y-83056001D01*
X210227516Y-83873030D01*
X210690326Y-84565674D01*
X212484652Y-86360000D01*
X210690326Y-88154326D01*
X210227516Y-88846970D01*
X210064999Y-89663999D01*
X210064999Y-93216001D01*
X210227516Y-94033030D01*
X210690326Y-94725674D01*
X212484652Y-96520000D01*
X210690326Y-98314326D01*
X210227516Y-99006970D01*
X210064999Y-99823999D01*
X210064999Y-103376001D01*
X210227516Y-104193030D01*
X210690326Y-104885674D01*
X212484652Y-106680000D01*
X210690326Y-108474326D01*
X210227516Y-109166970D01*
X210064999Y-109983999D01*
X210064999Y-113536001D01*
X210227516Y-114353030D01*
X210690326Y-115045674D01*
X212964432Y-117319780D01*
X213069575Y-117848371D01*
X213640772Y-118703226D01*
X213765000Y-118786233D01*
X213765000Y-124459282D01*
X213764630Y-124882815D01*
X214088980Y-125667800D01*
X214689041Y-126268909D01*
X215473459Y-126594628D01*
X216322815Y-126595370D01*
X217107800Y-126271020D01*
X217708909Y-125670959D01*
X218034628Y-124886541D01*
X218035370Y-124037185D01*
X218035000Y-124036290D01*
X218035000Y-118401431D01*
X218047440Y-118340000D01*
X218047440Y-118277871D01*
X218334423Y-117848371D01*
X218535000Y-116840000D01*
X218334423Y-115831629D01*
X218047440Y-115402129D01*
X218047440Y-115340000D01*
X218003162Y-115104683D01*
X217864090Y-114888559D01*
X217651890Y-114743569D01*
X217400000Y-114692560D01*
X217337871Y-114692560D01*
X216908371Y-114405577D01*
X215900000Y-114205000D01*
X215888344Y-114205000D01*
X215578063Y-113894719D01*
X216322815Y-113895370D01*
X217107800Y-113571020D01*
X217708909Y-112970959D01*
X218034628Y-112186541D01*
X218035370Y-111337185D01*
X217711020Y-110552200D01*
X217110959Y-109951091D01*
X216326541Y-109625372D01*
X215578625Y-109624719D01*
X215888344Y-109315000D01*
X215900000Y-109315000D01*
X216908371Y-109114423D01*
X217337871Y-108827440D01*
X217400000Y-108827440D01*
X217635317Y-108783162D01*
X217851441Y-108644090D01*
X217996431Y-108431890D01*
X218047440Y-108180000D01*
X218047440Y-108117871D01*
X218334423Y-107688371D01*
X218535000Y-106680000D01*
X218334423Y-105671629D01*
X218047440Y-105242129D01*
X218047440Y-105180000D01*
X218003162Y-104944683D01*
X217864090Y-104728559D01*
X217651890Y-104583569D01*
X217400000Y-104532560D01*
X217337871Y-104532560D01*
X216908371Y-104245577D01*
X215900000Y-104045000D01*
X215888344Y-104045000D01*
X215578063Y-103734719D01*
X216322815Y-103735370D01*
X217107800Y-103411020D01*
X217708909Y-102810959D01*
X218034628Y-102026541D01*
X218035370Y-101177185D01*
X217711020Y-100392200D01*
X217110959Y-99791091D01*
X216326541Y-99465372D01*
X215578625Y-99464719D01*
X215888344Y-99155000D01*
X215900000Y-99155000D01*
X216908371Y-98954423D01*
X217337871Y-98667440D01*
X217400000Y-98667440D01*
X217635317Y-98623162D01*
X217851441Y-98484090D01*
X217996431Y-98271890D01*
X218047440Y-98020000D01*
X218047440Y-97957871D01*
X218334423Y-97528371D01*
X218535000Y-96520000D01*
X218334423Y-95511629D01*
X218047440Y-95082129D01*
X218047440Y-95020000D01*
X218003162Y-94784683D01*
X217864090Y-94568559D01*
X217651890Y-94423569D01*
X217400000Y-94372560D01*
X217337871Y-94372560D01*
X216908371Y-94085577D01*
X215900000Y-93885000D01*
X215888344Y-93885000D01*
X215578063Y-93574719D01*
X216322815Y-93575370D01*
X217107800Y-93251020D01*
X217708909Y-92650959D01*
X218034628Y-91866541D01*
X218035370Y-91017185D01*
X217711020Y-90232200D01*
X217110959Y-89631091D01*
X216326541Y-89305372D01*
X215578625Y-89304719D01*
X215888344Y-88995000D01*
X215900000Y-88995000D01*
X216908371Y-88794423D01*
X217337871Y-88507440D01*
X217400000Y-88507440D01*
X217635317Y-88463162D01*
X217851441Y-88324090D01*
X217996431Y-88111890D01*
X218047440Y-87860000D01*
X218047440Y-87797871D01*
X218334423Y-87368371D01*
X218535000Y-86360000D01*
X218334423Y-85351629D01*
X218047440Y-84922129D01*
X218047440Y-84860000D01*
X218003162Y-84624683D01*
X217864090Y-84408559D01*
X217651890Y-84263569D01*
X217400000Y-84212560D01*
X217337871Y-84212560D01*
X216908371Y-83925577D01*
X215900000Y-83725000D01*
X215888344Y-83725000D01*
X215578063Y-83414719D01*
X216322815Y-83415370D01*
X217107800Y-83091020D01*
X217708909Y-82490959D01*
X218034628Y-81706541D01*
X218035370Y-80857185D01*
X217711020Y-80072200D01*
X217110959Y-79471091D01*
X216326541Y-79145372D01*
X215578625Y-79144719D01*
X215888344Y-78835000D01*
X215900000Y-78835000D01*
X216908371Y-78634423D01*
X217337871Y-78347440D01*
X217400000Y-78347440D01*
X217635317Y-78303162D01*
X217851441Y-78164090D01*
X217996431Y-77951890D01*
X218047440Y-77700000D01*
X218047440Y-77637871D01*
X218334423Y-77208371D01*
X218535000Y-76200000D01*
X218334423Y-75191629D01*
X218047440Y-74762129D01*
X218047440Y-74700000D01*
X218003162Y-74464683D01*
X217864090Y-74248559D01*
X217651890Y-74103569D01*
X217400000Y-74052560D01*
X217337871Y-74052560D01*
X216908371Y-73765577D01*
X215900000Y-73565000D01*
X215503998Y-73565000D01*
X214495627Y-73765577D01*
X213640772Y-74336774D01*
X213069575Y-75191629D01*
X212964432Y-75720220D01*
X210690326Y-77994326D01*
X210227516Y-78686970D01*
X210064999Y-79503999D01*
X206244000Y-79503999D01*
X206244000Y-77219005D01*
X206244001Y-77219000D01*
X206176633Y-76880325D01*
X205984790Y-76593210D01*
X205984787Y-76593208D01*
X204468829Y-75077249D01*
X204551441Y-75024090D01*
X204696431Y-74811890D01*
X204747440Y-74560000D01*
X204747440Y-72760000D01*
X204703162Y-72524683D01*
X204564090Y-72308559D01*
X204351890Y-72163569D01*
X204100000Y-72112560D01*
X202300000Y-72112560D01*
X202064683Y-72156838D01*
X201848559Y-72295910D01*
X201703569Y-72508110D01*
X201700281Y-72524344D01*
X201277491Y-72241845D01*
X200690072Y-72125000D01*
X200629928Y-72125000D01*
X200042509Y-72241845D01*
X199544519Y-72574591D01*
X199385499Y-72812582D01*
X199027576Y-72422034D01*
X198484742Y-72168954D01*
X198247000Y-72289003D01*
X198247000Y-73533000D01*
X198267000Y-73533000D01*
X198267000Y-73787000D01*
X198247000Y-73787000D01*
X198247000Y-75030997D01*
X198484742Y-75151046D01*
X199027576Y-74897966D01*
X199385499Y-74507418D01*
X199544519Y-74745409D01*
X200042509Y-75078155D01*
X200629928Y-75195000D01*
X200690072Y-75195000D01*
X201277491Y-75078155D01*
X201698026Y-74797163D01*
X201835910Y-75011441D01*
X202048110Y-75156431D01*
X202300000Y-75207440D01*
X202344327Y-75207440D01*
X202347474Y-75223258D01*
X202382367Y-75398675D01*
X202552128Y-75652742D01*
X202574210Y-75685790D01*
X204474000Y-77585579D01*
X204474000Y-82407003D01*
X204351890Y-82323569D01*
X204100000Y-82272560D01*
X202300000Y-82272560D01*
X202064683Y-82316838D01*
X201848559Y-82455910D01*
X201703569Y-82668110D01*
X201700281Y-82684344D01*
X201277491Y-82401845D01*
X200690072Y-82285000D01*
X200629928Y-82285000D01*
X200042509Y-82401845D01*
X199544519Y-82734591D01*
X199385499Y-82972582D01*
X199027576Y-82582034D01*
X198484742Y-82328954D01*
X198247000Y-82449003D01*
X198247000Y-83693000D01*
X198267000Y-83693000D01*
X198267000Y-83947000D01*
X198247000Y-83947000D01*
X198247000Y-85190997D01*
X198484742Y-85311046D01*
X199027576Y-85057966D01*
X199385499Y-84667418D01*
X199544519Y-84905409D01*
X200042509Y-85238155D01*
X200629928Y-85355000D01*
X200690072Y-85355000D01*
X201277491Y-85238155D01*
X201698026Y-84957163D01*
X201835910Y-85171441D01*
X202048110Y-85316431D01*
X202300000Y-85367440D01*
X203495861Y-85367440D01*
X203665001Y-85536580D01*
X203665001Y-92178560D01*
X202300000Y-92178560D01*
X202064683Y-92222838D01*
X201848559Y-92361910D01*
X201703569Y-92574110D01*
X201700281Y-92590344D01*
X201277491Y-92307845D01*
X200690072Y-92191000D01*
X200629928Y-92191000D01*
X200042509Y-92307845D01*
X199544519Y-92640591D01*
X199385499Y-92878582D01*
X199027576Y-92488034D01*
X198484742Y-92234954D01*
X198247000Y-92355003D01*
X198247000Y-93599000D01*
X198267000Y-93599000D01*
X198267000Y-93853000D01*
X198247000Y-93853000D01*
X198247000Y-95096997D01*
X198484742Y-95217046D01*
X199027576Y-94963966D01*
X199385499Y-94573418D01*
X199544519Y-94811409D01*
X200042509Y-95144155D01*
X200629928Y-95261000D01*
X200690072Y-95261000D01*
X201277491Y-95144155D01*
X201698026Y-94863163D01*
X201835910Y-95077441D01*
X201931599Y-95142822D01*
X195901430Y-101172990D01*
X195856327Y-101127808D01*
X195512799Y-100985162D01*
X195140833Y-100984838D01*
X195019431Y-101035000D01*
X192520079Y-101035000D01*
X191929290Y-100444210D01*
X191867182Y-100402711D01*
X191642175Y-100252367D01*
X191585984Y-100241190D01*
X191303500Y-100184999D01*
X191303495Y-100185000D01*
X187798548Y-100185000D01*
X187457746Y-99844197D01*
X187375107Y-99788980D01*
X187170631Y-99652354D01*
X187114440Y-99641177D01*
X186831956Y-99584986D01*
X186831951Y-99584987D01*
X182943505Y-99584987D01*
X182943500Y-99584986D01*
X182661016Y-99641177D01*
X182604825Y-99652354D01*
X182317710Y-99844197D01*
X182317708Y-99844200D01*
X182018407Y-100143500D01*
X181114987Y-100143500D01*
X180776312Y-100210867D01*
X180489197Y-100402710D01*
X180489195Y-100402713D01*
X179351407Y-101540500D01*
X174727286Y-101540500D01*
X174614656Y-101267914D01*
X174197283Y-100849812D01*
X174169443Y-100838252D01*
X174195086Y-100827656D01*
X174613188Y-100410283D01*
X174839742Y-99864681D01*
X174840204Y-99334375D01*
X175822287Y-98352292D01*
X175822290Y-98352290D01*
X176014133Y-98065175D01*
X176023119Y-98020000D01*
X176081501Y-97726500D01*
X176081500Y-97726495D01*
X176081500Y-97077080D01*
X176579079Y-96579500D01*
X193593495Y-96579500D01*
X193593500Y-96579501D01*
X193892625Y-96520000D01*
X193932175Y-96512133D01*
X194219290Y-96320290D01*
X194219291Y-96320289D01*
X195114834Y-95424745D01*
X195234943Y-95375117D01*
X195498192Y-95112327D01*
X195640838Y-94768799D01*
X195641162Y-94396833D01*
X195514688Y-94090740D01*
X196628964Y-94090740D01*
X196807760Y-94522417D01*
X197212424Y-94963966D01*
X197755258Y-95217046D01*
X197993000Y-95096997D01*
X197993000Y-93853000D01*
X196749622Y-93853000D01*
X196628964Y-94090740D01*
X195514688Y-94090740D01*
X195499117Y-94053057D01*
X195236327Y-93789808D01*
X194892799Y-93647162D01*
X194520833Y-93646838D01*
X194177057Y-93788883D01*
X193913808Y-94051673D01*
X193863434Y-94172987D01*
X193640702Y-94395719D01*
X193499117Y-94053057D01*
X193236327Y-93789808D01*
X192892799Y-93647162D01*
X192520833Y-93646838D01*
X192399431Y-93697000D01*
X190706579Y-93697000D01*
X190370840Y-93361260D01*
X196628964Y-93361260D01*
X196749622Y-93599000D01*
X197993000Y-93599000D01*
X197993000Y-92355003D01*
X197755258Y-92234954D01*
X197212424Y-92488034D01*
X196807760Y-92929583D01*
X196628964Y-93361260D01*
X190370840Y-93361260D01*
X188966790Y-91957210D01*
X188831093Y-91866541D01*
X188679675Y-91765367D01*
X188593819Y-91748289D01*
X188341000Y-91697999D01*
X188340995Y-91698000D01*
X175954500Y-91698000D01*
X175954500Y-91122505D01*
X175954501Y-91122500D01*
X175887133Y-90783825D01*
X175823335Y-90688344D01*
X175695290Y-90496710D01*
X175695287Y-90496708D01*
X174839797Y-89641218D01*
X174840257Y-89113911D01*
X174614656Y-88567914D01*
X174197283Y-88149812D01*
X174169443Y-88138252D01*
X174195086Y-88127656D01*
X174613188Y-87710283D01*
X174839742Y-87164681D01*
X174840257Y-86573911D01*
X174614656Y-86027914D01*
X174197283Y-85609812D01*
X174169443Y-85598252D01*
X174195086Y-85587656D01*
X174613188Y-85170283D01*
X174839742Y-84624681D01*
X174840125Y-84184740D01*
X196628964Y-84184740D01*
X196807760Y-84616417D01*
X197212424Y-85057966D01*
X197755258Y-85311046D01*
X197993000Y-85190997D01*
X197993000Y-83947000D01*
X196749622Y-83947000D01*
X196628964Y-84184740D01*
X174840125Y-84184740D01*
X174840257Y-84033911D01*
X174614656Y-83487914D01*
X174582059Y-83455260D01*
X196628964Y-83455260D01*
X196749622Y-83693000D01*
X197993000Y-83693000D01*
X197993000Y-82449003D01*
X197755258Y-82328954D01*
X197212424Y-82582034D01*
X196807760Y-83023583D01*
X196628964Y-83455260D01*
X174582059Y-83455260D01*
X174197283Y-83069812D01*
X174169443Y-83058252D01*
X174195086Y-83047656D01*
X174613188Y-82630283D01*
X174839742Y-82084681D01*
X174840257Y-81493911D01*
X174614656Y-80947914D01*
X174197283Y-80529812D01*
X174169443Y-80518252D01*
X174195086Y-80507656D01*
X174613188Y-80090283D01*
X174839742Y-79544681D01*
X174840257Y-78953911D01*
X174614656Y-78407914D01*
X174197283Y-77989812D01*
X174169443Y-77978252D01*
X174195086Y-77967656D01*
X174613188Y-77550283D01*
X174839742Y-77004681D01*
X174840257Y-76413911D01*
X174614656Y-75867914D01*
X174197283Y-75449812D01*
X174149688Y-75430049D01*
X174219353Y-75211958D01*
X173355000Y-74347605D01*
X172490647Y-75211958D01*
X172560181Y-75429640D01*
X172514914Y-75448344D01*
X172096812Y-75865717D01*
X171870258Y-76411319D01*
X171869743Y-77002089D01*
X172095344Y-77548086D01*
X172512717Y-77966188D01*
X172540557Y-77977748D01*
X172514914Y-77988344D01*
X172096812Y-78405717D01*
X171870258Y-78951319D01*
X171869743Y-79542089D01*
X172095344Y-80088086D01*
X172512717Y-80506188D01*
X172540557Y-80517748D01*
X172514914Y-80528344D01*
X172096812Y-80945717D01*
X171870258Y-81491319D01*
X171869743Y-82082089D01*
X172095344Y-82628086D01*
X172512717Y-83046188D01*
X172540557Y-83057748D01*
X172514914Y-83068344D01*
X172096812Y-83485717D01*
X171870258Y-84031319D01*
X171869743Y-84622089D01*
X172095344Y-85168086D01*
X172512717Y-85586188D01*
X172540557Y-85597748D01*
X172514914Y-85608344D01*
X172096812Y-86025717D01*
X171870258Y-86571319D01*
X171869743Y-87162089D01*
X172095344Y-87708086D01*
X172512717Y-88126188D01*
X172540557Y-88137748D01*
X172514914Y-88148344D01*
X172096812Y-88565717D01*
X171870258Y-89111319D01*
X171869743Y-89702089D01*
X172095344Y-90248086D01*
X172512717Y-90666188D01*
X172540557Y-90677748D01*
X172514914Y-90688344D01*
X172096812Y-91105717D01*
X171870258Y-91651319D01*
X171869743Y-92242089D01*
X172095344Y-92788086D01*
X172512717Y-93206188D01*
X172540557Y-93217748D01*
X172514914Y-93228344D01*
X172096812Y-93645717D01*
X171870258Y-94191319D01*
X171869743Y-94782089D01*
X172095344Y-95328086D01*
X172512717Y-95746188D01*
X172540557Y-95757748D01*
X172514914Y-95768344D01*
X172096812Y-96185717D01*
X171870258Y-96731319D01*
X171869743Y-97322089D01*
X172095344Y-97868086D01*
X172512717Y-98286188D01*
X172540557Y-98297748D01*
X172514914Y-98308344D01*
X172096812Y-98725717D01*
X171870258Y-99271319D01*
X171869743Y-99862089D01*
X172095344Y-100408086D01*
X172512717Y-100826188D01*
X172540557Y-100837748D01*
X172514914Y-100848344D01*
X172096812Y-101265717D01*
X171870258Y-101811319D01*
X171869743Y-102402089D01*
X171907307Y-102493000D01*
X171308579Y-102493000D01*
X170297790Y-101482210D01*
X170161369Y-101391057D01*
X170010675Y-101290367D01*
X169954484Y-101279190D01*
X169672000Y-101222999D01*
X169671995Y-101223000D01*
X161603500Y-101223000D01*
X161603500Y-85471005D01*
X161603501Y-85471000D01*
X161536133Y-85132326D01*
X161536133Y-85132325D01*
X161344290Y-84845210D01*
X161344287Y-84845208D01*
X160714500Y-84215420D01*
X160714500Y-83502505D01*
X160714501Y-83502500D01*
X160647133Y-83163825D01*
X160455290Y-82876710D01*
X160455287Y-82876708D01*
X159599797Y-82021218D01*
X159600257Y-81493911D01*
X159374656Y-80947914D01*
X158957283Y-80529812D01*
X158929443Y-80518252D01*
X158955086Y-80507656D01*
X159373188Y-80090283D01*
X159599742Y-79544681D01*
X159600257Y-78953911D01*
X159374656Y-78407914D01*
X158957283Y-77989812D01*
X158929443Y-77978252D01*
X158955086Y-77967656D01*
X159373188Y-77550283D01*
X159599742Y-77004681D01*
X159600257Y-76413911D01*
X159374656Y-75867914D01*
X158957283Y-75449812D01*
X158929443Y-75438252D01*
X158955086Y-75427656D01*
X159373188Y-75010283D01*
X159599742Y-74464681D01*
X159600200Y-73939279D01*
X171858282Y-73939279D01*
X171884685Y-74529458D01*
X172059741Y-74952080D01*
X172311042Y-75032353D01*
X173175395Y-74168000D01*
X173534605Y-74168000D01*
X174398958Y-75032353D01*
X174650259Y-74952080D01*
X174851718Y-74396721D01*
X174835077Y-74024740D01*
X196628964Y-74024740D01*
X196807760Y-74456417D01*
X197212424Y-74897966D01*
X197755258Y-75151046D01*
X197993000Y-75030997D01*
X197993000Y-73787000D01*
X196749622Y-73787000D01*
X196628964Y-74024740D01*
X174835077Y-74024740D01*
X174825315Y-73806542D01*
X174650259Y-73383920D01*
X174398958Y-73303647D01*
X173534605Y-74168000D01*
X173175395Y-74168000D01*
X172311042Y-73303647D01*
X172059741Y-73383920D01*
X171858282Y-73939279D01*
X159600200Y-73939279D01*
X159600257Y-73873911D01*
X159374656Y-73327914D01*
X158957283Y-72909812D01*
X158929443Y-72898252D01*
X158955086Y-72887656D01*
X159171160Y-72671958D01*
X172490647Y-72671958D01*
X172562852Y-72898000D01*
X172490647Y-73124042D01*
X173355000Y-73988395D01*
X174219353Y-73124042D01*
X174147148Y-72898000D01*
X174219353Y-72671958D01*
X173355000Y-71807605D01*
X172490647Y-72671958D01*
X159171160Y-72671958D01*
X159373188Y-72470283D01*
X159599742Y-71924681D01*
X159600200Y-71399279D01*
X171858282Y-71399279D01*
X171884685Y-71989458D01*
X172059741Y-72412080D01*
X172311042Y-72492353D01*
X173175395Y-71628000D01*
X173534605Y-71628000D01*
X174398958Y-72492353D01*
X174650259Y-72412080D01*
X174851718Y-71856721D01*
X174825315Y-71266542D01*
X174780770Y-71159000D01*
X190971060Y-71159000D01*
X190971060Y-72859000D01*
X191015338Y-73094317D01*
X191154410Y-73310441D01*
X191366610Y-73455431D01*
X191618500Y-73506440D01*
X193318500Y-73506440D01*
X193553817Y-73462162D01*
X193769941Y-73323090D01*
X193788956Y-73295260D01*
X196628964Y-73295260D01*
X196749622Y-73533000D01*
X197993000Y-73533000D01*
X197993000Y-72289003D01*
X197755258Y-72168954D01*
X197212424Y-72422034D01*
X196807760Y-72863583D01*
X196628964Y-73295260D01*
X193788956Y-73295260D01*
X193914931Y-73110890D01*
X193965940Y-72859000D01*
X193965940Y-71542815D01*
X213764630Y-71542815D01*
X214088980Y-72327800D01*
X214689041Y-72928909D01*
X215473459Y-73254628D01*
X216322815Y-73255370D01*
X217107800Y-72931020D01*
X217708909Y-72330959D01*
X218034628Y-71546541D01*
X218035370Y-70697185D01*
X217711020Y-69912200D01*
X217110959Y-69311091D01*
X216326541Y-68985372D01*
X215477185Y-68984630D01*
X214692200Y-69308980D01*
X214091091Y-69909041D01*
X213765372Y-70693459D01*
X213764630Y-71542815D01*
X193965940Y-71542815D01*
X193965940Y-71159000D01*
X193921662Y-70923683D01*
X193782590Y-70707559D01*
X193570390Y-70562569D01*
X193318500Y-70511560D01*
X191618500Y-70511560D01*
X191383183Y-70555838D01*
X191167059Y-70694910D01*
X191022069Y-70907110D01*
X190971060Y-71159000D01*
X174780770Y-71159000D01*
X174650259Y-70843920D01*
X174398958Y-70763647D01*
X173534605Y-71628000D01*
X173175395Y-71628000D01*
X172311042Y-70763647D01*
X172059741Y-70843920D01*
X171858282Y-71399279D01*
X159600200Y-71399279D01*
X159600257Y-71333911D01*
X159374656Y-70787914D01*
X159171140Y-70584042D01*
X172490647Y-70584042D01*
X173355000Y-71448395D01*
X174219353Y-70584042D01*
X174139080Y-70332741D01*
X173583721Y-70131282D01*
X172993542Y-70157685D01*
X172570920Y-70332741D01*
X172490647Y-70584042D01*
X159171140Y-70584042D01*
X158957283Y-70369812D01*
X158411681Y-70143258D01*
X157820911Y-70142743D01*
X157274914Y-70368344D01*
X156856812Y-70785717D01*
X156630258Y-71331319D01*
X156629743Y-71922089D01*
X156855344Y-72468086D01*
X157272717Y-72886188D01*
X157300557Y-72897748D01*
X157274914Y-72908344D01*
X156856812Y-73325717D01*
X156630258Y-73871319D01*
X156629743Y-74462089D01*
X156855344Y-75008086D01*
X157272717Y-75426188D01*
X157300557Y-75437748D01*
X157274914Y-75448344D01*
X156856812Y-75865717D01*
X156630258Y-76411319D01*
X156629743Y-77002089D01*
X156855344Y-77548086D01*
X157272717Y-77966188D01*
X157300557Y-77977748D01*
X157274914Y-77988344D01*
X156856812Y-78405717D01*
X156630258Y-78951319D01*
X156629743Y-79542089D01*
X156855344Y-80088086D01*
X157272717Y-80506188D01*
X157300557Y-80517748D01*
X157274914Y-80528344D01*
X156856812Y-80945717D01*
X156630258Y-81491319D01*
X156629743Y-82082089D01*
X156855344Y-82628086D01*
X157272717Y-83046188D01*
X157300557Y-83057748D01*
X157274914Y-83068344D01*
X156856812Y-83485717D01*
X156630258Y-84031319D01*
X156629743Y-84622089D01*
X156855344Y-85168086D01*
X157272717Y-85586188D01*
X157300557Y-85597748D01*
X157274914Y-85608344D01*
X156856812Y-86025717D01*
X156630258Y-86571319D01*
X156629743Y-87162089D01*
X156855344Y-87708086D01*
X157272717Y-88126188D01*
X157300557Y-88137748D01*
X157274914Y-88148344D01*
X156856812Y-88565717D01*
X156630258Y-89111319D01*
X156629743Y-89702089D01*
X156855344Y-90248086D01*
X157272717Y-90666188D01*
X157300557Y-90677748D01*
X157274914Y-90688344D01*
X156856812Y-91105717D01*
X156630258Y-91651319D01*
X156629743Y-92242089D01*
X156855344Y-92788086D01*
X157272717Y-93206188D01*
X157300557Y-93217748D01*
X157274914Y-93228344D01*
X156856812Y-93645717D01*
X156630258Y-94191319D01*
X156629743Y-94782089D01*
X156855344Y-95328086D01*
X157272717Y-95746188D01*
X157300557Y-95757748D01*
X157274914Y-95768344D01*
X156856812Y-96185717D01*
X156630258Y-96731319D01*
X156629743Y-97322089D01*
X156855344Y-97868086D01*
X157272717Y-98286188D01*
X157300557Y-98297748D01*
X157274914Y-98308344D01*
X156856812Y-98725717D01*
X156630258Y-99271319D01*
X156629743Y-99862089D01*
X156855344Y-100408086D01*
X157272717Y-100826188D01*
X157300557Y-100837748D01*
X157274914Y-100848344D01*
X156856812Y-101265717D01*
X156630258Y-101811319D01*
X156629743Y-102402089D01*
X156855344Y-102948086D01*
X157272717Y-103366188D01*
X157300557Y-103377748D01*
X157274914Y-103388344D01*
X156856812Y-103805717D01*
X156630258Y-104351319D01*
X156629743Y-104942089D01*
X156855344Y-105488086D01*
X157272717Y-105906188D01*
X157300557Y-105917748D01*
X157274914Y-105928344D01*
X156856812Y-106345717D01*
X156630258Y-106891319D01*
X156629743Y-107482089D01*
X156855344Y-108028086D01*
X157272717Y-108446188D01*
X157300557Y-108457748D01*
X157274914Y-108468344D01*
X156856812Y-108885717D01*
X156630258Y-109431319D01*
X156629743Y-110022089D01*
X156855344Y-110568086D01*
X157272717Y-110986188D01*
X157300557Y-110997748D01*
X157274914Y-111008344D01*
X156856812Y-111425717D01*
X156630258Y-111971319D01*
X156629743Y-112562089D01*
X156855344Y-113108086D01*
X157272717Y-113526188D01*
X157300557Y-113537748D01*
X157274914Y-113548344D01*
X156856812Y-113965717D01*
X156630258Y-114511319D01*
X156629743Y-115102089D01*
X156855344Y-115648086D01*
X157272717Y-116066188D01*
X157320312Y-116085951D01*
X157250647Y-116304042D01*
X158115000Y-117168395D01*
X158979353Y-116304042D01*
X158909819Y-116086360D01*
X158955086Y-116067656D01*
X159373188Y-115650283D01*
X159599742Y-115104681D01*
X159600257Y-114513911D01*
X159374656Y-113967914D01*
X158957283Y-113549812D01*
X158929443Y-113538252D01*
X158955086Y-113527656D01*
X159373188Y-113110283D01*
X159599742Y-112564681D01*
X159600257Y-111973911D01*
X159374656Y-111427914D01*
X158957283Y-111009812D01*
X158929443Y-110998252D01*
X158955086Y-110987656D01*
X159373188Y-110570283D01*
X159599742Y-110024681D01*
X159600257Y-109433911D01*
X159374656Y-108887914D01*
X158957283Y-108469812D01*
X158929443Y-108458252D01*
X158955086Y-108447656D01*
X159373188Y-108030283D01*
X159599742Y-107484681D01*
X159600204Y-106954375D01*
X160069079Y-106485500D01*
X167717920Y-106485500D01*
X168533000Y-107300579D01*
X168533000Y-110680495D01*
X168532999Y-110680500D01*
X168560786Y-110820190D01*
X168600367Y-111019175D01*
X168780550Y-111288839D01*
X168792210Y-111306290D01*
X170120500Y-112634579D01*
X170120500Y-113664995D01*
X170120499Y-113665000D01*
X170169192Y-113909790D01*
X170187867Y-114003675D01*
X170261050Y-114113201D01*
X170379710Y-114290790D01*
X171073000Y-114984079D01*
X171073000Y-116014495D01*
X171072999Y-116014500D01*
X171129190Y-116296984D01*
X171140367Y-116353175D01*
X171324216Y-116628326D01*
X171332210Y-116640290D01*
X171459210Y-116767289D01*
X171746325Y-116959133D01*
X171896161Y-116988938D01*
X171870258Y-117051319D01*
X171869743Y-117642089D01*
X172095344Y-118188086D01*
X172330283Y-118423435D01*
X172269683Y-118434838D01*
X172067602Y-118564873D01*
X172067662Y-118496333D01*
X171925617Y-118152557D01*
X171662827Y-117889308D01*
X171319299Y-117746662D01*
X170947333Y-117746338D01*
X170655957Y-117866732D01*
X170366799Y-117746662D01*
X169994833Y-117746338D01*
X169651057Y-117888383D01*
X169387808Y-118151173D01*
X169245162Y-118494701D01*
X169244838Y-118866667D01*
X169295000Y-118988069D01*
X169295000Y-123585421D01*
X164048959Y-128831461D01*
X163830000Y-128787907D01*
X163261715Y-128900946D01*
X162779946Y-129222853D01*
X162560000Y-129552026D01*
X162340054Y-129222853D01*
X162175000Y-129112568D01*
X162175000Y-120949942D01*
X162427667Y-120950162D01*
X162771443Y-120808117D01*
X163034692Y-120545327D01*
X163177338Y-120201799D01*
X163177516Y-119997485D01*
X163380167Y-119997662D01*
X163723943Y-119855617D01*
X163987192Y-119592827D01*
X164129838Y-119249299D01*
X164130162Y-118877333D01*
X164080000Y-118755931D01*
X164080000Y-110161822D01*
X164129838Y-110041799D01*
X164130162Y-109669833D01*
X163988117Y-109326057D01*
X163725327Y-109062808D01*
X163381799Y-108920162D01*
X163009833Y-108919838D01*
X162718457Y-109040232D01*
X162429299Y-108920162D01*
X162057333Y-108919838D01*
X161765957Y-109040232D01*
X161476799Y-108920162D01*
X161104833Y-108919838D01*
X160761057Y-109061883D01*
X160497808Y-109324673D01*
X160355162Y-109668201D01*
X160354838Y-110040167D01*
X160405000Y-110161569D01*
X160405000Y-129112568D01*
X160239946Y-129222853D01*
X160020000Y-129552026D01*
X159800054Y-129222853D01*
X159318285Y-128900946D01*
X158750000Y-128787907D01*
X158181715Y-128900946D01*
X157699946Y-129222853D01*
X157672150Y-129264452D01*
X157663162Y-129216683D01*
X157524090Y-129000559D01*
X157311890Y-128855569D01*
X157060000Y-128804560D01*
X155380500Y-128804560D01*
X155380500Y-125224080D01*
X158740787Y-121863792D01*
X158740790Y-121863790D01*
X158932633Y-121576675D01*
X158943810Y-121520484D01*
X158970893Y-121384331D01*
X159200317Y-121341162D01*
X159416441Y-121202090D01*
X159561431Y-120989890D01*
X159612440Y-120738000D01*
X159612440Y-119038000D01*
X159568162Y-118802683D01*
X159429090Y-118586559D01*
X159216890Y-118441569D01*
X158978900Y-118393375D01*
X158979353Y-118391958D01*
X158115000Y-117527605D01*
X157250647Y-118391958D01*
X157251040Y-118393187D01*
X157029683Y-118434838D01*
X156813559Y-118573910D01*
X156668569Y-118786110D01*
X156617560Y-119038000D01*
X156617560Y-120738000D01*
X156661838Y-120973317D01*
X156800910Y-121189441D01*
X156866895Y-121234526D01*
X153869710Y-124231710D01*
X153677867Y-124518825D01*
X153677867Y-124518826D01*
X153610499Y-124857500D01*
X153610500Y-124857505D01*
X153610500Y-131097497D01*
X153610499Y-131097502D01*
X153663910Y-131366009D01*
X153677867Y-131436177D01*
X153869710Y-131723292D01*
X154024418Y-131878000D01*
X152856000Y-131878000D01*
X152856000Y-117119279D01*
X156618282Y-117119279D01*
X156644685Y-117709458D01*
X156819741Y-118132080D01*
X157071042Y-118212353D01*
X157935395Y-117348000D01*
X158294605Y-117348000D01*
X159158958Y-118212353D01*
X159410259Y-118132080D01*
X159611718Y-117576721D01*
X159585315Y-116986542D01*
X159410259Y-116563920D01*
X159158958Y-116483647D01*
X158294605Y-117348000D01*
X157935395Y-117348000D01*
X157071042Y-116483647D01*
X156819741Y-116563920D01*
X156618282Y-117119279D01*
X152856000Y-117119279D01*
X152856000Y-68782000D01*
X184329317Y-68782000D01*
X184389653Y-69085328D01*
G36*
X170314867Y-125243175D02*
X170369649Y-125325162D01*
X170506710Y-125530290D01*
X170824208Y-125847787D01*
X170824210Y-125847790D01*
X173801769Y-128825348D01*
X173421715Y-128900946D01*
X172939946Y-129222853D01*
X172912150Y-129264452D01*
X172903162Y-129216683D01*
X172764090Y-129000559D01*
X172551890Y-128855569D01*
X172300000Y-128804560D01*
X170600000Y-128804560D01*
X170364683Y-128848838D01*
X170148559Y-128987910D01*
X170003569Y-129200110D01*
X169952560Y-129452000D01*
X169952560Y-130717001D01*
X167784196Y-130717001D01*
X167811486Y-130658892D01*
X167690819Y-130429000D01*
X166497000Y-130429000D01*
X166497000Y-130449000D01*
X166243000Y-130449000D01*
X166243000Y-130429000D01*
X166223000Y-130429000D01*
X166223000Y-130175000D01*
X166243000Y-130175000D01*
X166243000Y-130155000D01*
X166497000Y-130155000D01*
X166497000Y-130175000D01*
X167690819Y-130175000D01*
X167811486Y-129945108D01*
X167565183Y-129420642D01*
X167136924Y-129030355D01*
X166726890Y-128860524D01*
X166497002Y-128981844D01*
X166497002Y-128886578D01*
X170285922Y-125097657D01*
X170314867Y-125243175D01*
X170314867Y-125243175D01*
G37*
X170314867Y-125243175D02*
X170369649Y-125325162D01*
X170506710Y-125530290D01*
X170824208Y-125847787D01*
X170824210Y-125847790D01*
X173801769Y-128825348D01*
X173421715Y-128900946D01*
X172939946Y-129222853D01*
X172912150Y-129264452D01*
X172903162Y-129216683D01*
X172764090Y-129000559D01*
X172551890Y-128855569D01*
X172300000Y-128804560D01*
X170600000Y-128804560D01*
X170364683Y-128848838D01*
X170148559Y-128987910D01*
X170003569Y-129200110D01*
X169952560Y-129452000D01*
X169952560Y-130717001D01*
X167784196Y-130717001D01*
X167811486Y-130658892D01*
X167690819Y-130429000D01*
X166497000Y-130429000D01*
X166497000Y-130449000D01*
X166243000Y-130449000D01*
X166243000Y-130429000D01*
X166223000Y-130429000D01*
X166223000Y-130175000D01*
X166243000Y-130175000D01*
X166243000Y-130155000D01*
X166497000Y-130155000D01*
X166497000Y-130175000D01*
X167690819Y-130175000D01*
X167811486Y-129945108D01*
X167565183Y-129420642D01*
X167136924Y-129030355D01*
X166726890Y-128860524D01*
X166497002Y-128981844D01*
X166497002Y-128886578D01*
X170285922Y-125097657D01*
X170314867Y-125243175D01*
M02*
