G04 #@! TF.FileFunction,Soldermask,Top*
%FSLAX46Y46*%
G04 Gerber Fmt 4.6, Leading zero omitted, Abs format (unit mm)*
G04 Created by KiCad (PCBNEW 4.0.7) date 08/30/18 09:04:44*
%MOMM*%
%LPD*%
G01*
G04 APERTURE LIST*
%ADD10C,0.100000*%
%ADD11R,2.200000X2.200000*%
%ADD12O,2.200000X2.200000*%
%ADD13R,1.000000X1.950000*%
%ADD14R,1.600000X2.924000*%
%ADD15R,1.650000X1.400000*%
%ADD16R,1.400000X1.650000*%
%ADD17R,2.200000X2.900000*%
%ADD18R,3.400000X3.400000*%
%ADD19C,3.400000*%
%ADD20R,2.100000X2.100000*%
%ADD21O,2.100000X2.100000*%
%ADD22R,1.700000X1.100000*%
%ADD23R,2.100000X1.300000*%
%ADD24O,1.300000X1.900000*%
%ADD25R,1.300000X1.900000*%
%ADD26R,1.800000X1.800000*%
%ADD27C,1.800000*%
%ADD28R,2.400000X2.400000*%
%ADD29R,4.200000X2.400000*%
%ADD30R,1.900000X2.400000*%
%ADD31C,2.100000*%
G04 APERTURE END LIST*
D10*
D11*
X203200000Y-73660000D03*
D12*
X200660000Y-73660000D03*
X198120000Y-73660000D03*
D11*
X203200000Y-83820000D03*
D12*
X200660000Y-83820000D03*
X198120000Y-83820000D03*
D11*
X203200000Y-93726000D03*
D12*
X200660000Y-93726000D03*
X198120000Y-93726000D03*
D11*
X203327000Y-104140000D03*
D12*
X200787000Y-104140000D03*
X198247000Y-104140000D03*
D11*
X203708000Y-113919000D03*
D12*
X201168000Y-113919000D03*
X198628000Y-113919000D03*
D13*
X185293000Y-110584000D03*
X184023000Y-110584000D03*
X182753000Y-110584000D03*
X181483000Y-110584000D03*
X181483000Y-115984000D03*
X182753000Y-115984000D03*
X184023000Y-115984000D03*
X185293000Y-115984000D03*
D14*
X180706000Y-94582000D03*
X182706000Y-94582000D03*
X184706000Y-94582000D03*
X186706000Y-94582000D03*
X188706000Y-94582000D03*
X190706000Y-94582000D03*
X192706000Y-94582000D03*
X194706000Y-94582000D03*
X188706000Y-75582000D03*
X186206000Y-75582000D03*
X191206000Y-75582000D03*
D15*
X165862000Y-123968000D03*
X165862000Y-125968000D03*
X180848000Y-123968000D03*
X180848000Y-125968000D03*
D16*
X180610000Y-98552000D03*
X182610000Y-98552000D03*
D17*
X207264000Y-116046000D03*
X207264000Y-112046000D03*
X207010000Y-95726000D03*
X207010000Y-91726000D03*
X207010000Y-75660000D03*
X207010000Y-71660000D03*
X207010000Y-106140000D03*
X207010000Y-102140000D03*
X207010000Y-85820000D03*
X207010000Y-81820000D03*
D18*
X215900000Y-129540000D03*
D19*
X215900000Y-124460000D03*
D20*
X156210000Y-130302000D03*
D21*
X158750000Y-130302000D03*
X161290000Y-130302000D03*
X163830000Y-130302000D03*
X166370000Y-130302000D03*
D20*
X171450000Y-130302000D03*
D21*
X173990000Y-130302000D03*
X176530000Y-130302000D03*
X179070000Y-130302000D03*
X181610000Y-130302000D03*
D18*
X215900000Y-116840000D03*
D19*
X215900000Y-111760000D03*
D18*
X215900000Y-96520000D03*
D19*
X215900000Y-91440000D03*
D18*
X215900000Y-76200000D03*
D19*
X215900000Y-71120000D03*
D20*
X192468500Y-72009000D03*
D18*
X215900000Y-106680000D03*
D19*
X215900000Y-101600000D03*
D18*
X215900000Y-86360000D03*
D19*
X215900000Y-81280000D03*
D13*
X199263000Y-116746000D03*
X200533000Y-116746000D03*
X201803000Y-116746000D03*
X203073000Y-116746000D03*
X203073000Y-111346000D03*
X201803000Y-111346000D03*
X200533000Y-111346000D03*
X199263000Y-111346000D03*
X198755000Y-96426000D03*
X200025000Y-96426000D03*
X201295000Y-96426000D03*
X202565000Y-96426000D03*
X202565000Y-91026000D03*
X201295000Y-91026000D03*
X200025000Y-91026000D03*
X198755000Y-91026000D03*
X198755000Y-76360000D03*
X200025000Y-76360000D03*
X201295000Y-76360000D03*
X202565000Y-76360000D03*
X202565000Y-70960000D03*
X201295000Y-70960000D03*
X200025000Y-70960000D03*
X198755000Y-70960000D03*
X199009000Y-106840000D03*
X200279000Y-106840000D03*
X201549000Y-106840000D03*
X202819000Y-106840000D03*
X202819000Y-101440000D03*
X201549000Y-101440000D03*
X200279000Y-101440000D03*
X199009000Y-101440000D03*
X198755000Y-86520000D03*
X200025000Y-86520000D03*
X201295000Y-86520000D03*
X202565000Y-86520000D03*
X202565000Y-81120000D03*
X201295000Y-81120000D03*
X200025000Y-81120000D03*
X198755000Y-81120000D03*
D22*
X159258000Y-124018000D03*
X159258000Y-125918000D03*
X162560000Y-124018000D03*
X162560000Y-125918000D03*
X177800000Y-124018000D03*
X177800000Y-125918000D03*
X181610000Y-120838000D03*
X181610000Y-118938000D03*
X195326000Y-112710000D03*
X195326000Y-110810000D03*
X190754000Y-103820000D03*
X190754000Y-101920000D03*
X181610000Y-103820000D03*
X181610000Y-101920000D03*
X195326000Y-116520000D03*
X195326000Y-114620000D03*
X190754000Y-107630000D03*
X190754000Y-105730000D03*
X181610000Y-107630000D03*
X181610000Y-105730000D03*
X195326000Y-103820000D03*
X195326000Y-101920000D03*
X186182000Y-103820000D03*
X186182000Y-101920000D03*
X195326000Y-107630000D03*
X195326000Y-105730000D03*
X186182000Y-107630000D03*
X186182000Y-105730000D03*
D23*
X181610000Y-74090000D03*
X181610000Y-70690000D03*
D24*
X189865000Y-111696500D03*
X188595000Y-111696500D03*
D25*
X191135000Y-111696500D03*
D15*
X156210000Y-125968000D03*
X156210000Y-123968000D03*
X171704000Y-125968000D03*
X171704000Y-123968000D03*
D26*
X187198000Y-124022000D03*
D27*
X187198000Y-126422000D03*
D22*
X174752000Y-124018000D03*
X174752000Y-125918000D03*
X185420000Y-120838000D03*
X185420000Y-118938000D03*
X189230000Y-120838000D03*
X189230000Y-118938000D03*
D28*
X208406000Y-120476000D03*
X208406000Y-130476000D03*
X192406000Y-120476000D03*
X192406000Y-130476000D03*
D15*
X205613000Y-120539000D03*
X205613000Y-122539000D03*
X195199000Y-120539000D03*
X195199000Y-122539000D03*
D29*
X200533000Y-126848000D03*
D30*
X200533000Y-120548000D03*
X198233000Y-120548000D03*
X202833000Y-120548000D03*
D20*
X158115000Y-119888000D03*
D31*
X158115000Y-117348000D03*
X158115000Y-114808000D03*
X158115000Y-112268000D03*
X158115000Y-109728000D03*
X158115000Y-107188000D03*
X158115000Y-104648000D03*
X158115000Y-102108000D03*
X158115000Y-99568000D03*
X158115000Y-97028000D03*
X158115000Y-94488000D03*
X158115000Y-91948000D03*
X158115000Y-89408000D03*
X158115000Y-86868000D03*
X158115000Y-84328000D03*
X158115000Y-81788000D03*
X158115000Y-79248000D03*
X158115000Y-76708000D03*
X158115000Y-74168000D03*
X158115000Y-71628000D03*
X173355000Y-71628000D03*
X173355000Y-74168000D03*
X173355000Y-76708000D03*
X173355000Y-79248000D03*
X173355000Y-81788000D03*
X173355000Y-84328000D03*
X173355000Y-86868000D03*
X173355000Y-89408000D03*
X173355000Y-91948000D03*
X173355000Y-94488000D03*
X173355000Y-97028000D03*
X173355000Y-99568000D03*
X173355000Y-102108000D03*
X173355000Y-104648000D03*
X173355000Y-107188000D03*
X173355000Y-109728000D03*
X173355000Y-112268000D03*
X173355000Y-114808000D03*
X173355000Y-117348000D03*
D20*
X173355000Y-119888000D03*
D16*
X187849000Y-116395500D03*
X189849000Y-116395500D03*
M02*
