G04 #@! TF.FileFunction,Paste,Top*
%FSLAX46Y46*%
G04 Gerber Fmt 4.6, Leading zero omitted, Abs format (unit mm)*
G04 Created by KiCad (PCBNEW 4.0.7) date 08/30/18 09:04:44*
%MOMM*%
%LPD*%
G01*
G04 APERTURE LIST*
%ADD10C,0.100000*%
%ADD11R,0.600000X1.550000*%
%ADD12R,1.200000X2.524000*%
%ADD13R,1.250000X1.000000*%
%ADD14R,1.000000X1.250000*%
%ADD15R,1.800000X2.500000*%
%ADD16R,1.300000X0.700000*%
%ADD17R,1.700000X0.900000*%
%ADD18R,2.000000X2.000000*%
%ADD19R,3.800000X2.000000*%
%ADD20R,1.500000X2.000000*%
G04 APERTURE END LIST*
D10*
D11*
X185293000Y-110584000D03*
X184023000Y-110584000D03*
X182753000Y-110584000D03*
X181483000Y-110584000D03*
X181483000Y-115984000D03*
X182753000Y-115984000D03*
X184023000Y-115984000D03*
X185293000Y-115984000D03*
D12*
X180706000Y-94582000D03*
X182706000Y-94582000D03*
X184706000Y-94582000D03*
X186706000Y-94582000D03*
X188706000Y-94582000D03*
X190706000Y-94582000D03*
X192706000Y-94582000D03*
X194706000Y-94582000D03*
X188706000Y-75582000D03*
X186206000Y-75582000D03*
X191206000Y-75582000D03*
D13*
X165862000Y-123968000D03*
X165862000Y-125968000D03*
X180848000Y-123968000D03*
X180848000Y-125968000D03*
D14*
X180610000Y-98552000D03*
X182610000Y-98552000D03*
D15*
X207264000Y-116046000D03*
X207264000Y-112046000D03*
X207010000Y-95726000D03*
X207010000Y-91726000D03*
X207010000Y-75660000D03*
X207010000Y-71660000D03*
X207010000Y-106140000D03*
X207010000Y-102140000D03*
X207010000Y-85820000D03*
X207010000Y-81820000D03*
D11*
X199263000Y-116746000D03*
X200533000Y-116746000D03*
X201803000Y-116746000D03*
X203073000Y-116746000D03*
X203073000Y-111346000D03*
X201803000Y-111346000D03*
X200533000Y-111346000D03*
X199263000Y-111346000D03*
X198755000Y-96426000D03*
X200025000Y-96426000D03*
X201295000Y-96426000D03*
X202565000Y-96426000D03*
X202565000Y-91026000D03*
X201295000Y-91026000D03*
X200025000Y-91026000D03*
X198755000Y-91026000D03*
X198755000Y-76360000D03*
X200025000Y-76360000D03*
X201295000Y-76360000D03*
X202565000Y-76360000D03*
X202565000Y-70960000D03*
X201295000Y-70960000D03*
X200025000Y-70960000D03*
X198755000Y-70960000D03*
X199009000Y-106840000D03*
X200279000Y-106840000D03*
X201549000Y-106840000D03*
X202819000Y-106840000D03*
X202819000Y-101440000D03*
X201549000Y-101440000D03*
X200279000Y-101440000D03*
X199009000Y-101440000D03*
X198755000Y-86520000D03*
X200025000Y-86520000D03*
X201295000Y-86520000D03*
X202565000Y-86520000D03*
X202565000Y-81120000D03*
X201295000Y-81120000D03*
X200025000Y-81120000D03*
X198755000Y-81120000D03*
D16*
X159258000Y-124018000D03*
X159258000Y-125918000D03*
X162560000Y-124018000D03*
X162560000Y-125918000D03*
X177800000Y-124018000D03*
X177800000Y-125918000D03*
X181610000Y-120838000D03*
X181610000Y-118938000D03*
X195326000Y-112710000D03*
X195326000Y-110810000D03*
X190754000Y-103820000D03*
X190754000Y-101920000D03*
X181610000Y-103820000D03*
X181610000Y-101920000D03*
X195326000Y-116520000D03*
X195326000Y-114620000D03*
X190754000Y-107630000D03*
X190754000Y-105730000D03*
X181610000Y-107630000D03*
X181610000Y-105730000D03*
X195326000Y-103820000D03*
X195326000Y-101920000D03*
X186182000Y-103820000D03*
X186182000Y-101920000D03*
X195326000Y-107630000D03*
X195326000Y-105730000D03*
X186182000Y-107630000D03*
X186182000Y-105730000D03*
D17*
X181610000Y-74090000D03*
X181610000Y-70690000D03*
D13*
X156210000Y-125968000D03*
X156210000Y-123968000D03*
X171704000Y-125968000D03*
X171704000Y-123968000D03*
D16*
X174752000Y-124018000D03*
X174752000Y-125918000D03*
X185420000Y-120838000D03*
X185420000Y-118938000D03*
X189230000Y-120838000D03*
X189230000Y-118938000D03*
D18*
X208406000Y-120476000D03*
X208406000Y-130476000D03*
X192406000Y-120476000D03*
X192406000Y-130476000D03*
D13*
X205613000Y-120539000D03*
X205613000Y-122539000D03*
X195199000Y-120539000D03*
X195199000Y-122539000D03*
D19*
X200533000Y-126848000D03*
D20*
X200533000Y-120548000D03*
X198233000Y-120548000D03*
X202833000Y-120548000D03*
D14*
X187849000Y-116395500D03*
X189849000Y-116395500D03*
M02*
