G04 #@! TF.FileFunction,Legend,Top*
%FSLAX46Y46*%
G04 Gerber Fmt 4.6, Leading zero omitted, Abs format (unit mm)*
G04 Created by KiCad (PCBNEW 4.0.7) date 08/30/18 09:04:44*
%MOMM*%
%LPD*%
G01*
G04 APERTURE LIST*
%ADD10C,0.100000*%
%ADD11C,0.150000*%
%ADD12C,0.200000*%
%ADD13C,0.120000*%
G04 APERTURE END LIST*
D10*
D11*
X190658952Y-121880381D02*
X190849429Y-121880381D01*
X190944667Y-121928000D01*
X191039905Y-122023238D01*
X191087524Y-122213714D01*
X191087524Y-122547048D01*
X191039905Y-122737524D01*
X190944667Y-122832762D01*
X190849429Y-122880381D01*
X190658952Y-122880381D01*
X190563714Y-122832762D01*
X190468476Y-122737524D01*
X190420857Y-122547048D01*
X190420857Y-122213714D01*
X190468476Y-122023238D01*
X190563714Y-121928000D01*
X190658952Y-121880381D01*
X191516095Y-121880381D02*
X191516095Y-122689905D01*
X191563714Y-122785143D01*
X191611333Y-122832762D01*
X191706571Y-122880381D01*
X191897048Y-122880381D01*
X191992286Y-122832762D01*
X192039905Y-122785143D01*
X192087524Y-122689905D01*
X192087524Y-121880381D01*
X192420857Y-121880381D02*
X192992286Y-121880381D01*
X192706571Y-122880381D02*
X192706571Y-121880381D01*
X193325619Y-122499429D02*
X194087524Y-122499429D01*
X193706572Y-122880381D02*
X193706572Y-122118476D01*
X190658952Y-128230381D02*
X190849429Y-128230381D01*
X190944667Y-128278000D01*
X191039905Y-128373238D01*
X191087524Y-128563714D01*
X191087524Y-128897048D01*
X191039905Y-129087524D01*
X190944667Y-129182762D01*
X190849429Y-129230381D01*
X190658952Y-129230381D01*
X190563714Y-129182762D01*
X190468476Y-129087524D01*
X190420857Y-128897048D01*
X190420857Y-128563714D01*
X190468476Y-128373238D01*
X190563714Y-128278000D01*
X190658952Y-128230381D01*
X191516095Y-128230381D02*
X191516095Y-129039905D01*
X191563714Y-129135143D01*
X191611333Y-129182762D01*
X191706571Y-129230381D01*
X191897048Y-129230381D01*
X191992286Y-129182762D01*
X192039905Y-129135143D01*
X192087524Y-129039905D01*
X192087524Y-128230381D01*
X192420857Y-128230381D02*
X192992286Y-128230381D01*
X192706571Y-129230381D02*
X192706571Y-128230381D01*
X193325619Y-128849429D02*
X194087524Y-128849429D01*
X206756143Y-129230381D02*
X206756143Y-128230381D01*
X207232333Y-129230381D02*
X207232333Y-128230381D01*
X207803762Y-129230381D01*
X207803762Y-128230381D01*
X208279952Y-128849429D02*
X209041857Y-128849429D01*
X206883143Y-122880381D02*
X206883143Y-121880381D01*
X207359333Y-122880381D02*
X207359333Y-121880381D01*
X207930762Y-122880381D01*
X207930762Y-121880381D01*
X208406952Y-122499429D02*
X209168857Y-122499429D01*
X208787905Y-122880381D02*
X208787905Y-122118476D01*
D12*
X165411214Y-103167643D02*
X165468357Y-102996214D01*
X165468357Y-102710500D01*
X165411214Y-102596214D01*
X165354071Y-102539071D01*
X165239786Y-102481928D01*
X165125500Y-102481928D01*
X165011214Y-102539071D01*
X164954071Y-102596214D01*
X164896929Y-102710500D01*
X164839786Y-102939071D01*
X164782643Y-103053357D01*
X164725500Y-103110500D01*
X164611214Y-103167643D01*
X164496929Y-103167643D01*
X164382643Y-103110500D01*
X164325500Y-103053357D01*
X164268357Y-102939071D01*
X164268357Y-102653357D01*
X164325500Y-102481928D01*
X164268357Y-102139071D02*
X164268357Y-101453357D01*
X165468357Y-101796214D02*
X164268357Y-101796214D01*
X165468357Y-101053357D02*
X164268357Y-101053357D01*
X165125500Y-100653357D01*
X164268357Y-100253357D01*
X165468357Y-100253357D01*
X164268357Y-99796213D02*
X164268357Y-99053356D01*
X164725500Y-99453356D01*
X164725500Y-99281928D01*
X164782643Y-99167642D01*
X164839786Y-99110499D01*
X164954071Y-99053356D01*
X165239786Y-99053356D01*
X165354071Y-99110499D01*
X165411214Y-99167642D01*
X165468357Y-99281928D01*
X165468357Y-99624785D01*
X165411214Y-99739071D01*
X165354071Y-99796213D01*
X164382643Y-98596214D02*
X164325500Y-98539071D01*
X164268357Y-98424785D01*
X164268357Y-98139071D01*
X164325500Y-98024785D01*
X164382643Y-97967642D01*
X164496929Y-97910499D01*
X164611214Y-97910499D01*
X164782643Y-97967642D01*
X165468357Y-98653356D01*
X165468357Y-97910499D01*
X165468357Y-96481928D02*
X164268357Y-96481928D01*
X164268357Y-96196213D01*
X164325500Y-96024785D01*
X164439786Y-95910499D01*
X164554071Y-95853356D01*
X164782643Y-95796213D01*
X164954071Y-95796213D01*
X165182643Y-95853356D01*
X165296929Y-95910499D01*
X165411214Y-96024785D01*
X165468357Y-96196213D01*
X165468357Y-96481928D01*
X165468357Y-95281928D02*
X164668357Y-95281928D01*
X164268357Y-95281928D02*
X164325500Y-95339071D01*
X164382643Y-95281928D01*
X164325500Y-95224785D01*
X164268357Y-95281928D01*
X164382643Y-95281928D01*
X165468357Y-94710499D02*
X164668357Y-94710499D01*
X164782643Y-94710499D02*
X164725500Y-94653356D01*
X164668357Y-94539070D01*
X164668357Y-94367642D01*
X164725500Y-94253356D01*
X164839786Y-94196213D01*
X165468357Y-94196213D01*
X164839786Y-94196213D02*
X164725500Y-94139070D01*
X164668357Y-94024784D01*
X164668357Y-93853356D01*
X164725500Y-93739070D01*
X164839786Y-93681927D01*
X165468357Y-93681927D01*
X165468357Y-93110499D02*
X164668357Y-93110499D01*
X164782643Y-93110499D02*
X164725500Y-93053356D01*
X164668357Y-92939070D01*
X164668357Y-92767642D01*
X164725500Y-92653356D01*
X164839786Y-92596213D01*
X165468357Y-92596213D01*
X164839786Y-92596213D02*
X164725500Y-92539070D01*
X164668357Y-92424784D01*
X164668357Y-92253356D01*
X164725500Y-92139070D01*
X164839786Y-92081927D01*
X165468357Y-92081927D01*
X165411214Y-91053356D02*
X165468357Y-91167642D01*
X165468357Y-91396213D01*
X165411214Y-91510499D01*
X165296929Y-91567642D01*
X164839786Y-91567642D01*
X164725500Y-91510499D01*
X164668357Y-91396213D01*
X164668357Y-91167642D01*
X164725500Y-91053356D01*
X164839786Y-90996213D01*
X164954071Y-90996213D01*
X165068357Y-91567642D01*
X165468357Y-90481928D02*
X164668357Y-90481928D01*
X164896929Y-90481928D02*
X164782643Y-90424785D01*
X164725500Y-90367642D01*
X164668357Y-90253356D01*
X164668357Y-90139071D01*
X166268357Y-98539071D02*
X167468357Y-98139071D01*
X166268357Y-97739071D01*
X167468357Y-96710500D02*
X167468357Y-97396215D01*
X167468357Y-97053357D02*
X166268357Y-97053357D01*
X166439786Y-97167643D01*
X166554071Y-97281929D01*
X166611214Y-97396215D01*
X167354071Y-96196215D02*
X167411214Y-96139072D01*
X167468357Y-96196215D01*
X167411214Y-96253358D01*
X167354071Y-96196215D01*
X167468357Y-96196215D01*
X167468357Y-94996214D02*
X167468357Y-95681929D01*
X167468357Y-95339071D02*
X166268357Y-95339071D01*
X166439786Y-95453357D01*
X166554071Y-95567643D01*
X166611214Y-95681929D01*
D11*
X181260000Y-128295333D02*
X181226667Y-128361999D01*
X181226667Y-128461999D01*
X181260000Y-128561999D01*
X181326667Y-128628666D01*
X181393333Y-128661999D01*
X181526667Y-128695333D01*
X181626667Y-128695333D01*
X181760000Y-128661999D01*
X181826667Y-128628666D01*
X181893333Y-128561999D01*
X181926667Y-128461999D01*
X181926667Y-128395333D01*
X181893333Y-128295333D01*
X181860000Y-128261999D01*
X181626667Y-128261999D01*
X181626667Y-128395333D01*
X181926667Y-127961999D02*
X181226667Y-127961999D01*
X181926667Y-127561999D01*
X181226667Y-127561999D01*
X181926667Y-127228666D02*
X181226667Y-127228666D01*
X181226667Y-127062000D01*
X181260000Y-126962000D01*
X181326667Y-126895333D01*
X181393333Y-126862000D01*
X181526667Y-126828666D01*
X181626667Y-126828666D01*
X181760000Y-126862000D01*
X181826667Y-126895333D01*
X181893333Y-126962000D01*
X181926667Y-127062000D01*
X181926667Y-127228666D01*
X178686667Y-128695333D02*
X179386667Y-128462000D01*
X178686667Y-128228667D01*
X179320000Y-127595333D02*
X179353333Y-127628667D01*
X179386667Y-127728667D01*
X179386667Y-127795333D01*
X179353333Y-127895333D01*
X179286667Y-127962000D01*
X179220000Y-127995333D01*
X179086667Y-128028667D01*
X178986667Y-128028667D01*
X178853333Y-127995333D01*
X178786667Y-127962000D01*
X178720000Y-127895333D01*
X178686667Y-127795333D01*
X178686667Y-127728667D01*
X178720000Y-127628667D01*
X178753333Y-127595333D01*
X179320000Y-126895333D02*
X179353333Y-126928667D01*
X179386667Y-127028667D01*
X179386667Y-127095333D01*
X179353333Y-127195333D01*
X179286667Y-127262000D01*
X179220000Y-127295333D01*
X179086667Y-127328667D01*
X178986667Y-127328667D01*
X178853333Y-127295333D01*
X178786667Y-127262000D01*
X178720000Y-127195333D01*
X178686667Y-127095333D01*
X178686667Y-127028667D01*
X178720000Y-126928667D01*
X178753333Y-126895333D01*
X176813333Y-128616000D02*
X176846667Y-128516000D01*
X176846667Y-128349333D01*
X176813333Y-128282666D01*
X176780000Y-128249333D01*
X176713333Y-128216000D01*
X176646667Y-128216000D01*
X176580000Y-128249333D01*
X176546667Y-128282666D01*
X176513333Y-128349333D01*
X176480000Y-128482666D01*
X176446667Y-128549333D01*
X176413333Y-128582666D01*
X176346667Y-128616000D01*
X176280000Y-128616000D01*
X176213333Y-128582666D01*
X176180000Y-128549333D01*
X176146667Y-128482666D01*
X176146667Y-128316000D01*
X176180000Y-128216000D01*
X176146667Y-127982666D02*
X176846667Y-127815999D01*
X176346667Y-127682666D01*
X176846667Y-127549333D01*
X176146667Y-127382666D01*
X174306667Y-128719999D02*
X173606667Y-128719999D01*
X173606667Y-128553333D01*
X173640000Y-128453333D01*
X173706667Y-128386666D01*
X173773333Y-128353333D01*
X173906667Y-128319999D01*
X174006667Y-128319999D01*
X174140000Y-128353333D01*
X174206667Y-128386666D01*
X174273333Y-128453333D01*
X174306667Y-128553333D01*
X174306667Y-128719999D01*
X173606667Y-128119999D02*
X173606667Y-127719999D01*
X174306667Y-127919999D02*
X173606667Y-127919999D01*
X171700000Y-128432666D02*
X171733333Y-128466000D01*
X171766667Y-128566000D01*
X171766667Y-128632666D01*
X171733333Y-128732666D01*
X171666667Y-128799333D01*
X171600000Y-128832666D01*
X171466667Y-128866000D01*
X171366667Y-128866000D01*
X171233333Y-128832666D01*
X171166667Y-128799333D01*
X171100000Y-128732666D01*
X171066667Y-128632666D01*
X171066667Y-128566000D01*
X171100000Y-128466000D01*
X171133333Y-128432666D01*
X171766667Y-127799333D02*
X171766667Y-128132666D01*
X171066667Y-128132666D01*
X171766667Y-127565999D02*
X171066667Y-127565999D01*
X171766667Y-127165999D02*
X171366667Y-127465999D01*
X171066667Y-127165999D02*
X171466667Y-127565999D01*
X156460000Y-128432666D02*
X156493333Y-128466000D01*
X156526667Y-128566000D01*
X156526667Y-128632666D01*
X156493333Y-128732666D01*
X156426667Y-128799333D01*
X156360000Y-128832666D01*
X156226667Y-128866000D01*
X156126667Y-128866000D01*
X155993333Y-128832666D01*
X155926667Y-128799333D01*
X155860000Y-128732666D01*
X155826667Y-128632666D01*
X155826667Y-128566000D01*
X155860000Y-128466000D01*
X155893333Y-128432666D01*
X156526667Y-127799333D02*
X156526667Y-128132666D01*
X155826667Y-128132666D01*
X156526667Y-127565999D02*
X155826667Y-127565999D01*
X156526667Y-127165999D02*
X156126667Y-127465999D01*
X155826667Y-127165999D02*
X156226667Y-127565999D01*
X159066667Y-128719999D02*
X158366667Y-128719999D01*
X158366667Y-128553333D01*
X158400000Y-128453333D01*
X158466667Y-128386666D01*
X158533333Y-128353333D01*
X158666667Y-128319999D01*
X158766667Y-128319999D01*
X158900000Y-128353333D01*
X158966667Y-128386666D01*
X159033333Y-128453333D01*
X159066667Y-128553333D01*
X159066667Y-128719999D01*
X158366667Y-128119999D02*
X158366667Y-127719999D01*
X159066667Y-127919999D02*
X158366667Y-127919999D01*
X161827333Y-128616000D02*
X161860667Y-128516000D01*
X161860667Y-128349333D01*
X161827333Y-128282666D01*
X161794000Y-128249333D01*
X161727333Y-128216000D01*
X161660667Y-128216000D01*
X161594000Y-128249333D01*
X161560667Y-128282666D01*
X161527333Y-128349333D01*
X161494000Y-128482666D01*
X161460667Y-128549333D01*
X161427333Y-128582666D01*
X161360667Y-128616000D01*
X161294000Y-128616000D01*
X161227333Y-128582666D01*
X161194000Y-128549333D01*
X161160667Y-128482666D01*
X161160667Y-128316000D01*
X161194000Y-128216000D01*
X161160667Y-127982666D02*
X161860667Y-127815999D01*
X161360667Y-127682666D01*
X161860667Y-127549333D01*
X161160667Y-127382666D01*
X163700667Y-128695333D02*
X164400667Y-128462000D01*
X163700667Y-128228667D01*
X164334000Y-127595333D02*
X164367333Y-127628667D01*
X164400667Y-127728667D01*
X164400667Y-127795333D01*
X164367333Y-127895333D01*
X164300667Y-127962000D01*
X164234000Y-127995333D01*
X164100667Y-128028667D01*
X164000667Y-128028667D01*
X163867333Y-127995333D01*
X163800667Y-127962000D01*
X163734000Y-127895333D01*
X163700667Y-127795333D01*
X163700667Y-127728667D01*
X163734000Y-127628667D01*
X163767333Y-127595333D01*
X164334000Y-126895333D02*
X164367333Y-126928667D01*
X164400667Y-127028667D01*
X164400667Y-127095333D01*
X164367333Y-127195333D01*
X164300667Y-127262000D01*
X164234000Y-127295333D01*
X164100667Y-127328667D01*
X164000667Y-127328667D01*
X163867333Y-127295333D01*
X163800667Y-127262000D01*
X163734000Y-127195333D01*
X163700667Y-127095333D01*
X163700667Y-127028667D01*
X163734000Y-126928667D01*
X163767333Y-126895333D01*
X166020000Y-128295333D02*
X165986667Y-128361999D01*
X165986667Y-128461999D01*
X166020000Y-128561999D01*
X166086667Y-128628666D01*
X166153333Y-128661999D01*
X166286667Y-128695333D01*
X166386667Y-128695333D01*
X166520000Y-128661999D01*
X166586667Y-128628666D01*
X166653333Y-128561999D01*
X166686667Y-128461999D01*
X166686667Y-128395333D01*
X166653333Y-128295333D01*
X166620000Y-128261999D01*
X166386667Y-128261999D01*
X166386667Y-128395333D01*
X166686667Y-127961999D02*
X165986667Y-127961999D01*
X166686667Y-127561999D01*
X165986667Y-127561999D01*
X166686667Y-127228666D02*
X165986667Y-127228666D01*
X165986667Y-127062000D01*
X166020000Y-126962000D01*
X166086667Y-126895333D01*
X166153333Y-126862000D01*
X166286667Y-126828666D01*
X166386667Y-126828666D01*
X166520000Y-126862000D01*
X166586667Y-126895333D01*
X166653333Y-126962000D01*
X166686667Y-127062000D01*
X166686667Y-127228666D01*
X185963000Y-111209000D02*
X185913000Y-111209000D01*
X185963000Y-115359000D02*
X185818000Y-115359000D01*
X180813000Y-115359000D02*
X180958000Y-115359000D01*
X180813000Y-111209000D02*
X180958000Y-111209000D01*
X185963000Y-111209000D02*
X185963000Y-115359000D01*
X180813000Y-111209000D02*
X180813000Y-115359000D01*
X185913000Y-111209000D02*
X185913000Y-109809000D01*
X179706000Y-94582000D02*
X195706000Y-94582000D01*
X195706000Y-94582000D02*
X195706000Y-75582000D01*
X195706000Y-75582000D02*
X179706000Y-75582000D01*
X179706000Y-75582000D02*
X179706000Y-94582000D01*
D13*
X166712000Y-125468000D02*
X166712000Y-124468000D01*
X165012000Y-124468000D02*
X165012000Y-125468000D01*
X181698000Y-125468000D02*
X181698000Y-124468000D01*
X179998000Y-124468000D02*
X179998000Y-125468000D01*
X182110000Y-97702000D02*
X181110000Y-97702000D01*
X181110000Y-99402000D02*
X182110000Y-99402000D01*
X205614000Y-117446000D02*
X208914000Y-117446000D01*
X208914000Y-117446000D02*
X208914000Y-112046000D01*
X205614000Y-117446000D02*
X205614000Y-112046000D01*
X205360000Y-97126000D02*
X208660000Y-97126000D01*
X208660000Y-97126000D02*
X208660000Y-91726000D01*
X205360000Y-97126000D02*
X205360000Y-91726000D01*
X205360000Y-77060000D02*
X208660000Y-77060000D01*
X208660000Y-77060000D02*
X208660000Y-71660000D01*
X205360000Y-77060000D02*
X205360000Y-71660000D01*
X205360000Y-107540000D02*
X208660000Y-107540000D01*
X208660000Y-107540000D02*
X208660000Y-102140000D01*
X205360000Y-107540000D02*
X205360000Y-102140000D01*
X205360000Y-87220000D02*
X208660000Y-87220000D01*
X208660000Y-87220000D02*
X208660000Y-81820000D01*
X205360000Y-87220000D02*
X205360000Y-81820000D01*
X218440000Y-121920000D02*
X218440000Y-132080000D01*
X219710000Y-121920000D02*
X212090000Y-121920000D01*
X212090000Y-121920000D02*
X212090000Y-132080000D01*
X212090000Y-132080000D02*
X219710000Y-132080000D01*
X219710000Y-132080000D02*
X219710000Y-121920000D01*
X167700000Y-131632000D02*
X167700000Y-128972000D01*
X157480000Y-131632000D02*
X167700000Y-131632000D01*
X157480000Y-128972000D02*
X167700000Y-128972000D01*
X157480000Y-131632000D02*
X157480000Y-128972000D01*
X156210000Y-131632000D02*
X154880000Y-131632000D01*
X154880000Y-131632000D02*
X154880000Y-130302000D01*
X182940000Y-131632000D02*
X182940000Y-128972000D01*
X172720000Y-131632000D02*
X182940000Y-131632000D01*
X172720000Y-128972000D02*
X182940000Y-128972000D01*
X172720000Y-131632000D02*
X172720000Y-128972000D01*
X171450000Y-131632000D02*
X170120000Y-131632000D01*
X170120000Y-131632000D02*
X170120000Y-130302000D01*
X218440000Y-109220000D02*
X218440000Y-119380000D01*
X219710000Y-109220000D02*
X212090000Y-109220000D01*
X212090000Y-109220000D02*
X212090000Y-119380000D01*
X212090000Y-119380000D02*
X219710000Y-119380000D01*
X219710000Y-119380000D02*
X219710000Y-109220000D01*
X218440000Y-88900000D02*
X218440000Y-99060000D01*
X219710000Y-88900000D02*
X212090000Y-88900000D01*
X212090000Y-88900000D02*
X212090000Y-99060000D01*
X212090000Y-99060000D02*
X219710000Y-99060000D01*
X219710000Y-99060000D02*
X219710000Y-88900000D01*
X218440000Y-68580000D02*
X218440000Y-78740000D01*
X219710000Y-68580000D02*
X212090000Y-68580000D01*
X212090000Y-68580000D02*
X212090000Y-78740000D01*
X212090000Y-78740000D02*
X219710000Y-78740000D01*
X219710000Y-78740000D02*
X219710000Y-68580000D01*
X191138500Y-73339000D02*
X193798500Y-73339000D01*
X191138500Y-73279000D02*
X191138500Y-73339000D01*
X193798500Y-73279000D02*
X193798500Y-73339000D01*
X191138500Y-73279000D02*
X193798500Y-73279000D01*
X191138500Y-72009000D02*
X191138500Y-70679000D01*
X191138500Y-70679000D02*
X192468500Y-70679000D01*
X218440000Y-99060000D02*
X218440000Y-109220000D01*
X219710000Y-99060000D02*
X212090000Y-99060000D01*
X212090000Y-99060000D02*
X212090000Y-109220000D01*
X212090000Y-109220000D02*
X219710000Y-109220000D01*
X219710000Y-109220000D02*
X219710000Y-99060000D01*
X218440000Y-78740000D02*
X218440000Y-88900000D01*
X219710000Y-78740000D02*
X212090000Y-78740000D01*
X212090000Y-78740000D02*
X212090000Y-88900000D01*
X212090000Y-88900000D02*
X219710000Y-88900000D01*
X219710000Y-88900000D02*
X219710000Y-78740000D01*
D11*
X198593000Y-116121000D02*
X198643000Y-116121000D01*
X198593000Y-111971000D02*
X198738000Y-111971000D01*
X203743000Y-111971000D02*
X203598000Y-111971000D01*
X203743000Y-116121000D02*
X203598000Y-116121000D01*
X198593000Y-116121000D02*
X198593000Y-111971000D01*
X203743000Y-116121000D02*
X203743000Y-111971000D01*
X198643000Y-116121000D02*
X198643000Y-117521000D01*
X198085000Y-95801000D02*
X198135000Y-95801000D01*
X198085000Y-91651000D02*
X198230000Y-91651000D01*
X203235000Y-91651000D02*
X203090000Y-91651000D01*
X203235000Y-95801000D02*
X203090000Y-95801000D01*
X198085000Y-95801000D02*
X198085000Y-91651000D01*
X203235000Y-95801000D02*
X203235000Y-91651000D01*
X198135000Y-95801000D02*
X198135000Y-97201000D01*
X198085000Y-75735000D02*
X198135000Y-75735000D01*
X198085000Y-71585000D02*
X198230000Y-71585000D01*
X203235000Y-71585000D02*
X203090000Y-71585000D01*
X203235000Y-75735000D02*
X203090000Y-75735000D01*
X198085000Y-75735000D02*
X198085000Y-71585000D01*
X203235000Y-75735000D02*
X203235000Y-71585000D01*
X198135000Y-75735000D02*
X198135000Y-77135000D01*
X198339000Y-106215000D02*
X198389000Y-106215000D01*
X198339000Y-102065000D02*
X198484000Y-102065000D01*
X203489000Y-102065000D02*
X203344000Y-102065000D01*
X203489000Y-106215000D02*
X203344000Y-106215000D01*
X198339000Y-106215000D02*
X198339000Y-102065000D01*
X203489000Y-106215000D02*
X203489000Y-102065000D01*
X198389000Y-106215000D02*
X198389000Y-107615000D01*
X198085000Y-85895000D02*
X198135000Y-85895000D01*
X198085000Y-81745000D02*
X198230000Y-81745000D01*
X203235000Y-81745000D02*
X203090000Y-81745000D01*
X203235000Y-85895000D02*
X203090000Y-85895000D01*
X198085000Y-85895000D02*
X198085000Y-81745000D01*
X203235000Y-85895000D02*
X203235000Y-81745000D01*
X198135000Y-85895000D02*
X198135000Y-87295000D01*
D13*
X158378000Y-125568000D02*
X158378000Y-124368000D01*
X160138000Y-124368000D02*
X160138000Y-125568000D01*
X161680000Y-125568000D02*
X161680000Y-124368000D01*
X163440000Y-124368000D02*
X163440000Y-125568000D01*
X176920000Y-125568000D02*
X176920000Y-124368000D01*
X178680000Y-124368000D02*
X178680000Y-125568000D01*
X182490000Y-119288000D02*
X182490000Y-120488000D01*
X180730000Y-120488000D02*
X180730000Y-119288000D01*
X196206000Y-111160000D02*
X196206000Y-112360000D01*
X194446000Y-112360000D02*
X194446000Y-111160000D01*
X191634000Y-102270000D02*
X191634000Y-103470000D01*
X189874000Y-103470000D02*
X189874000Y-102270000D01*
X182490000Y-102270000D02*
X182490000Y-103470000D01*
X180730000Y-103470000D02*
X180730000Y-102270000D01*
X196206000Y-114970000D02*
X196206000Y-116170000D01*
X194446000Y-116170000D02*
X194446000Y-114970000D01*
X191634000Y-106080000D02*
X191634000Y-107280000D01*
X189874000Y-107280000D02*
X189874000Y-106080000D01*
X182490000Y-106080000D02*
X182490000Y-107280000D01*
X180730000Y-107280000D02*
X180730000Y-106080000D01*
X196206000Y-102270000D02*
X196206000Y-103470000D01*
X194446000Y-103470000D02*
X194446000Y-102270000D01*
X187062000Y-102270000D02*
X187062000Y-103470000D01*
X185302000Y-103470000D02*
X185302000Y-102270000D01*
X196206000Y-106080000D02*
X196206000Y-107280000D01*
X194446000Y-107280000D02*
X194446000Y-106080000D01*
X187062000Y-106080000D02*
X187062000Y-107280000D01*
X185302000Y-107280000D02*
X185302000Y-106080000D01*
X182710000Y-74040000D02*
X183010000Y-74040000D01*
X183010000Y-74040000D02*
X183010000Y-70740000D01*
X183010000Y-70740000D02*
X182710000Y-70740000D01*
X180510000Y-74040000D02*
X180210000Y-74040000D01*
X180210000Y-74040000D02*
X180210000Y-70740000D01*
X180210000Y-70740000D02*
X180510000Y-70740000D01*
X191665000Y-109846500D02*
X188065000Y-109846500D01*
X191703478Y-109858022D02*
G75*
G02X189865000Y-114296500I-1838478J-1838478D01*
G01*
X188026522Y-109858022D02*
G75*
G03X189865000Y-114296500I1838478J-1838478D01*
G01*
X155360000Y-124468000D02*
X155360000Y-125468000D01*
X157060000Y-125468000D02*
X157060000Y-124468000D01*
X170854000Y-124468000D02*
X170854000Y-125468000D01*
X172554000Y-125468000D02*
X172554000Y-124468000D01*
D11*
X187198000Y-127422000D02*
X187198000Y-128022000D01*
X186798000Y-122722000D02*
X187598000Y-122722000D01*
X187198000Y-123122000D02*
X187198000Y-122322000D01*
X190298000Y-125222000D02*
G75*
G03X190298000Y-125222000I-3100000J0D01*
G01*
D13*
X173872000Y-125568000D02*
X173872000Y-124368000D01*
X175632000Y-124368000D02*
X175632000Y-125568000D01*
X186300000Y-119288000D02*
X186300000Y-120488000D01*
X184540000Y-120488000D02*
X184540000Y-119288000D01*
X190110000Y-119288000D02*
X190110000Y-120488000D01*
X188350000Y-120488000D02*
X188350000Y-119288000D01*
D11*
X191406000Y-119476000D02*
X209406000Y-119476000D01*
X209406000Y-119476000D02*
X209406000Y-131476000D01*
X209406000Y-131476000D02*
X191406000Y-131476000D01*
X191406000Y-131476000D02*
X191406000Y-119476000D01*
D13*
X206463000Y-122039000D02*
X206463000Y-121039000D01*
X204763000Y-121039000D02*
X204763000Y-122039000D01*
X196049000Y-122039000D02*
X196049000Y-121039000D01*
X194349000Y-121039000D02*
X194349000Y-122039000D01*
X197123000Y-125608000D02*
X198383000Y-125608000D01*
X203943000Y-125608000D02*
X202683000Y-125608000D01*
X197123000Y-121848000D02*
X197123000Y-125608000D01*
X203943000Y-119598000D02*
X203943000Y-125608000D01*
D11*
X155575000Y-69088000D02*
X154305000Y-69088000D01*
X177165000Y-69088000D02*
X175895000Y-69088000D01*
X155575000Y-122428000D02*
X154305000Y-122428000D01*
X177165000Y-122428000D02*
X175895000Y-122428000D01*
X175895000Y-122428000D02*
X155575000Y-122428000D01*
X175895000Y-69088000D02*
X155575000Y-69088000D01*
X154305000Y-122428000D02*
X154305000Y-69088000D01*
X177165000Y-69088000D02*
X177165000Y-122428000D01*
D13*
X189349000Y-115545500D02*
X188349000Y-115545500D01*
X188349000Y-117245500D02*
X189349000Y-117245500D01*
D11*
X182499095Y-112863381D02*
X182499095Y-113672905D01*
X182546714Y-113768143D01*
X182594333Y-113815762D01*
X182689571Y-113863381D01*
X182880048Y-113863381D01*
X182975286Y-113815762D01*
X183022905Y-113768143D01*
X183070524Y-113672905D01*
X183070524Y-112863381D01*
X183499095Y-112958619D02*
X183546714Y-112911000D01*
X183641952Y-112863381D01*
X183880048Y-112863381D01*
X183975286Y-112911000D01*
X184022905Y-112958619D01*
X184070524Y-113053857D01*
X184070524Y-113149095D01*
X184022905Y-113291952D01*
X183451476Y-113863381D01*
X184070524Y-113863381D01*
X185610762Y-86209143D02*
X185563143Y-86256762D01*
X185420286Y-86304381D01*
X185325048Y-86304381D01*
X185182190Y-86256762D01*
X185086952Y-86161524D01*
X185039333Y-86066286D01*
X184991714Y-85875810D01*
X184991714Y-85732952D01*
X185039333Y-85542476D01*
X185086952Y-85447238D01*
X185182190Y-85352000D01*
X185325048Y-85304381D01*
X185420286Y-85304381D01*
X185563143Y-85352000D01*
X185610762Y-85399619D01*
X186610762Y-86209143D02*
X186563143Y-86256762D01*
X186420286Y-86304381D01*
X186325048Y-86304381D01*
X186182190Y-86256762D01*
X186086952Y-86161524D01*
X186039333Y-86066286D01*
X185991714Y-85875810D01*
X185991714Y-85732952D01*
X186039333Y-85542476D01*
X186086952Y-85447238D01*
X186182190Y-85352000D01*
X186325048Y-85304381D01*
X186420286Y-85304381D01*
X186563143Y-85352000D01*
X186610762Y-85399619D01*
X187563143Y-86304381D02*
X186991714Y-86304381D01*
X187277428Y-86304381D02*
X187277428Y-85304381D01*
X187182190Y-85447238D01*
X187086952Y-85542476D01*
X186991714Y-85590095D01*
X188515524Y-86304381D02*
X187944095Y-86304381D01*
X188229809Y-86304381D02*
X188229809Y-85304381D01*
X188134571Y-85447238D01*
X188039333Y-85542476D01*
X187944095Y-85590095D01*
X189134571Y-85304381D02*
X189229810Y-85304381D01*
X189325048Y-85352000D01*
X189372667Y-85399619D01*
X189420286Y-85494857D01*
X189467905Y-85685333D01*
X189467905Y-85923429D01*
X189420286Y-86113905D01*
X189372667Y-86209143D01*
X189325048Y-86256762D01*
X189229810Y-86304381D01*
X189134571Y-86304381D01*
X189039333Y-86256762D01*
X188991714Y-86209143D01*
X188944095Y-86113905D01*
X188896476Y-85923429D01*
X188896476Y-85685333D01*
X188944095Y-85494857D01*
X188991714Y-85399619D01*
X189039333Y-85352000D01*
X189134571Y-85304381D01*
X190420286Y-86304381D02*
X189848857Y-86304381D01*
X190134571Y-86304381D02*
X190134571Y-85304381D01*
X190039333Y-85447238D01*
X189944095Y-85542476D01*
X189848857Y-85590095D01*
X164695143Y-124372666D02*
X164742762Y-124420285D01*
X164790381Y-124563142D01*
X164790381Y-124658380D01*
X164742762Y-124801238D01*
X164647524Y-124896476D01*
X164552286Y-124944095D01*
X164361810Y-124991714D01*
X164218952Y-124991714D01*
X164028476Y-124944095D01*
X163933238Y-124896476D01*
X163838000Y-124801238D01*
X163790381Y-124658380D01*
X163790381Y-124563142D01*
X163838000Y-124420285D01*
X163885619Y-124372666D01*
X163790381Y-124039333D02*
X163790381Y-123420285D01*
X164171333Y-123753619D01*
X164171333Y-123610761D01*
X164218952Y-123515523D01*
X164266571Y-123467904D01*
X164361810Y-123420285D01*
X164599905Y-123420285D01*
X164695143Y-123467904D01*
X164742762Y-123515523D01*
X164790381Y-123610761D01*
X164790381Y-123896476D01*
X164742762Y-123991714D01*
X164695143Y-124039333D01*
X179681143Y-124372666D02*
X179728762Y-124420285D01*
X179776381Y-124563142D01*
X179776381Y-124658380D01*
X179728762Y-124801238D01*
X179633524Y-124896476D01*
X179538286Y-124944095D01*
X179347810Y-124991714D01*
X179204952Y-124991714D01*
X179014476Y-124944095D01*
X178919238Y-124896476D01*
X178824000Y-124801238D01*
X178776381Y-124658380D01*
X178776381Y-124563142D01*
X178824000Y-124420285D01*
X178871619Y-124372666D01*
X179109714Y-123515523D02*
X179776381Y-123515523D01*
X178728762Y-123753619D02*
X179443048Y-123991714D01*
X179443048Y-123372666D01*
X181443334Y-97409143D02*
X181395715Y-97456762D01*
X181252858Y-97504381D01*
X181157620Y-97504381D01*
X181014762Y-97456762D01*
X180919524Y-97361524D01*
X180871905Y-97266286D01*
X180824286Y-97075810D01*
X180824286Y-96932952D01*
X180871905Y-96742476D01*
X180919524Y-96647238D01*
X181014762Y-96552000D01*
X181157620Y-96504381D01*
X181252858Y-96504381D01*
X181395715Y-96552000D01*
X181443334Y-96599619D01*
X182300477Y-96504381D02*
X182110000Y-96504381D01*
X182014762Y-96552000D01*
X181967143Y-96599619D01*
X181871905Y-96742476D01*
X181824286Y-96932952D01*
X181824286Y-97313905D01*
X181871905Y-97409143D01*
X181919524Y-97456762D01*
X182014762Y-97504381D01*
X182205239Y-97504381D01*
X182300477Y-97456762D01*
X182348096Y-97409143D01*
X182395715Y-97313905D01*
X182395715Y-97075810D01*
X182348096Y-96980571D01*
X182300477Y-96932952D01*
X182205239Y-96885333D01*
X182014762Y-96885333D01*
X181919524Y-96932952D01*
X181871905Y-96980571D01*
X181824286Y-97075810D01*
X205176381Y-117197095D02*
X204176381Y-117197095D01*
X204176381Y-116959000D01*
X204224000Y-116816142D01*
X204319238Y-116720904D01*
X204414476Y-116673285D01*
X204604952Y-116625666D01*
X204747810Y-116625666D01*
X204938286Y-116673285D01*
X205033524Y-116720904D01*
X205128762Y-116816142D01*
X205176381Y-116959000D01*
X205176381Y-117197095D01*
X205176381Y-115673285D02*
X205176381Y-116244714D01*
X205176381Y-115959000D02*
X204176381Y-115959000D01*
X204319238Y-116054238D01*
X204414476Y-116149476D01*
X204462095Y-116244714D01*
X204922381Y-97004095D02*
X203922381Y-97004095D01*
X203922381Y-96766000D01*
X203970000Y-96623142D01*
X204065238Y-96527904D01*
X204160476Y-96480285D01*
X204350952Y-96432666D01*
X204493810Y-96432666D01*
X204684286Y-96480285D01*
X204779524Y-96527904D01*
X204874762Y-96623142D01*
X204922381Y-96766000D01*
X204922381Y-97004095D01*
X204017619Y-96051714D02*
X203970000Y-96004095D01*
X203922381Y-95908857D01*
X203922381Y-95670761D01*
X203970000Y-95575523D01*
X204017619Y-95527904D01*
X204112857Y-95480285D01*
X204208095Y-95480285D01*
X204350952Y-95527904D01*
X204922381Y-96099333D01*
X204922381Y-95480285D01*
X204922381Y-76938095D02*
X203922381Y-76938095D01*
X203922381Y-76700000D01*
X203970000Y-76557142D01*
X204065238Y-76461904D01*
X204160476Y-76414285D01*
X204350952Y-76366666D01*
X204493810Y-76366666D01*
X204684286Y-76414285D01*
X204779524Y-76461904D01*
X204874762Y-76557142D01*
X204922381Y-76700000D01*
X204922381Y-76938095D01*
X203922381Y-76033333D02*
X203922381Y-75414285D01*
X204303333Y-75747619D01*
X204303333Y-75604761D01*
X204350952Y-75509523D01*
X204398571Y-75461904D01*
X204493810Y-75414285D01*
X204731905Y-75414285D01*
X204827143Y-75461904D01*
X204874762Y-75509523D01*
X204922381Y-75604761D01*
X204922381Y-75890476D01*
X204874762Y-75985714D01*
X204827143Y-76033333D01*
X205049381Y-107418095D02*
X204049381Y-107418095D01*
X204049381Y-107180000D01*
X204097000Y-107037142D01*
X204192238Y-106941904D01*
X204287476Y-106894285D01*
X204477952Y-106846666D01*
X204620810Y-106846666D01*
X204811286Y-106894285D01*
X204906524Y-106941904D01*
X205001762Y-107037142D01*
X205049381Y-107180000D01*
X205049381Y-107418095D01*
X204382714Y-105989523D02*
X205049381Y-105989523D01*
X204001762Y-106227619D02*
X204716048Y-106465714D01*
X204716048Y-105846666D01*
X204922381Y-86971095D02*
X203922381Y-86971095D01*
X203922381Y-86733000D01*
X203970000Y-86590142D01*
X204065238Y-86494904D01*
X204160476Y-86447285D01*
X204350952Y-86399666D01*
X204493810Y-86399666D01*
X204684286Y-86447285D01*
X204779524Y-86494904D01*
X204874762Y-86590142D01*
X204922381Y-86733000D01*
X204922381Y-86971095D01*
X203922381Y-85494904D02*
X203922381Y-85971095D01*
X204398571Y-86018714D01*
X204350952Y-85971095D01*
X204303333Y-85875857D01*
X204303333Y-85637761D01*
X204350952Y-85542523D01*
X204398571Y-85494904D01*
X204493810Y-85447285D01*
X204731905Y-85447285D01*
X204827143Y-85494904D01*
X204874762Y-85542523D01*
X204922381Y-85637761D01*
X204922381Y-85875857D01*
X204874762Y-85971095D01*
X204827143Y-86018714D01*
X212812381Y-127333333D02*
X213526667Y-127333333D01*
X213669524Y-127380953D01*
X213764762Y-127476191D01*
X213812381Y-127619048D01*
X213812381Y-127714286D01*
X213812381Y-126333333D02*
X213812381Y-126904762D01*
X213812381Y-126619048D02*
X212812381Y-126619048D01*
X212955238Y-126714286D01*
X213050476Y-126809524D01*
X213098095Y-126904762D01*
X210383429Y-130722191D02*
X210383429Y-129960286D01*
X210764381Y-128722191D02*
X209764381Y-128722191D01*
X209764381Y-128341238D01*
X209812000Y-128246000D01*
X209859619Y-128198381D01*
X209954857Y-128150762D01*
X210097714Y-128150762D01*
X210192952Y-128198381D01*
X210240571Y-128246000D01*
X210288190Y-128341238D01*
X210288190Y-128722191D01*
X210764381Y-127579334D02*
X210716762Y-127674572D01*
X210669143Y-127722191D01*
X210573905Y-127769810D01*
X210288190Y-127769810D01*
X210192952Y-127722191D01*
X210145333Y-127674572D01*
X210097714Y-127579334D01*
X210097714Y-127436476D01*
X210145333Y-127341238D01*
X210192952Y-127293619D01*
X210288190Y-127246000D01*
X210573905Y-127246000D01*
X210669143Y-127293619D01*
X210716762Y-127341238D01*
X210764381Y-127436476D01*
X210764381Y-127579334D01*
X210097714Y-126912667D02*
X210764381Y-126722191D01*
X210288190Y-126531714D01*
X210764381Y-126341238D01*
X210097714Y-126150762D01*
X210716762Y-125388857D02*
X210764381Y-125484095D01*
X210764381Y-125674572D01*
X210716762Y-125769810D01*
X210621524Y-125817429D01*
X210240571Y-125817429D01*
X210145333Y-125769810D01*
X210097714Y-125674572D01*
X210097714Y-125484095D01*
X210145333Y-125388857D01*
X210240571Y-125341238D01*
X210335810Y-125341238D01*
X210431048Y-125817429D01*
X210764381Y-124912667D02*
X210097714Y-124912667D01*
X210288190Y-124912667D02*
X210192952Y-124865048D01*
X210145333Y-124817429D01*
X210097714Y-124722191D01*
X210097714Y-124626952D01*
X210383429Y-123531714D02*
X210383429Y-122769809D01*
X210764381Y-123150761D02*
X210002476Y-123150761D01*
X153344571Y-131992286D02*
X153344571Y-131658952D01*
X153868381Y-131516095D02*
X153868381Y-131992286D01*
X152868381Y-131992286D01*
X152868381Y-131516095D01*
X153201714Y-131087524D02*
X153868381Y-131087524D01*
X153296952Y-131087524D02*
X153249333Y-131039905D01*
X153201714Y-130944667D01*
X153201714Y-130801809D01*
X153249333Y-130706571D01*
X153344571Y-130658952D01*
X153868381Y-130658952D01*
X153820762Y-129754190D02*
X153868381Y-129849428D01*
X153868381Y-130039905D01*
X153820762Y-130135143D01*
X153773143Y-130182762D01*
X153677905Y-130230381D01*
X153392190Y-130230381D01*
X153296952Y-130182762D01*
X153249333Y-130135143D01*
X153201714Y-130039905D01*
X153201714Y-129849428D01*
X153249333Y-129754190D01*
X153868381Y-129182762D02*
X153820762Y-129278000D01*
X153773143Y-129325619D01*
X153677905Y-129373238D01*
X153392190Y-129373238D01*
X153296952Y-129325619D01*
X153249333Y-129278000D01*
X153201714Y-129182762D01*
X153201714Y-129039904D01*
X153249333Y-128944666D01*
X153296952Y-128897047D01*
X153392190Y-128849428D01*
X153677905Y-128849428D01*
X153773143Y-128897047D01*
X153820762Y-128944666D01*
X153868381Y-129039904D01*
X153868381Y-129182762D01*
X153868381Y-127992285D02*
X152868381Y-127992285D01*
X153820762Y-127992285D02*
X153868381Y-128087523D01*
X153868381Y-128278000D01*
X153820762Y-128373238D01*
X153773143Y-128420857D01*
X153677905Y-128468476D01*
X153392190Y-128468476D01*
X153296952Y-128420857D01*
X153249333Y-128373238D01*
X153201714Y-128278000D01*
X153201714Y-128087523D01*
X153249333Y-127992285D01*
X153820762Y-127135142D02*
X153868381Y-127230380D01*
X153868381Y-127420857D01*
X153820762Y-127516095D01*
X153725524Y-127563714D01*
X153344571Y-127563714D01*
X153249333Y-127516095D01*
X153201714Y-127420857D01*
X153201714Y-127230380D01*
X153249333Y-127135142D01*
X153344571Y-127087523D01*
X153439810Y-127087523D01*
X153535048Y-127563714D01*
X153868381Y-126658952D02*
X153201714Y-126658952D01*
X153392190Y-126658952D02*
X153296952Y-126611333D01*
X153249333Y-126563714D01*
X153201714Y-126468476D01*
X153201714Y-126373237D01*
X153868381Y-125516094D02*
X153868381Y-126087523D01*
X153868381Y-125801809D02*
X152868381Y-125801809D01*
X153011238Y-125897047D01*
X153106476Y-125992285D01*
X153154095Y-126087523D01*
X168838571Y-131992286D02*
X168838571Y-131658952D01*
X169362381Y-131516095D02*
X169362381Y-131992286D01*
X168362381Y-131992286D01*
X168362381Y-131516095D01*
X168695714Y-131087524D02*
X169362381Y-131087524D01*
X168790952Y-131087524D02*
X168743333Y-131039905D01*
X168695714Y-130944667D01*
X168695714Y-130801809D01*
X168743333Y-130706571D01*
X168838571Y-130658952D01*
X169362381Y-130658952D01*
X169314762Y-129754190D02*
X169362381Y-129849428D01*
X169362381Y-130039905D01*
X169314762Y-130135143D01*
X169267143Y-130182762D01*
X169171905Y-130230381D01*
X168886190Y-130230381D01*
X168790952Y-130182762D01*
X168743333Y-130135143D01*
X168695714Y-130039905D01*
X168695714Y-129849428D01*
X168743333Y-129754190D01*
X169362381Y-129182762D02*
X169314762Y-129278000D01*
X169267143Y-129325619D01*
X169171905Y-129373238D01*
X168886190Y-129373238D01*
X168790952Y-129325619D01*
X168743333Y-129278000D01*
X168695714Y-129182762D01*
X168695714Y-129039904D01*
X168743333Y-128944666D01*
X168790952Y-128897047D01*
X168886190Y-128849428D01*
X169171905Y-128849428D01*
X169267143Y-128897047D01*
X169314762Y-128944666D01*
X169362381Y-129039904D01*
X169362381Y-129182762D01*
X169362381Y-127992285D02*
X168362381Y-127992285D01*
X169314762Y-127992285D02*
X169362381Y-128087523D01*
X169362381Y-128278000D01*
X169314762Y-128373238D01*
X169267143Y-128420857D01*
X169171905Y-128468476D01*
X168886190Y-128468476D01*
X168790952Y-128420857D01*
X168743333Y-128373238D01*
X168695714Y-128278000D01*
X168695714Y-128087523D01*
X168743333Y-127992285D01*
X169314762Y-127135142D02*
X169362381Y-127230380D01*
X169362381Y-127420857D01*
X169314762Y-127516095D01*
X169219524Y-127563714D01*
X168838571Y-127563714D01*
X168743333Y-127516095D01*
X168695714Y-127420857D01*
X168695714Y-127230380D01*
X168743333Y-127135142D01*
X168838571Y-127087523D01*
X168933810Y-127087523D01*
X169029048Y-127563714D01*
X169362381Y-126658952D02*
X168695714Y-126658952D01*
X168886190Y-126658952D02*
X168790952Y-126611333D01*
X168743333Y-126563714D01*
X168695714Y-126468476D01*
X168695714Y-126373237D01*
X168457619Y-126087523D02*
X168410000Y-126039904D01*
X168362381Y-125944666D01*
X168362381Y-125706570D01*
X168410000Y-125611332D01*
X168457619Y-125563713D01*
X168552857Y-125516094D01*
X168648095Y-125516094D01*
X168790952Y-125563713D01*
X169362381Y-126135142D01*
X169362381Y-125516094D01*
X212812381Y-114379333D02*
X213526667Y-114379333D01*
X213669524Y-114426953D01*
X213764762Y-114522191D01*
X213812381Y-114665048D01*
X213812381Y-114760286D01*
X213145714Y-113474571D02*
X213812381Y-113474571D01*
X212764762Y-113712667D02*
X213479048Y-113950762D01*
X213479048Y-113331714D01*
X210383429Y-117641238D02*
X210383429Y-116879333D01*
X210764381Y-117260285D02*
X210002476Y-117260285D01*
X210764381Y-115165047D02*
X210764381Y-115641238D01*
X209764381Y-115641238D01*
X210240571Y-114831714D02*
X210240571Y-114498380D01*
X210764381Y-114355523D02*
X210764381Y-114831714D01*
X209764381Y-114831714D01*
X209764381Y-114355523D01*
X210764381Y-113926952D02*
X209764381Y-113926952D01*
X209764381Y-113688857D01*
X209812000Y-113545999D01*
X209907238Y-113450761D01*
X210002476Y-113403142D01*
X210192952Y-113355523D01*
X210335810Y-113355523D01*
X210526286Y-113403142D01*
X210621524Y-113450761D01*
X210716762Y-113545999D01*
X210764381Y-113688857D01*
X210764381Y-113926952D01*
X210764381Y-112403142D02*
X210764381Y-112974571D01*
X210764381Y-112688857D02*
X209764381Y-112688857D01*
X209907238Y-112784095D01*
X210002476Y-112879333D01*
X210050095Y-112974571D01*
X210383429Y-111212666D02*
X210383429Y-110450761D01*
X213066381Y-94313333D02*
X213780667Y-94313333D01*
X213923524Y-94360953D01*
X214018762Y-94456191D01*
X214066381Y-94599048D01*
X214066381Y-94694286D01*
X213066381Y-93360952D02*
X213066381Y-93837143D01*
X213542571Y-93884762D01*
X213494952Y-93837143D01*
X213447333Y-93741905D01*
X213447333Y-93503809D01*
X213494952Y-93408571D01*
X213542571Y-93360952D01*
X213637810Y-93313333D01*
X213875905Y-93313333D01*
X213971143Y-93360952D01*
X214018762Y-93408571D01*
X214066381Y-93503809D01*
X214066381Y-93741905D01*
X214018762Y-93837143D01*
X213971143Y-93884762D01*
X210383429Y-97321238D02*
X210383429Y-96559333D01*
X210764381Y-96940285D02*
X210002476Y-96940285D01*
X210764381Y-94845047D02*
X210764381Y-95321238D01*
X209764381Y-95321238D01*
X210240571Y-94511714D02*
X210240571Y-94178380D01*
X210764381Y-94035523D02*
X210764381Y-94511714D01*
X209764381Y-94511714D01*
X209764381Y-94035523D01*
X210764381Y-93606952D02*
X209764381Y-93606952D01*
X209764381Y-93368857D01*
X209812000Y-93225999D01*
X209907238Y-93130761D01*
X210002476Y-93083142D01*
X210192952Y-93035523D01*
X210335810Y-93035523D01*
X210526286Y-93083142D01*
X210621524Y-93130761D01*
X210716762Y-93225999D01*
X210764381Y-93368857D01*
X210764381Y-93606952D01*
X209764381Y-92702190D02*
X209764381Y-92083142D01*
X210145333Y-92416476D01*
X210145333Y-92273618D01*
X210192952Y-92178380D01*
X210240571Y-92130761D01*
X210335810Y-92083142D01*
X210573905Y-92083142D01*
X210669143Y-92130761D01*
X210716762Y-92178380D01*
X210764381Y-92273618D01*
X210764381Y-92559333D01*
X210716762Y-92654571D01*
X210669143Y-92702190D01*
X210383429Y-90892666D02*
X210383429Y-90130761D01*
X212812381Y-73993333D02*
X213526667Y-73993333D01*
X213669524Y-74040953D01*
X213764762Y-74136191D01*
X213812381Y-74279048D01*
X213812381Y-74374286D01*
X212812381Y-73088571D02*
X212812381Y-73279048D01*
X212860000Y-73374286D01*
X212907619Y-73421905D01*
X213050476Y-73517143D01*
X213240952Y-73564762D01*
X213621905Y-73564762D01*
X213717143Y-73517143D01*
X213764762Y-73469524D01*
X213812381Y-73374286D01*
X213812381Y-73183809D01*
X213764762Y-73088571D01*
X213717143Y-73040952D01*
X213621905Y-72993333D01*
X213383810Y-72993333D01*
X213288571Y-73040952D01*
X213240952Y-73088571D01*
X213193333Y-73183809D01*
X213193333Y-73374286D01*
X213240952Y-73469524D01*
X213288571Y-73517143D01*
X213383810Y-73564762D01*
X210383429Y-77255238D02*
X210383429Y-76493333D01*
X210764381Y-76874285D02*
X210002476Y-76874285D01*
X210764381Y-74779047D02*
X210764381Y-75255238D01*
X209764381Y-75255238D01*
X210240571Y-74445714D02*
X210240571Y-74112380D01*
X210764381Y-73969523D02*
X210764381Y-74445714D01*
X209764381Y-74445714D01*
X209764381Y-73969523D01*
X210764381Y-73540952D02*
X209764381Y-73540952D01*
X209764381Y-73302857D01*
X209812000Y-73159999D01*
X209907238Y-73064761D01*
X210002476Y-73017142D01*
X210192952Y-72969523D01*
X210335810Y-72969523D01*
X210526286Y-73017142D01*
X210621524Y-73064761D01*
X210716762Y-73159999D01*
X210764381Y-73302857D01*
X210764381Y-73540952D01*
X209764381Y-72064761D02*
X209764381Y-72540952D01*
X210240571Y-72588571D01*
X210192952Y-72540952D01*
X210145333Y-72445714D01*
X210145333Y-72207618D01*
X210192952Y-72112380D01*
X210240571Y-72064761D01*
X210335810Y-72017142D01*
X210573905Y-72017142D01*
X210669143Y-72064761D01*
X210716762Y-72112380D01*
X210764381Y-72207618D01*
X210764381Y-72445714D01*
X210716762Y-72540952D01*
X210669143Y-72588571D01*
X210383429Y-70826666D02*
X210383429Y-70064761D01*
X191452643Y-69572167D02*
X191928834Y-69572167D01*
X191357405Y-69857881D02*
X191690738Y-68857881D01*
X192024072Y-69857881D01*
X192357405Y-69857881D02*
X192357405Y-68857881D01*
X192928834Y-69857881D01*
X192928834Y-68857881D01*
X193262167Y-68857881D02*
X193833596Y-68857881D01*
X193547881Y-69857881D02*
X193547881Y-68857881D01*
X212812381Y-104473333D02*
X213526667Y-104473333D01*
X213669524Y-104520953D01*
X213764762Y-104616191D01*
X213812381Y-104759048D01*
X213812381Y-104854286D01*
X213240952Y-103854286D02*
X213193333Y-103949524D01*
X213145714Y-103997143D01*
X213050476Y-104044762D01*
X213002857Y-104044762D01*
X212907619Y-103997143D01*
X212860000Y-103949524D01*
X212812381Y-103854286D01*
X212812381Y-103663809D01*
X212860000Y-103568571D01*
X212907619Y-103520952D01*
X213002857Y-103473333D01*
X213050476Y-103473333D01*
X213145714Y-103520952D01*
X213193333Y-103568571D01*
X213240952Y-103663809D01*
X213240952Y-103854286D01*
X213288571Y-103949524D01*
X213336190Y-103997143D01*
X213431429Y-104044762D01*
X213621905Y-104044762D01*
X213717143Y-103997143D01*
X213764762Y-103949524D01*
X213812381Y-103854286D01*
X213812381Y-103663809D01*
X213764762Y-103568571D01*
X213717143Y-103520952D01*
X213621905Y-103473333D01*
X213431429Y-103473333D01*
X213336190Y-103520952D01*
X213288571Y-103568571D01*
X213240952Y-103663809D01*
X210383429Y-107735238D02*
X210383429Y-106973333D01*
X210764381Y-107354285D02*
X210002476Y-107354285D01*
X210764381Y-105259047D02*
X210764381Y-105735238D01*
X209764381Y-105735238D01*
X210240571Y-104925714D02*
X210240571Y-104592380D01*
X210764381Y-104449523D02*
X210764381Y-104925714D01*
X209764381Y-104925714D01*
X209764381Y-104449523D01*
X210764381Y-104020952D02*
X209764381Y-104020952D01*
X209764381Y-103782857D01*
X209812000Y-103639999D01*
X209907238Y-103544761D01*
X210002476Y-103497142D01*
X210192952Y-103449523D01*
X210335810Y-103449523D01*
X210526286Y-103497142D01*
X210621524Y-103544761D01*
X210716762Y-103639999D01*
X210764381Y-103782857D01*
X210764381Y-104020952D01*
X209859619Y-103068571D02*
X209812000Y-103020952D01*
X209764381Y-102925714D01*
X209764381Y-102687618D01*
X209812000Y-102592380D01*
X209859619Y-102544761D01*
X209954857Y-102497142D01*
X210050095Y-102497142D01*
X210192952Y-102544761D01*
X210764381Y-103116190D01*
X210764381Y-102497142D01*
X210383429Y-101306666D02*
X210383429Y-100544761D01*
X212812381Y-84153333D02*
X213526667Y-84153333D01*
X213669524Y-84200953D01*
X213764762Y-84296191D01*
X213812381Y-84439048D01*
X213812381Y-84534286D01*
X213812381Y-83629524D02*
X213812381Y-83439048D01*
X213764762Y-83343809D01*
X213717143Y-83296190D01*
X213574286Y-83200952D01*
X213383810Y-83153333D01*
X213002857Y-83153333D01*
X212907619Y-83200952D01*
X212860000Y-83248571D01*
X212812381Y-83343809D01*
X212812381Y-83534286D01*
X212860000Y-83629524D01*
X212907619Y-83677143D01*
X213002857Y-83724762D01*
X213240952Y-83724762D01*
X213336190Y-83677143D01*
X213383810Y-83629524D01*
X213431429Y-83534286D01*
X213431429Y-83343809D01*
X213383810Y-83248571D01*
X213336190Y-83200952D01*
X213240952Y-83153333D01*
X210383429Y-87161238D02*
X210383429Y-86399333D01*
X210764381Y-86780285D02*
X210002476Y-86780285D01*
X210764381Y-84685047D02*
X210764381Y-85161238D01*
X209764381Y-85161238D01*
X210240571Y-84351714D02*
X210240571Y-84018380D01*
X210764381Y-83875523D02*
X210764381Y-84351714D01*
X209764381Y-84351714D01*
X209764381Y-83875523D01*
X210764381Y-83446952D02*
X209764381Y-83446952D01*
X209764381Y-83208857D01*
X209812000Y-83065999D01*
X209907238Y-82970761D01*
X210002476Y-82923142D01*
X210192952Y-82875523D01*
X210335810Y-82875523D01*
X210526286Y-82923142D01*
X210621524Y-82970761D01*
X210716762Y-83065999D01*
X210764381Y-83208857D01*
X210764381Y-83446952D01*
X210097714Y-82018380D02*
X210764381Y-82018380D01*
X209716762Y-82256476D02*
X210431048Y-82494571D01*
X210431048Y-81875523D01*
X210383429Y-80732666D02*
X210383429Y-79970761D01*
X198032619Y-116300238D02*
X197985000Y-116395476D01*
X197889762Y-116490714D01*
X197746905Y-116633571D01*
X197699286Y-116728810D01*
X197699286Y-116824048D01*
X197937381Y-116776429D02*
X197889762Y-116871667D01*
X197794524Y-116966905D01*
X197604048Y-117014524D01*
X197270714Y-117014524D01*
X197080238Y-116966905D01*
X196985000Y-116871667D01*
X196937381Y-116776429D01*
X196937381Y-116585952D01*
X196985000Y-116490714D01*
X197080238Y-116395476D01*
X197270714Y-116347857D01*
X197604048Y-116347857D01*
X197794524Y-116395476D01*
X197889762Y-116490714D01*
X197937381Y-116585952D01*
X197937381Y-116776429D01*
X197937381Y-115395476D02*
X197937381Y-115966905D01*
X197937381Y-115681191D02*
X196937381Y-115681191D01*
X197080238Y-115776429D01*
X197175476Y-115871667D01*
X197223095Y-115966905D01*
X197651619Y-96361238D02*
X197604000Y-96456476D01*
X197508762Y-96551714D01*
X197365905Y-96694571D01*
X197318286Y-96789810D01*
X197318286Y-96885048D01*
X197556381Y-96837429D02*
X197508762Y-96932667D01*
X197413524Y-97027905D01*
X197223048Y-97075524D01*
X196889714Y-97075524D01*
X196699238Y-97027905D01*
X196604000Y-96932667D01*
X196556381Y-96837429D01*
X196556381Y-96646952D01*
X196604000Y-96551714D01*
X196699238Y-96456476D01*
X196889714Y-96408857D01*
X197223048Y-96408857D01*
X197413524Y-96456476D01*
X197508762Y-96551714D01*
X197556381Y-96646952D01*
X197556381Y-96837429D01*
X196651619Y-96027905D02*
X196604000Y-95980286D01*
X196556381Y-95885048D01*
X196556381Y-95646952D01*
X196604000Y-95551714D01*
X196651619Y-95504095D01*
X196746857Y-95456476D01*
X196842095Y-95456476D01*
X196984952Y-95504095D01*
X197556381Y-96075524D01*
X197556381Y-95456476D01*
X197651619Y-76295238D02*
X197604000Y-76390476D01*
X197508762Y-76485714D01*
X197365905Y-76628571D01*
X197318286Y-76723810D01*
X197318286Y-76819048D01*
X197556381Y-76771429D02*
X197508762Y-76866667D01*
X197413524Y-76961905D01*
X197223048Y-77009524D01*
X196889714Y-77009524D01*
X196699238Y-76961905D01*
X196604000Y-76866667D01*
X196556381Y-76771429D01*
X196556381Y-76580952D01*
X196604000Y-76485714D01*
X196699238Y-76390476D01*
X196889714Y-76342857D01*
X197223048Y-76342857D01*
X197413524Y-76390476D01*
X197508762Y-76485714D01*
X197556381Y-76580952D01*
X197556381Y-76771429D01*
X196556381Y-76009524D02*
X196556381Y-75390476D01*
X196937333Y-75723810D01*
X196937333Y-75580952D01*
X196984952Y-75485714D01*
X197032571Y-75438095D01*
X197127810Y-75390476D01*
X197365905Y-75390476D01*
X197461143Y-75438095D01*
X197508762Y-75485714D01*
X197556381Y-75580952D01*
X197556381Y-75866667D01*
X197508762Y-75961905D01*
X197461143Y-76009524D01*
X197905619Y-107029238D02*
X197858000Y-107124476D01*
X197762762Y-107219714D01*
X197619905Y-107362571D01*
X197572286Y-107457810D01*
X197572286Y-107553048D01*
X197810381Y-107505429D02*
X197762762Y-107600667D01*
X197667524Y-107695905D01*
X197477048Y-107743524D01*
X197143714Y-107743524D01*
X196953238Y-107695905D01*
X196858000Y-107600667D01*
X196810381Y-107505429D01*
X196810381Y-107314952D01*
X196858000Y-107219714D01*
X196953238Y-107124476D01*
X197143714Y-107076857D01*
X197477048Y-107076857D01*
X197667524Y-107124476D01*
X197762762Y-107219714D01*
X197810381Y-107314952D01*
X197810381Y-107505429D01*
X197143714Y-106219714D02*
X197810381Y-106219714D01*
X196762762Y-106457810D02*
X197477048Y-106695905D01*
X197477048Y-106076857D01*
X197651619Y-86328238D02*
X197604000Y-86423476D01*
X197508762Y-86518714D01*
X197365905Y-86661571D01*
X197318286Y-86756810D01*
X197318286Y-86852048D01*
X197556381Y-86804429D02*
X197508762Y-86899667D01*
X197413524Y-86994905D01*
X197223048Y-87042524D01*
X196889714Y-87042524D01*
X196699238Y-86994905D01*
X196604000Y-86899667D01*
X196556381Y-86804429D01*
X196556381Y-86613952D01*
X196604000Y-86518714D01*
X196699238Y-86423476D01*
X196889714Y-86375857D01*
X197223048Y-86375857D01*
X197413524Y-86423476D01*
X197508762Y-86518714D01*
X197556381Y-86613952D01*
X197556381Y-86804429D01*
X196556381Y-85471095D02*
X196556381Y-85947286D01*
X197032571Y-85994905D01*
X196984952Y-85947286D01*
X196937333Y-85852048D01*
X196937333Y-85613952D01*
X196984952Y-85518714D01*
X197032571Y-85471095D01*
X197127810Y-85423476D01*
X197365905Y-85423476D01*
X197461143Y-85471095D01*
X197508762Y-85518714D01*
X197556381Y-85613952D01*
X197556381Y-85852048D01*
X197508762Y-85947286D01*
X197461143Y-85994905D01*
X158186381Y-124372666D02*
X157710190Y-124706000D01*
X158186381Y-124944095D02*
X157186381Y-124944095D01*
X157186381Y-124563142D01*
X157234000Y-124467904D01*
X157281619Y-124420285D01*
X157376857Y-124372666D01*
X157519714Y-124372666D01*
X157614952Y-124420285D01*
X157662571Y-124467904D01*
X157710190Y-124563142D01*
X157710190Y-124944095D01*
X158186381Y-123420285D02*
X158186381Y-123991714D01*
X158186381Y-123706000D02*
X157186381Y-123706000D01*
X157329238Y-123801238D01*
X157424476Y-123896476D01*
X157472095Y-123991714D01*
X161488381Y-124372666D02*
X161012190Y-124706000D01*
X161488381Y-124944095D02*
X160488381Y-124944095D01*
X160488381Y-124563142D01*
X160536000Y-124467904D01*
X160583619Y-124420285D01*
X160678857Y-124372666D01*
X160821714Y-124372666D01*
X160916952Y-124420285D01*
X160964571Y-124467904D01*
X161012190Y-124563142D01*
X161012190Y-124944095D01*
X160583619Y-123991714D02*
X160536000Y-123944095D01*
X160488381Y-123848857D01*
X160488381Y-123610761D01*
X160536000Y-123515523D01*
X160583619Y-123467904D01*
X160678857Y-123420285D01*
X160774095Y-123420285D01*
X160916952Y-123467904D01*
X161488381Y-124039333D01*
X161488381Y-123420285D01*
X176728381Y-124372666D02*
X176252190Y-124706000D01*
X176728381Y-124944095D02*
X175728381Y-124944095D01*
X175728381Y-124563142D01*
X175776000Y-124467904D01*
X175823619Y-124420285D01*
X175918857Y-124372666D01*
X176061714Y-124372666D01*
X176156952Y-124420285D01*
X176204571Y-124467904D01*
X176252190Y-124563142D01*
X176252190Y-124944095D01*
X176061714Y-123515523D02*
X176728381Y-123515523D01*
X175680762Y-123753619D02*
X176395048Y-123991714D01*
X176395048Y-123372666D01*
X180412381Y-120054666D02*
X179936190Y-120388000D01*
X180412381Y-120626095D02*
X179412381Y-120626095D01*
X179412381Y-120245142D01*
X179460000Y-120149904D01*
X179507619Y-120102285D01*
X179602857Y-120054666D01*
X179745714Y-120054666D01*
X179840952Y-120102285D01*
X179888571Y-120149904D01*
X179936190Y-120245142D01*
X179936190Y-120626095D01*
X179412381Y-119149904D02*
X179412381Y-119626095D01*
X179888571Y-119673714D01*
X179840952Y-119626095D01*
X179793333Y-119530857D01*
X179793333Y-119292761D01*
X179840952Y-119197523D01*
X179888571Y-119149904D01*
X179983810Y-119102285D01*
X180221905Y-119102285D01*
X180317143Y-119149904D01*
X180364762Y-119197523D01*
X180412381Y-119292761D01*
X180412381Y-119530857D01*
X180364762Y-119626095D01*
X180317143Y-119673714D01*
X194128381Y-111926666D02*
X193652190Y-112260000D01*
X194128381Y-112498095D02*
X193128381Y-112498095D01*
X193128381Y-112117142D01*
X193176000Y-112021904D01*
X193223619Y-111974285D01*
X193318857Y-111926666D01*
X193461714Y-111926666D01*
X193556952Y-111974285D01*
X193604571Y-112021904D01*
X193652190Y-112117142D01*
X193652190Y-112498095D01*
X193556952Y-111355238D02*
X193509333Y-111450476D01*
X193461714Y-111498095D01*
X193366476Y-111545714D01*
X193318857Y-111545714D01*
X193223619Y-111498095D01*
X193176000Y-111450476D01*
X193128381Y-111355238D01*
X193128381Y-111164761D01*
X193176000Y-111069523D01*
X193223619Y-111021904D01*
X193318857Y-110974285D01*
X193366476Y-110974285D01*
X193461714Y-111021904D01*
X193509333Y-111069523D01*
X193556952Y-111164761D01*
X193556952Y-111355238D01*
X193604571Y-111450476D01*
X193652190Y-111498095D01*
X193747429Y-111545714D01*
X193937905Y-111545714D01*
X194033143Y-111498095D01*
X194080762Y-111450476D01*
X194128381Y-111355238D01*
X194128381Y-111164761D01*
X194080762Y-111069523D01*
X194033143Y-111021904D01*
X193937905Y-110974285D01*
X193747429Y-110974285D01*
X193652190Y-111021904D01*
X193604571Y-111069523D01*
X193556952Y-111164761D01*
X189556381Y-103036666D02*
X189080190Y-103370000D01*
X189556381Y-103608095D02*
X188556381Y-103608095D01*
X188556381Y-103227142D01*
X188604000Y-103131904D01*
X188651619Y-103084285D01*
X188746857Y-103036666D01*
X188889714Y-103036666D01*
X188984952Y-103084285D01*
X189032571Y-103131904D01*
X189080190Y-103227142D01*
X189080190Y-103608095D01*
X189556381Y-102560476D02*
X189556381Y-102370000D01*
X189508762Y-102274761D01*
X189461143Y-102227142D01*
X189318286Y-102131904D01*
X189127810Y-102084285D01*
X188746857Y-102084285D01*
X188651619Y-102131904D01*
X188604000Y-102179523D01*
X188556381Y-102274761D01*
X188556381Y-102465238D01*
X188604000Y-102560476D01*
X188651619Y-102608095D01*
X188746857Y-102655714D01*
X188984952Y-102655714D01*
X189080190Y-102608095D01*
X189127810Y-102560476D01*
X189175429Y-102465238D01*
X189175429Y-102274761D01*
X189127810Y-102179523D01*
X189080190Y-102131904D01*
X188984952Y-102084285D01*
X180412381Y-103512857D02*
X179936190Y-103846191D01*
X180412381Y-104084286D02*
X179412381Y-104084286D01*
X179412381Y-103703333D01*
X179460000Y-103608095D01*
X179507619Y-103560476D01*
X179602857Y-103512857D01*
X179745714Y-103512857D01*
X179840952Y-103560476D01*
X179888571Y-103608095D01*
X179936190Y-103703333D01*
X179936190Y-104084286D01*
X180412381Y-102560476D02*
X180412381Y-103131905D01*
X180412381Y-102846191D02*
X179412381Y-102846191D01*
X179555238Y-102941429D01*
X179650476Y-103036667D01*
X179698095Y-103131905D01*
X179412381Y-101941429D02*
X179412381Y-101846190D01*
X179460000Y-101750952D01*
X179507619Y-101703333D01*
X179602857Y-101655714D01*
X179793333Y-101608095D01*
X180031429Y-101608095D01*
X180221905Y-101655714D01*
X180317143Y-101703333D01*
X180364762Y-101750952D01*
X180412381Y-101846190D01*
X180412381Y-101941429D01*
X180364762Y-102036667D01*
X180317143Y-102084286D01*
X180221905Y-102131905D01*
X180031429Y-102179524D01*
X179793333Y-102179524D01*
X179602857Y-102131905D01*
X179507619Y-102084286D01*
X179460000Y-102036667D01*
X179412381Y-101941429D01*
X194128381Y-116212857D02*
X193652190Y-116546191D01*
X194128381Y-116784286D02*
X193128381Y-116784286D01*
X193128381Y-116403333D01*
X193176000Y-116308095D01*
X193223619Y-116260476D01*
X193318857Y-116212857D01*
X193461714Y-116212857D01*
X193556952Y-116260476D01*
X193604571Y-116308095D01*
X193652190Y-116403333D01*
X193652190Y-116784286D01*
X194128381Y-115260476D02*
X194128381Y-115831905D01*
X194128381Y-115546191D02*
X193128381Y-115546191D01*
X193271238Y-115641429D01*
X193366476Y-115736667D01*
X193414095Y-115831905D01*
X194128381Y-114308095D02*
X194128381Y-114879524D01*
X194128381Y-114593810D02*
X193128381Y-114593810D01*
X193271238Y-114689048D01*
X193366476Y-114784286D01*
X193414095Y-114879524D01*
X189556381Y-107322857D02*
X189080190Y-107656191D01*
X189556381Y-107894286D02*
X188556381Y-107894286D01*
X188556381Y-107513333D01*
X188604000Y-107418095D01*
X188651619Y-107370476D01*
X188746857Y-107322857D01*
X188889714Y-107322857D01*
X188984952Y-107370476D01*
X189032571Y-107418095D01*
X189080190Y-107513333D01*
X189080190Y-107894286D01*
X189556381Y-106370476D02*
X189556381Y-106941905D01*
X189556381Y-106656191D02*
X188556381Y-106656191D01*
X188699238Y-106751429D01*
X188794476Y-106846667D01*
X188842095Y-106941905D01*
X188651619Y-105989524D02*
X188604000Y-105941905D01*
X188556381Y-105846667D01*
X188556381Y-105608571D01*
X188604000Y-105513333D01*
X188651619Y-105465714D01*
X188746857Y-105418095D01*
X188842095Y-105418095D01*
X188984952Y-105465714D01*
X189556381Y-106037143D01*
X189556381Y-105418095D01*
X180412381Y-107322857D02*
X179936190Y-107656191D01*
X180412381Y-107894286D02*
X179412381Y-107894286D01*
X179412381Y-107513333D01*
X179460000Y-107418095D01*
X179507619Y-107370476D01*
X179602857Y-107322857D01*
X179745714Y-107322857D01*
X179840952Y-107370476D01*
X179888571Y-107418095D01*
X179936190Y-107513333D01*
X179936190Y-107894286D01*
X180412381Y-106370476D02*
X180412381Y-106941905D01*
X180412381Y-106656191D02*
X179412381Y-106656191D01*
X179555238Y-106751429D01*
X179650476Y-106846667D01*
X179698095Y-106941905D01*
X179412381Y-106037143D02*
X179412381Y-105418095D01*
X179793333Y-105751429D01*
X179793333Y-105608571D01*
X179840952Y-105513333D01*
X179888571Y-105465714D01*
X179983810Y-105418095D01*
X180221905Y-105418095D01*
X180317143Y-105465714D01*
X180364762Y-105513333D01*
X180412381Y-105608571D01*
X180412381Y-105894286D01*
X180364762Y-105989524D01*
X180317143Y-106037143D01*
X194128381Y-103512857D02*
X193652190Y-103846191D01*
X194128381Y-104084286D02*
X193128381Y-104084286D01*
X193128381Y-103703333D01*
X193176000Y-103608095D01*
X193223619Y-103560476D01*
X193318857Y-103512857D01*
X193461714Y-103512857D01*
X193556952Y-103560476D01*
X193604571Y-103608095D01*
X193652190Y-103703333D01*
X193652190Y-104084286D01*
X194128381Y-102560476D02*
X194128381Y-103131905D01*
X194128381Y-102846191D02*
X193128381Y-102846191D01*
X193271238Y-102941429D01*
X193366476Y-103036667D01*
X193414095Y-103131905D01*
X193461714Y-101703333D02*
X194128381Y-101703333D01*
X193080762Y-101941429D02*
X193795048Y-102179524D01*
X193795048Y-101560476D01*
X184984381Y-103512857D02*
X184508190Y-103846191D01*
X184984381Y-104084286D02*
X183984381Y-104084286D01*
X183984381Y-103703333D01*
X184032000Y-103608095D01*
X184079619Y-103560476D01*
X184174857Y-103512857D01*
X184317714Y-103512857D01*
X184412952Y-103560476D01*
X184460571Y-103608095D01*
X184508190Y-103703333D01*
X184508190Y-104084286D01*
X184984381Y-102560476D02*
X184984381Y-103131905D01*
X184984381Y-102846191D02*
X183984381Y-102846191D01*
X184127238Y-102941429D01*
X184222476Y-103036667D01*
X184270095Y-103131905D01*
X183984381Y-101655714D02*
X183984381Y-102131905D01*
X184460571Y-102179524D01*
X184412952Y-102131905D01*
X184365333Y-102036667D01*
X184365333Y-101798571D01*
X184412952Y-101703333D01*
X184460571Y-101655714D01*
X184555810Y-101608095D01*
X184793905Y-101608095D01*
X184889143Y-101655714D01*
X184936762Y-101703333D01*
X184984381Y-101798571D01*
X184984381Y-102036667D01*
X184936762Y-102131905D01*
X184889143Y-102179524D01*
X194128381Y-107322857D02*
X193652190Y-107656191D01*
X194128381Y-107894286D02*
X193128381Y-107894286D01*
X193128381Y-107513333D01*
X193176000Y-107418095D01*
X193223619Y-107370476D01*
X193318857Y-107322857D01*
X193461714Y-107322857D01*
X193556952Y-107370476D01*
X193604571Y-107418095D01*
X193652190Y-107513333D01*
X193652190Y-107894286D01*
X194128381Y-106370476D02*
X194128381Y-106941905D01*
X194128381Y-106656191D02*
X193128381Y-106656191D01*
X193271238Y-106751429D01*
X193366476Y-106846667D01*
X193414095Y-106941905D01*
X193128381Y-105513333D02*
X193128381Y-105703810D01*
X193176000Y-105799048D01*
X193223619Y-105846667D01*
X193366476Y-105941905D01*
X193556952Y-105989524D01*
X193937905Y-105989524D01*
X194033143Y-105941905D01*
X194080762Y-105894286D01*
X194128381Y-105799048D01*
X194128381Y-105608571D01*
X194080762Y-105513333D01*
X194033143Y-105465714D01*
X193937905Y-105418095D01*
X193699810Y-105418095D01*
X193604571Y-105465714D01*
X193556952Y-105513333D01*
X193509333Y-105608571D01*
X193509333Y-105799048D01*
X193556952Y-105894286D01*
X193604571Y-105941905D01*
X193699810Y-105989524D01*
X184984381Y-107322857D02*
X184508190Y-107656191D01*
X184984381Y-107894286D02*
X183984381Y-107894286D01*
X183984381Y-107513333D01*
X184032000Y-107418095D01*
X184079619Y-107370476D01*
X184174857Y-107322857D01*
X184317714Y-107322857D01*
X184412952Y-107370476D01*
X184460571Y-107418095D01*
X184508190Y-107513333D01*
X184508190Y-107894286D01*
X184984381Y-106370476D02*
X184984381Y-106941905D01*
X184984381Y-106656191D02*
X183984381Y-106656191D01*
X184127238Y-106751429D01*
X184222476Y-106846667D01*
X184270095Y-106941905D01*
X183984381Y-106037143D02*
X183984381Y-105370476D01*
X184984381Y-105799048D01*
X179975072Y-69572143D02*
X179927453Y-69619762D01*
X179784596Y-69667381D01*
X179689358Y-69667381D01*
X179546500Y-69619762D01*
X179451262Y-69524524D01*
X179403643Y-69429286D01*
X179356024Y-69238810D01*
X179356024Y-69095952D01*
X179403643Y-68905476D01*
X179451262Y-68810238D01*
X179546500Y-68715000D01*
X179689358Y-68667381D01*
X179784596Y-68667381D01*
X179927453Y-68715000D01*
X179975072Y-68762619D01*
X180546500Y-69667381D02*
X180451262Y-69619762D01*
X180403643Y-69572143D01*
X180356024Y-69476905D01*
X180356024Y-69191190D01*
X180403643Y-69095952D01*
X180451262Y-69048333D01*
X180546500Y-69000714D01*
X180689358Y-69000714D01*
X180784596Y-69048333D01*
X180832215Y-69095952D01*
X180879834Y-69191190D01*
X180879834Y-69476905D01*
X180832215Y-69572143D01*
X180784596Y-69619762D01*
X180689358Y-69667381D01*
X180546500Y-69667381D01*
X181308405Y-69000714D02*
X181308405Y-69667381D01*
X181308405Y-69095952D02*
X181356024Y-69048333D01*
X181451262Y-69000714D01*
X181594120Y-69000714D01*
X181689358Y-69048333D01*
X181736977Y-69143571D01*
X181736977Y-69667381D01*
X182070310Y-69000714D02*
X182451262Y-69000714D01*
X182213167Y-69667381D02*
X182213167Y-68810238D01*
X182260786Y-68715000D01*
X182356024Y-68667381D01*
X182451262Y-68667381D01*
X182784596Y-69667381D02*
X182784596Y-69000714D01*
X182784596Y-68667381D02*
X182736977Y-68715000D01*
X182784596Y-68762619D01*
X182832215Y-68715000D01*
X182784596Y-68667381D01*
X182784596Y-68762619D01*
X183689358Y-69000714D02*
X183689358Y-69810238D01*
X183641739Y-69905476D01*
X183594120Y-69953095D01*
X183498881Y-70000714D01*
X183356024Y-70000714D01*
X183260786Y-69953095D01*
X183689358Y-69619762D02*
X183594120Y-69667381D01*
X183403643Y-69667381D01*
X183308405Y-69619762D01*
X183260786Y-69572143D01*
X183213167Y-69476905D01*
X183213167Y-69191190D01*
X183260786Y-69095952D01*
X183308405Y-69048333D01*
X183403643Y-69000714D01*
X183594120Y-69000714D01*
X183689358Y-69048333D01*
X189039595Y-112863381D02*
X189039595Y-113672905D01*
X189087214Y-113768143D01*
X189134833Y-113815762D01*
X189230071Y-113863381D01*
X189420548Y-113863381D01*
X189515786Y-113815762D01*
X189563405Y-113768143D01*
X189611024Y-113672905D01*
X189611024Y-112863381D01*
X189991976Y-112863381D02*
X190611024Y-112863381D01*
X190277690Y-113244333D01*
X190420548Y-113244333D01*
X190515786Y-113291952D01*
X190563405Y-113339571D01*
X190611024Y-113434810D01*
X190611024Y-113672905D01*
X190563405Y-113768143D01*
X190515786Y-113815762D01*
X190420548Y-113863381D01*
X190134833Y-113863381D01*
X190039595Y-113815762D01*
X189991976Y-113768143D01*
X155043143Y-124372666D02*
X155090762Y-124420285D01*
X155138381Y-124563142D01*
X155138381Y-124658380D01*
X155090762Y-124801238D01*
X154995524Y-124896476D01*
X154900286Y-124944095D01*
X154709810Y-124991714D01*
X154566952Y-124991714D01*
X154376476Y-124944095D01*
X154281238Y-124896476D01*
X154186000Y-124801238D01*
X154138381Y-124658380D01*
X154138381Y-124563142D01*
X154186000Y-124420285D01*
X154233619Y-124372666D01*
X155138381Y-123420285D02*
X155138381Y-123991714D01*
X155138381Y-123706000D02*
X154138381Y-123706000D01*
X154281238Y-123801238D01*
X154376476Y-123896476D01*
X154424095Y-123991714D01*
X170537143Y-124372666D02*
X170584762Y-124420285D01*
X170632381Y-124563142D01*
X170632381Y-124658380D01*
X170584762Y-124801238D01*
X170489524Y-124896476D01*
X170394286Y-124944095D01*
X170203810Y-124991714D01*
X170060952Y-124991714D01*
X169870476Y-124944095D01*
X169775238Y-124896476D01*
X169680000Y-124801238D01*
X169632381Y-124658380D01*
X169632381Y-124563142D01*
X169680000Y-124420285D01*
X169727619Y-124372666D01*
X169727619Y-123991714D02*
X169680000Y-123944095D01*
X169632381Y-123848857D01*
X169632381Y-123610761D01*
X169680000Y-123515523D01*
X169727619Y-123467904D01*
X169822857Y-123420285D01*
X169918095Y-123420285D01*
X170060952Y-123467904D01*
X170632381Y-124039333D01*
X170632381Y-123420285D01*
X183999143Y-123610666D02*
X184046762Y-123658285D01*
X184094381Y-123801142D01*
X184094381Y-123896380D01*
X184046762Y-124039238D01*
X183951524Y-124134476D01*
X183856286Y-124182095D01*
X183665810Y-124229714D01*
X183522952Y-124229714D01*
X183332476Y-124182095D01*
X183237238Y-124134476D01*
X183142000Y-124039238D01*
X183094381Y-123896380D01*
X183094381Y-123801142D01*
X183142000Y-123658285D01*
X183189619Y-123610666D01*
X183094381Y-122705904D02*
X183094381Y-123182095D01*
X183570571Y-123229714D01*
X183522952Y-123182095D01*
X183475333Y-123086857D01*
X183475333Y-122848761D01*
X183522952Y-122753523D01*
X183570571Y-122705904D01*
X183665810Y-122658285D01*
X183903905Y-122658285D01*
X183999143Y-122705904D01*
X184046762Y-122753523D01*
X184094381Y-122848761D01*
X184094381Y-123086857D01*
X184046762Y-123182095D01*
X183999143Y-123229714D01*
X173680381Y-124372666D02*
X173204190Y-124706000D01*
X173680381Y-124944095D02*
X172680381Y-124944095D01*
X172680381Y-124563142D01*
X172728000Y-124467904D01*
X172775619Y-124420285D01*
X172870857Y-124372666D01*
X173013714Y-124372666D01*
X173108952Y-124420285D01*
X173156571Y-124467904D01*
X173204190Y-124563142D01*
X173204190Y-124944095D01*
X172680381Y-124039333D02*
X172680381Y-123420285D01*
X173061333Y-123753619D01*
X173061333Y-123610761D01*
X173108952Y-123515523D01*
X173156571Y-123467904D01*
X173251810Y-123420285D01*
X173489905Y-123420285D01*
X173585143Y-123467904D01*
X173632762Y-123515523D01*
X173680381Y-123610761D01*
X173680381Y-123896476D01*
X173632762Y-123991714D01*
X173585143Y-124039333D01*
X184222381Y-120054666D02*
X183746190Y-120388000D01*
X184222381Y-120626095D02*
X183222381Y-120626095D01*
X183222381Y-120245142D01*
X183270000Y-120149904D01*
X183317619Y-120102285D01*
X183412857Y-120054666D01*
X183555714Y-120054666D01*
X183650952Y-120102285D01*
X183698571Y-120149904D01*
X183746190Y-120245142D01*
X183746190Y-120626095D01*
X183222381Y-119197523D02*
X183222381Y-119388000D01*
X183270000Y-119483238D01*
X183317619Y-119530857D01*
X183460476Y-119626095D01*
X183650952Y-119673714D01*
X184031905Y-119673714D01*
X184127143Y-119626095D01*
X184174762Y-119578476D01*
X184222381Y-119483238D01*
X184222381Y-119292761D01*
X184174762Y-119197523D01*
X184127143Y-119149904D01*
X184031905Y-119102285D01*
X183793810Y-119102285D01*
X183698571Y-119149904D01*
X183650952Y-119197523D01*
X183603333Y-119292761D01*
X183603333Y-119483238D01*
X183650952Y-119578476D01*
X183698571Y-119626095D01*
X183793810Y-119673714D01*
X188032381Y-120054666D02*
X187556190Y-120388000D01*
X188032381Y-120626095D02*
X187032381Y-120626095D01*
X187032381Y-120245142D01*
X187080000Y-120149904D01*
X187127619Y-120102285D01*
X187222857Y-120054666D01*
X187365714Y-120054666D01*
X187460952Y-120102285D01*
X187508571Y-120149904D01*
X187556190Y-120245142D01*
X187556190Y-120626095D01*
X187032381Y-119721333D02*
X187032381Y-119054666D01*
X188032381Y-119483238D01*
X195223477Y-130881381D02*
X195223477Y-129881381D01*
X195556811Y-130595667D01*
X195890144Y-129881381D01*
X195890144Y-130881381D01*
X196366334Y-130881381D02*
X196366334Y-130214714D01*
X196366334Y-129881381D02*
X196318715Y-129929000D01*
X196366334Y-129976619D01*
X196413953Y-129929000D01*
X196366334Y-129881381D01*
X196366334Y-129976619D01*
X196842524Y-130214714D02*
X196842524Y-130881381D01*
X196842524Y-130309952D02*
X196890143Y-130262333D01*
X196985381Y-130214714D01*
X197128239Y-130214714D01*
X197223477Y-130262333D01*
X197271096Y-130357571D01*
X197271096Y-130881381D01*
X197747286Y-130881381D02*
X197747286Y-130214714D01*
X197747286Y-129881381D02*
X197699667Y-129929000D01*
X197747286Y-129976619D01*
X197794905Y-129929000D01*
X197747286Y-129881381D01*
X197747286Y-129976619D01*
X198128238Y-129881381D02*
X198747286Y-129881381D01*
X198413952Y-130262333D01*
X198556810Y-130262333D01*
X198652048Y-130309952D01*
X198699667Y-130357571D01*
X198747286Y-130452810D01*
X198747286Y-130690905D01*
X198699667Y-130786143D01*
X198652048Y-130833762D01*
X198556810Y-130881381D01*
X198271095Y-130881381D01*
X198175857Y-130833762D01*
X198128238Y-130786143D01*
X199604429Y-129881381D02*
X199413952Y-129881381D01*
X199318714Y-129929000D01*
X199271095Y-129976619D01*
X199175857Y-130119476D01*
X199128238Y-130309952D01*
X199128238Y-130690905D01*
X199175857Y-130786143D01*
X199223476Y-130833762D01*
X199318714Y-130881381D01*
X199509191Y-130881381D01*
X199604429Y-130833762D01*
X199652048Y-130786143D01*
X199699667Y-130690905D01*
X199699667Y-130452810D01*
X199652048Y-130357571D01*
X199604429Y-130309952D01*
X199509191Y-130262333D01*
X199318714Y-130262333D01*
X199223476Y-130309952D01*
X199175857Y-130357571D01*
X199128238Y-130452810D01*
X200318714Y-129881381D02*
X200413953Y-129881381D01*
X200509191Y-129929000D01*
X200556810Y-129976619D01*
X200604429Y-130071857D01*
X200652048Y-130262333D01*
X200652048Y-130500429D01*
X200604429Y-130690905D01*
X200556810Y-130786143D01*
X200509191Y-130833762D01*
X200413953Y-130881381D01*
X200318714Y-130881381D01*
X200223476Y-130833762D01*
X200175857Y-130786143D01*
X200128238Y-130690905D01*
X200080619Y-130500429D01*
X200080619Y-130262333D01*
X200128238Y-130071857D01*
X200175857Y-129976619D01*
X200223476Y-129929000D01*
X200318714Y-129881381D01*
X201080619Y-130881381D02*
X201080619Y-129881381D01*
X201318714Y-129881381D01*
X201461572Y-129929000D01*
X201556810Y-130024238D01*
X201604429Y-130119476D01*
X201652048Y-130309952D01*
X201652048Y-130452810D01*
X201604429Y-130643286D01*
X201556810Y-130738524D01*
X201461572Y-130833762D01*
X201318714Y-130881381D01*
X201080619Y-130881381D01*
X202652048Y-130786143D02*
X202604429Y-130833762D01*
X202461572Y-130881381D01*
X202366334Y-130881381D01*
X202223476Y-130833762D01*
X202128238Y-130738524D01*
X202080619Y-130643286D01*
X202033000Y-130452810D01*
X202033000Y-130309952D01*
X202080619Y-130119476D01*
X202128238Y-130024238D01*
X202223476Y-129929000D01*
X202366334Y-129881381D01*
X202461572Y-129881381D01*
X202604429Y-129929000D01*
X202652048Y-129976619D01*
X203080619Y-130500429D02*
X203842524Y-130500429D01*
X204318714Y-130881381D02*
X204318714Y-129881381D01*
X204556809Y-129881381D01*
X204699667Y-129929000D01*
X204794905Y-130024238D01*
X204842524Y-130119476D01*
X204890143Y-130309952D01*
X204890143Y-130452810D01*
X204842524Y-130643286D01*
X204794905Y-130738524D01*
X204699667Y-130833762D01*
X204556809Y-130881381D01*
X204318714Y-130881381D01*
X205890143Y-130786143D02*
X205842524Y-130833762D01*
X205699667Y-130881381D01*
X205604429Y-130881381D01*
X205461571Y-130833762D01*
X205366333Y-130738524D01*
X205318714Y-130643286D01*
X205271095Y-130452810D01*
X205271095Y-130309952D01*
X205318714Y-130119476D01*
X205366333Y-130024238D01*
X205461571Y-129929000D01*
X205604429Y-129881381D01*
X205699667Y-129881381D01*
X205842524Y-129929000D01*
X205890143Y-129976619D01*
X205970143Y-124880666D02*
X206017762Y-124928285D01*
X206065381Y-125071142D01*
X206065381Y-125166380D01*
X206017762Y-125309238D01*
X205922524Y-125404476D01*
X205827286Y-125452095D01*
X205636810Y-125499714D01*
X205493952Y-125499714D01*
X205303476Y-125452095D01*
X205208238Y-125404476D01*
X205113000Y-125309238D01*
X205065381Y-125166380D01*
X205065381Y-125071142D01*
X205113000Y-124928285D01*
X205160619Y-124880666D01*
X205065381Y-124547333D02*
X205065381Y-123880666D01*
X206065381Y-124309238D01*
X195429143Y-125134666D02*
X195476762Y-125182285D01*
X195524381Y-125325142D01*
X195524381Y-125420380D01*
X195476762Y-125563238D01*
X195381524Y-125658476D01*
X195286286Y-125706095D01*
X195095810Y-125753714D01*
X194952952Y-125753714D01*
X194762476Y-125706095D01*
X194667238Y-125658476D01*
X194572000Y-125563238D01*
X194524381Y-125420380D01*
X194524381Y-125325142D01*
X194572000Y-125182285D01*
X194619619Y-125134666D01*
X194952952Y-124563238D02*
X194905333Y-124658476D01*
X194857714Y-124706095D01*
X194762476Y-124753714D01*
X194714857Y-124753714D01*
X194619619Y-124706095D01*
X194572000Y-124658476D01*
X194524381Y-124563238D01*
X194524381Y-124372761D01*
X194572000Y-124277523D01*
X194619619Y-124229904D01*
X194714857Y-124182285D01*
X194762476Y-124182285D01*
X194857714Y-124229904D01*
X194905333Y-124277523D01*
X194952952Y-124372761D01*
X194952952Y-124563238D01*
X195000571Y-124658476D01*
X195048190Y-124706095D01*
X195143429Y-124753714D01*
X195333905Y-124753714D01*
X195429143Y-124706095D01*
X195476762Y-124658476D01*
X195524381Y-124563238D01*
X195524381Y-124372761D01*
X195476762Y-124277523D01*
X195429143Y-124229904D01*
X195333905Y-124182285D01*
X195143429Y-124182285D01*
X195048190Y-124229904D01*
X195000571Y-124277523D01*
X194952952Y-124372761D01*
X199644095Y-123277381D02*
X199644095Y-124086905D01*
X199691714Y-124182143D01*
X199739333Y-124229762D01*
X199834571Y-124277381D01*
X200025048Y-124277381D01*
X200120286Y-124229762D01*
X200167905Y-124182143D01*
X200215524Y-124086905D01*
X200215524Y-123277381D01*
X201167905Y-123277381D02*
X200691714Y-123277381D01*
X200644095Y-123753571D01*
X200691714Y-123705952D01*
X200786952Y-123658333D01*
X201025048Y-123658333D01*
X201120286Y-123705952D01*
X201167905Y-123753571D01*
X201215524Y-123848810D01*
X201215524Y-124086905D01*
X201167905Y-124182143D01*
X201120286Y-124229762D01*
X201025048Y-124277381D01*
X200786952Y-124277381D01*
X200691714Y-124229762D01*
X200644095Y-124182143D01*
X164973095Y-81240381D02*
X164973095Y-82049905D01*
X165020714Y-82145143D01*
X165068333Y-82192762D01*
X165163571Y-82240381D01*
X165354048Y-82240381D01*
X165449286Y-82192762D01*
X165496905Y-82145143D01*
X165544524Y-82049905D01*
X165544524Y-81240381D01*
X166449286Y-81573714D02*
X166449286Y-82240381D01*
X166211190Y-81192762D02*
X165973095Y-81907048D01*
X166592143Y-81907048D01*
X191619143Y-116562166D02*
X191666762Y-116609785D01*
X191714381Y-116752642D01*
X191714381Y-116847880D01*
X191666762Y-116990738D01*
X191571524Y-117085976D01*
X191476286Y-117133595D01*
X191285810Y-117181214D01*
X191142952Y-117181214D01*
X190952476Y-117133595D01*
X190857238Y-117085976D01*
X190762000Y-116990738D01*
X190714381Y-116847880D01*
X190714381Y-116752642D01*
X190762000Y-116609785D01*
X190809619Y-116562166D01*
X191714381Y-116085976D02*
X191714381Y-115895500D01*
X191666762Y-115800261D01*
X191619143Y-115752642D01*
X191476286Y-115657404D01*
X191285810Y-115609785D01*
X190904857Y-115609785D01*
X190809619Y-115657404D01*
X190762000Y-115705023D01*
X190714381Y-115800261D01*
X190714381Y-115990738D01*
X190762000Y-116085976D01*
X190809619Y-116133595D01*
X190904857Y-116181214D01*
X191142952Y-116181214D01*
X191238190Y-116133595D01*
X191285810Y-116085976D01*
X191333429Y-115990738D01*
X191333429Y-115800261D01*
X191285810Y-115705023D01*
X191238190Y-115657404D01*
X191142952Y-115609785D01*
M02*
